<svg width="143" height="143" viewBox="0 0 143 143" fill="none" xmlns="http://www.w3.org/2000/svg">
<circle cx="71.5" cy="71.5" r="71.5" fill="white"/>
<path d="M92.094 84.57C92.094 88.59 91.3793 91.7613 89.95 94.084C88.5207 96.3173 86.4213 98.4167 83.652 100.382C82.9373 100.829 81.9547 101.365 80.704 101.99C79.4533 102.615 78.0687 103.196 76.55 103.732C75.0313 104.268 73.4233 104.715 71.726 105.072C70.0287 105.429 68.4653 105.608 67.036 105.608C63.016 105.608 59.9787 105.161 57.924 104.268C55.8693 103.464 54.842 102.481 54.842 101.32C54.842 100.069 55.1993 99.042 55.914 98.238C56.6287 97.434 57.254 96.9873 57.79 96.898L59.264 97.97C59.7107 98.4167 60.336 98.908 61.14 99.444C61.944 99.8907 63.2393 100.114 65.026 100.114C66.7233 100.114 68.778 99.846 71.19 99.31C73.602 98.6847 75.88 97.7913 78.024 96.63C80.2573 95.3793 82.1333 93.8607 83.652 92.074C85.26 90.2873 86.064 88.2327 86.064 85.91C86.064 83.8553 84.5007 81.9793 81.374 80.282C78.3367 78.4953 73.5127 77.2893 66.902 76.664C63.5073 76.396 60.1573 75.994 56.852 75.458C53.5467 74.8327 50.554 74.0287 47.874 73.046C45.2833 71.974 43.184 70.6787 41.576 69.16C39.968 67.552 39.164 65.5867 39.164 63.264C39.164 61.0307 39.7893 58.8867 41.04 56.832C42.2907 54.7773 43.8093 52.9013 45.596 51.204C47.472 49.4173 49.3927 47.854 51.358 46.514C53.3233 45.174 54.976 44.0573 56.316 43.164C57.388 42.5387 58.862 41.7347 60.738 40.752C62.7033 39.68 64.758 38.6973 66.902 37.804C69.1353 36.8213 71.324 36.0173 73.468 35.392C75.7013 34.6773 77.5773 34.32 79.096 34.32C80.8827 34.32 82.0887 34.8113 82.714 35.794C83.3393 36.7767 83.652 38.1613 83.652 39.948C83.652 41.4667 83.4733 43.0747 83.116 44.772C82.7587 46.4693 82.3567 48.122 81.91 49.73C81.4633 51.338 81.0167 52.7673 80.57 54.018C80.2127 55.1793 79.9447 55.9387 79.766 56.296C79.4087 57.1 79.0067 57.636 78.56 57.904C78.1133 58.172 77.8007 58.306 77.622 58.306C77.2647 58.306 77.086 58.0827 77.086 57.636C77.086 57.368 77.1307 56.8767 77.22 56.162C77.3987 55.358 77.5773 54.42 77.756 53.348C78.024 52.276 78.2027 51.1147 78.292 49.864C78.4707 48.6133 78.56 47.3627 78.56 46.112C78.56 44.1467 78.4707 42.7173 78.292 41.824C78.1133 40.9307 77.3987 40.484 76.148 40.484C74.8973 40.484 73.2 40.8413 71.056 41.556C68.912 42.1813 66.7233 42.9853 64.49 43.968C62.078 45.04 59.7107 46.4247 57.388 48.122C55.1547 49.8193 53.1447 51.5613 51.358 53.348C49.5713 55.1347 48.0973 56.8767 46.936 58.574C45.864 60.182 45.328 61.4773 45.328 62.46C45.328 63.532 46.0427 64.5593 47.472 65.542C48.9907 66.4353 50.8667 67.2393 53.1 67.954C55.4227 68.6687 57.9687 69.294 60.738 69.83C63.5073 70.366 66.232 70.768 68.912 71.036C71.1453 71.304 73.602 71.6613 76.282 72.108C78.962 72.5547 81.4633 73.2693 83.786 74.252C86.1087 75.2347 88.074 76.5747 89.682 78.272C91.29 79.88 92.094 81.9793 92.094 84.57Z" fill="black"/>
</svg>
