<svg width="113" height="89" viewBox="0 0 113 89" fill="none" xmlns="http://www.w3.org/2000/svg">
<path d="M23.9108 0C17.5489 0 12.8429 5.57993 13.053 11.6314C13.2551 17.4439 12.9927 24.9738 11.1002 31.1132C9.20322 37.272 5.99436 41.1639 0.75293 41.6647V47.3361C5.99436 47.8361 9.20322 51.7289 11.1002 57.8877C12.9927 64.0271 13.2542 71.557 13.053 77.3695C12.842 83.421 17.5489 89 23.9108 89H89.0985C95.4603 89 100.166 83.4201 99.9563 77.3695C99.7542 71.557 100.017 64.0271 101.908 57.8877C103.805 51.7298 107.006 47.8369 112.247 47.3361V41.6647C107.006 41.1648 103.806 37.272 101.908 31.1132C100.017 24.9738 99.7542 17.4439 99.9563 11.6314C100.166 5.57993 95.4603 0 89.0976 0H23.9108ZM75.4245 54.7746C75.4245 63.1072 69.2177 68.1587 58.9183 68.1587H39.9294C39.8139 68.1587 39.7032 68.1128 39.6216 68.0311C39.54 67.9493 39.4941 67.8384 39.4941 67.7228V21.2595C39.494 21.2022 39.5052 21.1454 39.527 21.0924C39.5488 21.0394 39.5809 20.9912 39.6213 20.9506C39.6617 20.91 39.7097 20.8778 39.7626 20.8559C39.8155 20.8339 39.8721 20.8226 39.9294 20.8226H58.8182C67.4068 20.8226 73.0426 25.4808 73.0426 32.6324C73.0426 37.6521 69.2514 42.1451 64.4204 42.9328V43.1956C70.9959 43.9175 75.4245 48.4772 75.4245 54.7746ZM57.0063 26.8261H47.0092V40.9642H55.4303C61.9384 40.9642 65.5275 38.3402 65.5275 33.6492C65.5275 29.2538 62.4419 26.8261 57.0063 26.8261ZM47.0092 46.5743V62.1562H57.376C64.1527 62.1562 67.7427 59.4337 67.7427 54.3155C67.7427 49.1982 64.0525 46.5743 56.9399 46.5743H47.0092Z" fill="#666666"/>
</svg>
