<svg width="188" height="188" viewBox="0 0 188 188" fill="none" xmlns="http://www.w3.org/2000/svg">
<g clip-path="url(#clip0_944_85)">
<rect width="188" height="188" rx="48" fill="#EDE0FF"/>
<path d="M37.886 52.8986C37.6147 45.1473 43.6927 38 51.9094 38H136.102C144.319 38 150.397 45.1473 150.125 52.8986C149.864 60.3439 150.203 69.9889 152.646 77.8528C155.098 85.7417 159.23 90.7268 166 91.3683V98.6328C159.23 99.2743 155.098 104.259 152.646 112.148C150.203 120.012 149.864 129.657 150.125 137.103C150.397 144.854 144.319 152 136.102 152H51.9094C43.6927 152 37.6147 144.853 37.886 137.103C38.147 129.657 37.8082 120.012 35.3639 112.148C32.9139 104.261 28.7695 99.2743 22 98.6328V91.3683C28.7695 90.728 32.9139 85.7417 35.3639 77.8528C37.8082 69.9889 38.1459 60.3439 37.886 52.8986Z" fill="url(#paint0_linear_944_85)"/>
<g filter="url(#filter0_d_944_85)">
<path d="M97.8684 126C111.054 126 119 119.49 119 108.753C119 100.636 113.331 94.7604 104.912 93.8302V93.4921C111.097 92.4776 115.951 86.6862 115.951 80.2185C115.951 71.003 108.735 65 97.7396 65H73V126H97.8684ZM82.621 72.736H95.4204C102.378 72.736 106.33 75.8642 106.33 81.5288C106.33 87.5739 101.734 90.9556 93.4017 90.9556H82.621V72.736ZM82.621 118.264V98.1843H95.3343C104.44 98.1843 109.164 101.566 109.164 108.161C109.164 114.755 104.569 118.264 95.8927 118.264H82.621Z" fill="url(#paint1_linear_944_85)"/>
</g>
</g>
<defs>
<filter id="filter0_d_944_85" x="69.0694" y="62.0521" width="53.8611" height="68.8611" filterUnits="userSpaceOnUse" color-interpolation-filters="sRGB">
<feFlood flood-opacity="0" result="BackgroundImageFix"/>
<feColorMatrix in="SourceAlpha" type="matrix" values="0 0 0 0 0 0 0 0 0 0 0 0 0 0 0 0 0 0 127 0" result="hardAlpha"/>
<feOffset dy="0.98264"/>
<feGaussianBlur stdDeviation="1.96528"/>
<feColorMatrix type="matrix" values="0 0 0 0 0 0 0 0 0 0 0 0 0 0 0 0 0 0 0.15 0"/>
<feBlend mode="normal" in2="BackgroundImageFix" result="effect1_dropShadow_944_85"/>
<feBlend mode="normal" in="SourceGraphic" in2="effect1_dropShadow_944_85" result="shape"/>
</filter>
<linearGradient id="paint0_linear_944_85" x1="43.398" y1="41.0171" x2="168.59" y2="141.048" gradientUnits="userSpaceOnUse">
<stop stop-color="#9013FE"/>
<stop offset="1" stop-color="#6610F2"/>
</linearGradient>
<linearGradient id="paint1_linear_944_85" x1="77.3524" y1="69.0142" x2="105.575" y2="116.353" gradientUnits="userSpaceOnUse">
<stop stop-color="white"/>
<stop offset="1" stop-color="#F1E5FC"/>
</linearGradient>
<clipPath id="clip0_944_85">
<rect width="188" height="188" fill="white"/>
</clipPath>
</defs>
</svg>
