<svg width="1728" height="2030" viewBox="0 0 1728 2030" fill="none" xmlns="http://www.w3.org/2000/svg">
<path d="M82 2002.44C47.2 2024.06 6.83333 1993.44 -9 1975.43L-27 219.912L38 180.468L223.5 219.912H456L609 109.686H783H1001.5L1139.5 43.226H1386.5H1575.5L1728 0V109.686V1731.74L1706.5 1755.52L1652 1774.97L1615.5 1904.64C1550 1912.39 1412.5 1927.88 1386.5 1927.88C1354 1927.88 1270 1884.65 1255.5 1857.1C1241 1829.54 1048.5 1857.1 1001.5 1857.1C963.9 1857.1 944.5 1904.28 939.5 1927.88C853.5 1927.88 662.6 1937.39 587 1975.43C511.4 2013.47 429.5 2027.66 398 2030L267 1904.64C219.833 1928.24 116.8 1980.83 82 2002.44Z" fill="#FFF7F5"/>
</svg>
