<svg width="36" height="36" viewBox="0 0 36 36" fill="none" xmlns="http://www.w3.org/2000/svg">
<path d="M17.9995 0C15.6357 0 13.2951 0.477143 11.1112 1.40419C8.92735 2.33123 6.94304 3.69002 5.27159 5.40297C1.89593 8.86243 -0.000488281 13.5545 -0.000488281 18.4469C-0.000488281 26.6004 5.16551 33.518 12.3115 35.9714C13.2115 36.119 13.4995 35.5471 13.4995 35.0491V31.9316C8.51351 33.0384 7.45151 29.4597 7.45151 29.4597C6.62351 27.3198 5.45351 26.748 5.45351 26.748C3.81551 25.6043 5.57951 25.6412 5.57951 25.6412C7.37951 25.7703 8.33351 27.5412 8.33351 27.5412C9.89951 30.3451 12.5455 29.515 13.5715 29.0723C13.7335 27.8732 14.2015 27.0616 14.7055 26.6004C10.7095 26.1392 6.51551 24.5528 6.51551 17.5245C6.51551 15.4769 7.19951 13.8352 8.36951 12.5254C8.18951 12.0643 7.55951 10.1458 8.54951 7.65546C8.54951 7.65546 10.0615 7.15739 13.4995 9.53704C14.9215 9.13121 16.4695 8.92829 17.9995 8.92829C19.5295 8.92829 21.0775 9.13121 22.4995 9.53704C25.9375 7.15739 27.4495 7.65546 27.4495 7.65546C28.4395 10.1458 27.8095 12.0643 27.6295 12.5254C28.7995 13.8352 29.4835 15.4769 29.4835 17.5245C29.4835 24.5713 25.2715 26.1208 21.2575 26.582C21.9055 27.1538 22.4995 28.2791 22.4995 29.9946V35.0491C22.4995 35.5471 22.7875 36.1374 23.7055 35.9714C30.8515 33.4995 35.9995 26.6004 35.9995 18.4469C35.9995 16.0244 35.5339 13.6256 34.6293 11.3876C33.7248 9.14949 32.3989 7.11592 30.7274 5.40297C29.056 3.69002 27.0717 2.33123 24.8878 1.40419C22.704 0.477143 20.3633 0 17.9995 0Z" fill="#FF2E00"/>
</svg>
