<svg width="183" height="131" viewBox="0 0 183 131" fill="none" xmlns="http://www.w3.org/2000/svg">
<path d="M62.6477 98.9986C63.7883 102.159 64.1263 104.855 63.6617 107.087C63.1717 109.248 62.1169 111.494 60.4973 113.825C60.0622 114.379 59.4418 115.079 58.6359 115.926C57.8301 116.772 56.9063 117.622 55.8644 118.474C54.8226 119.326 53.6851 120.134 52.4521 120.896C51.2191 121.659 50.0407 122.243 48.917 122.648C45.7565 123.789 43.2419 124.3 41.3731 124.18C39.5296 124.131 38.4431 123.65 38.1136 122.737C37.7587 121.754 37.7481 120.845 38.0818 120.01C38.4156 119.175 38.7804 118.647 39.1765 118.424L40.6395 118.849C41.1174 119.073 41.7484 119.282 42.5326 119.475C43.2915 119.598 44.3732 119.406 45.7778 118.899C47.1123 118.418 48.6516 117.624 50.3957 116.518C52.1146 115.342 53.652 113.994 55.0081 112.472C56.409 110.855 57.453 109.129 58.14 107.294C58.8972 105.433 58.9463 103.589 58.2872 101.763C57.7042 100.148 55.9428 99.1164 53.0031 98.6692C50.1082 98.1264 45.9735 98.5471 40.5988 99.9312C37.854 100.684 35.1062 101.318 32.3555 101.835C29.5795 102.281 26.9986 102.498 24.6128 102.486C22.2718 102.378 20.2538 101.956 18.5587 101.218C16.8383 100.41 15.6485 99.093 14.9895 97.2669C14.3558 95.5111 14.239 93.6481 14.6393 91.6779C15.0395 89.7077 15.7012 87.8019 16.6242 85.9605C17.5921 84.0235 18.6585 82.2495 19.8234 80.6384C20.9883 79.0272 21.9708 77.6804 22.7708 76.5978C23.4361 75.802 24.3668 74.7517 25.5629 73.4468C26.8038 72.0464 28.1403 70.6908 29.5724 69.3801C31.0494 67.9739 32.5419 66.7207 34.0501 65.6208C35.6031 64.4252 36.9766 63.612 38.1705 63.181C39.5752 62.6741 40.6627 62.7182 41.4332 63.3133C42.2037 63.9084 42.8424 64.9083 43.3493 66.3129C43.7802 67.5069 44.096 68.8218 44.2967 70.2576C44.4974 71.6934 44.6503 73.1067 44.7554 74.4977C44.8605 75.8886 44.9149 77.139 44.9186 78.249C44.9672 79.2634 44.972 79.9365 44.9329 80.2681C44.8801 81.0016 44.7162 81.537 44.4411 81.8745C44.1659 82.2119 43.9581 82.406 43.8177 82.4567C43.5368 82.5581 43.3329 82.4332 43.2062 82.082C43.1301 81.8713 43.0258 81.4724 42.8933 80.8852C42.8056 80.2024 42.6799 79.4142 42.5162 78.5208C42.4227 77.6019 42.2337 76.6382 41.949 75.6296C41.7346 74.5957 41.45 73.5871 41.0951 72.6038C40.5374 71.0587 40.0616 69.9603 39.6677 69.3087C39.2738 68.6571 38.5852 68.5087 37.6019 68.8636C36.6186 69.2184 35.3856 69.981 33.9028 71.1512C32.3947 72.2512 30.9021 73.5043 29.4252 74.9106C27.8331 76.4377 26.3648 78.1981 25.0204 80.1915C23.7462 82.1597 22.6602 84.0995 21.7626 86.0111C20.8649 87.9227 20.2003 89.7105 19.7689 91.3745C19.3824 92.9428 19.3285 94.1133 19.6074 94.8858C19.9116 95.7286 20.7649 96.3335 22.1675 96.7005C23.6149 96.9719 25.3179 97.0717 27.2765 96.9998C29.3053 96.9026 31.4844 96.6718 33.8137 96.3074C36.143 95.943 38.3991 95.486 40.5821 94.9362C42.414 94.5132 44.4468 94.0971 46.6805 93.6878C48.9142 93.2785 51.0835 93.1306 53.1884 93.2441C55.2932 93.3576 57.2186 93.8535 58.9644 94.7316C60.6848 95.5395 61.9126 96.9618 62.6477 98.9986ZM91.1569 83.9462C91.6348 84.1707 91.8864 84.318 91.9118 84.3882C91.9624 84.5287 91.9038 85.0261 91.7359 85.8805C91.6382 86.7096 91.4128 87.6245 91.0595 88.6252C90.7063 89.6259 90.2574 90.5817 89.713 91.4926C89.2135 92.3079 88.6125 92.8423 87.9102 93.0958C86.4353 93.6281 85.14 93.7781 84.0242 93.5458C82.883 93.2432 81.8316 92.7495 80.87 92.0646C79.9786 91.3544 79.1672 90.5359 78.4359 89.6091C77.7494 88.5868 77.1233 87.622 76.5578 86.7148C76.2399 86.2739 76.0107 86.0788 75.8702 86.1295C75.6595 86.2055 75.5169 87.1302 75.4425 88.9034C75.3427 90.6064 75.2361 92.5104 75.1226 94.6152C75.054 96.6245 74.9473 98.5285 74.8027 100.327C74.7029 102.03 74.5476 102.92 74.3369 102.996C73.0728 103.452 71.794 103.318 70.5008 102.594C69.2524 101.775 68.0939 100.764 67.025 99.562C66.0011 98.2646 65.0825 96.9291 64.2693 95.5556C63.4307 94.1119 62.8242 92.9813 62.4498 92.1639C61.5547 90.3436 59.9575 87.3479 57.6582 83.1768C55.359 79.0056 52.8229 73.8483 50.0499 67.7048C49.4278 66.4211 48.8213 65.2905 48.2304 64.3131C47.6844 63.2401 47.0652 62.0744 46.3729 60.816C45.6806 59.5576 44.96 58.111 44.2112 56.4761C43.4624 54.8413 42.6444 52.7948 41.7572 50.3366C41.7065 50.1962 41.5769 49.727 41.3683 48.9291C41.1597 48.1312 40.9608 47.2504 40.7718 46.2866C40.5827 45.3229 40.5019 44.4392 40.5294 43.6355C40.627 42.8064 40.8866 42.3158 41.308 42.1638C41.7996 41.9863 42.3702 42.1376 43.0197 42.6176C43.6439 43.0274 44.2358 43.5678 44.7956 44.239C45.4256 44.8848 45.9376 45.5335 46.3315 46.1852C46.7255 46.8368 46.9731 47.3031 47.0745 47.584C47.4547 48.6375 47.7394 49.6461 47.9284 50.6098C48.1175 51.5735 48.3514 52.4417 48.6303 53.2142C49.0105 54.2677 49.5623 55.5768 50.2858 57.1414C51.0795 58.6807 51.921 60.2425 52.8103 61.8266C53.6996 63.4108 54.5411 64.9726 55.3348 66.5119C56.1031 67.9809 56.735 69.1818 57.2303 70.1143C57.2557 70.1845 57.5033 70.6508 57.9733 71.5131C58.4433 72.3755 59.002 73.4836 59.6495 74.8376C60.3418 76.0959 61.0497 77.5074 61.7731 79.0721C62.5415 80.5411 63.3098 82.0102 64.0782 83.4793C64.8212 84.8781 65.4784 86.1492 66.0498 87.2924C66.6661 88.3401 67.098 89.0971 67.3457 89.5633C67.4217 89.774 67.5709 90.0774 67.7932 90.4735C68.0604 90.7739 68.3179 91.1573 68.5656 91.6236C68.8835 92.0645 69.1887 92.4703 69.4812 92.841C69.7738 93.2117 70.0634 93.4644 70.3502 93.599C70.4674 92.6042 70.5252 91.1148 70.5236 89.1308C70.5922 87.1215 70.6482 85.0771 70.6914 82.9976C70.8049 80.8927 70.9369 79.059 71.0874 77.4965C71.2828 75.8383 71.6262 74.9206 72.1179 74.7431C72.6797 74.5403 73.1743 74.4809 73.6015 74.5649C74.0287 74.6488 74.5486 74.6597 75.1611 74.5973C75.9648 74.6248 76.4554 74.8843 76.6328 75.3759C76.7849 75.7973 77.0453 76.2987 77.4139 76.8801C77.8585 77.6722 78.4748 78.7199 79.2627 80.0231C80.0955 81.2308 80.9633 82.4258 81.8664 83.6081C82.744 84.7202 83.6285 85.6314 84.5199 86.3416C85.4113 87.0519 86.1379 87.3056 86.6998 87.1028C86.9807 87.0014 87.2403 86.5108 87.4784 85.6311C87.6912 84.6811 88.2063 84.0189 89.0238 83.6445C89.1642 83.5938 89.4481 83.6104 89.8753 83.6944C90.2771 83.7081 90.7043 83.7921 91.1569 83.9462ZM137.562 64.4593C138.018 65.7235 137.991 67.5191 137.482 69.8463C137.017 72.078 136.118 74.4265 134.786 76.8921C133.453 79.3576 131.715 81.6915 129.573 83.8935C127.405 86.0254 124.917 87.5982 122.107 88.6122C120.843 89.0684 119.433 89.3393 117.876 89.4249C116.319 89.5105 114.734 89.4078 113.121 89.1168C111.482 88.7557 109.934 88.2033 108.475 87.4598C106.99 86.6461 105.736 85.5905 104.712 84.2931C104.443 84.8666 104.169 85.759 103.892 86.9704C103.685 88.1564 103.421 89.4029 103.099 90.7099C102.751 91.9466 102.295 93.1034 101.731 94.1801C101.142 95.1866 100.391 95.8546 99.478 96.1841C98.565 96.5137 97.6277 96.336 96.666 95.6511C95.7493 94.8706 94.9126 93.9819 94.1558 92.9849C93.3738 91.9177 92.7224 90.8827 92.2017 89.8799C91.681 88.8771 91.3953 88.3055 91.3446 88.1651C91.0404 87.3223 90.7159 85.6533 90.3711 83.1582C90.0008 80.5929 89.8511 77.8686 89.9218 74.9854C89.9925 72.1021 90.4105 69.4111 91.1756 66.9123C92.011 64.3881 93.447 62.7585 95.4838 62.0234C96.2563 61.7445 96.8747 61.9183 97.3389 62.5446C97.8479 63.0753 98.2165 63.6566 98.4447 64.2887L99.5853 67.4492C100.038 67.6034 100.465 67.6873 100.867 67.7011C101.314 67.6192 101.716 67.6329 102.073 67.7422C102.474 67.756 102.809 67.9131 103.076 68.2135C103.414 68.4886 103.722 69.0125 104.001 69.785C104.178 70.2767 104.308 70.7458 104.389 71.1926C104.446 71.5691 104.538 71.9329 104.664 72.2841C105.323 74.1101 106.11 75.8504 107.025 77.5048C107.939 79.1592 109.072 80.5366 110.421 81.6371C111.746 82.6673 113.31 83.3728 115.115 83.7535C116.894 84.064 119.012 83.7756 121.47 82.8885C124.561 81.7731 126.931 80.2032 128.582 78.1785C130.277 76.0583 131.549 73.9722 132.396 71.9201C133.288 69.7725 133.927 67.9145 134.313 66.3461C134.674 64.7075 135.136 63.7868 135.698 63.584C136.611 63.2545 137.232 63.5463 137.562 64.4593ZM98.9113 73.1697C98.8099 72.8888 98.651 72.6683 98.4345 72.5083C98.1926 72.2781 98.0337 72.0576 97.9576 71.8469C97.8562 71.566 97.8377 71.2949 97.9022 71.0335C97.9666 70.7721 97.9354 70.4658 97.8087 70.1146C97.7326 69.9039 97.6117 69.7888 97.4459 69.7693C97.2547 69.6795 97.1338 69.5644 97.0831 69.4239C96.5017 69.7925 96.05 70.6303 95.7279 71.9373C95.476 73.2189 95.2875 74.6761 95.1624 76.3089C95.1075 77.9163 95.1706 79.5208 95.3517 81.1225C95.5075 82.6538 95.7502 83.876 96.0797 84.7891C96.2572 85.2807 96.6891 86.0377 97.3756 87.06C98.0621 88.0823 98.6443 88.7057 99.1222 88.9301C99.429 86.0411 99.6558 83.2603 99.8025 80.5877C100.02 77.8898 99.7225 75.4172 98.9113 73.1697ZM144.339 44.8669C144.415 45.0776 144.569 46.054 144.801 47.7961C145.033 49.5382 145.341 51.491 145.724 53.6544C145.945 54.9244 146.24 56.8421 146.61 59.4074C147.025 61.8772 148.095 65.5 149.818 70.2758C149.869 70.4162 149.973 70.8152 150.131 71.4726C150.334 72.0345 150.444 72.6695 150.461 73.3776C150.549 74.0604 150.519 74.7461 150.37 75.4347C150.197 76.0531 149.759 76.489 149.056 76.7425C148.424 76.9706 147.621 76.9432 146.645 76.6601C144.433 76.0297 142.285 75.1378 140.202 73.9845C138.119 72.8313 136.196 71.4615 134.433 69.8752C132.644 68.2187 131.076 66.4032 129.728 64.4288C128.381 62.4544 127.301 60.3434 126.49 58.096C126.389 57.8151 126.475 57.5059 126.751 57.1685C127.071 56.7354 127.336 56.4809 127.547 56.4049C128.6 56.0246 129.623 56.3301 130.616 57.3213C131.679 58.2871 132.796 59.5114 133.966 60.9942C135.206 62.4516 136.555 63.9891 138.012 65.6065C139.514 67.1284 141.313 68.265 143.41 69.0164C143.519 68.6595 143.505 68.0693 143.367 67.2461C143.228 66.4228 143.093 65.7176 142.96 65.1304C142.853 64.6134 142.616 63.6273 142.25 62.1719C141.858 60.6464 141.441 59.0505 140.998 57.3845C140.626 55.6931 140.209 54.0973 139.746 52.5971C139.355 51.0715 139.057 50.0278 138.855 49.4659C138.702 49.0445 138.56 48.5402 138.428 47.953C138.295 47.3658 138.245 46.7884 138.279 46.2207C138.382 45.6277 138.581 45.0796 138.876 44.5763C139.171 44.0731 139.669 43.6947 140.371 43.4412C140.722 43.3145 141.408 43.3448 142.428 43.5323C143.423 43.6495 144.06 44.0944 144.339 44.8669ZM146.261 31.3134C146.312 31.4539 146.168 31.8235 145.828 32.4224C145.488 33.0212 145.056 33.6932 144.531 34.4383C144.051 35.0878 143.524 35.7149 142.948 36.3195C142.372 36.9242 141.874 37.3025 141.453 37.4546C141.172 37.556 140.785 37.6954 140.294 37.8729C139.847 37.9547 139.34 37.979 138.772 37.9458C138.275 37.8871 137.787 37.7456 137.309 37.5212C136.806 37.2266 136.44 36.7632 136.212 36.1311C135.857 35.1478 135.879 34.1081 136.277 33.0118C136.65 31.8453 137.398 31.0593 138.522 30.6537C138.732 30.5777 139.227 30.5182 140.005 30.4755C140.829 30.3371 141.677 30.269 142.551 30.2711C143.425 30.2732 144.206 30.3484 144.895 30.4968C145.654 30.6198 146.109 30.892 146.261 31.3134ZM163.958 69.459C164.136 69.9507 163.901 70.5115 163.256 71.1415C162.68 71.7461 162.217 72.1118 161.865 72.2385C161.163 72.492 160.366 72.2636 159.475 71.5534C158.583 70.8432 157.712 69.9671 156.859 68.9253C156.007 67.8834 155.25 66.8864 154.589 65.9343C153.903 64.912 153.413 64.2155 153.121 63.8448C152.656 63.2185 152.071 62.4771 151.365 61.6206C150.659 60.7641 149.966 59.9427 149.285 59.1564C148.675 58.3448 148.137 57.6258 147.673 56.9996C147.209 56.3733 146.964 56.025 146.939 55.9548C146.584 54.9715 146.43 53.9951 146.477 53.0256C146.594 52.0307 146.934 51.4319 147.496 51.2291C148.128 51.001 148.972 51.2518 150.03 51.9816C151.087 52.7114 152.21 53.7347 153.4 55.0517C154.635 56.2731 155.862 57.6954 157.083 59.3187C158.279 60.8717 159.379 62.3798 160.383 63.8431C161.362 65.2361 162.173 66.4916 162.814 67.6095C163.501 68.6318 163.882 69.2483 163.958 69.459ZM179.684 66.4028C179.836 66.8242 179.778 67.3216 179.508 67.8951C179.214 68.3984 178.849 68.927 178.414 69.4809C178.023 69.9393 177.621 70.3625 177.205 70.7507C176.764 71.0686 176.508 71.2402 176.438 71.2655C175.806 71.4937 175.264 71.5306 174.811 71.3764C174.404 71.1267 174.031 70.8642 173.694 70.5891C173.401 70.2184 173.156 69.8702 172.959 69.5443C172.833 69.1932 172.744 68.9474 172.693 68.8069C172.592 68.526 172.535 68.1495 172.524 67.6774C172.487 67.1351 172.533 66.6025 172.661 66.0797C172.79 65.5569 172.98 65.0917 173.229 64.684C173.524 64.1808 173.917 63.8404 174.409 63.663C175.322 63.3335 176.304 63.4156 177.355 63.9093C178.477 64.3777 179.253 65.2088 179.684 66.4028Z" fill="black"/>
</svg>
