<svg width="107" height="45" viewBox="0 0 107 45" fill="none" xmlns="http://www.w3.org/2000/svg">
<path d="M26.224 34.72C26.224 36.64 25.8827 38.1547 25.2 39.264C24.5173 40.3307 23.5147 41.3333 22.192 42.272C21.8507 42.4853 21.3813 42.7413 20.784 43.04C20.1867 43.3387 19.5253 43.616 18.8 43.872C18.0747 44.128 17.3067 44.3413 16.496 44.512C15.6853 44.6827 14.9387 44.768 14.256 44.768C12.336 44.768 10.8853 44.5547 9.904 44.128C8.92267 43.744 8.432 43.2747 8.432 42.72C8.432 42.1227 8.60267 41.632 8.944 41.248C9.28533 40.864 9.584 40.6507 9.84 40.608L10.544 41.12C10.7573 41.3333 11.056 41.568 11.44 41.824C11.824 42.0373 12.4427 42.144 13.296 42.144C14.1067 42.144 15.088 42.016 16.24 41.76C17.392 41.4613 18.48 41.0347 19.504 40.48C20.5707 39.8827 21.4667 39.1573 22.192 38.304C22.96 37.4507 23.344 36.4693 23.344 35.36C23.344 34.3787 22.5973 33.4827 21.104 32.672C19.6533 31.8187 17.3493 31.2427 14.192 30.944C12.5707 30.816 10.9707 30.624 9.392 30.368C7.81333 30.0693 6.384 29.6853 5.104 29.216C3.86667 28.704 2.864 28.0853 2.096 27.36C1.328 26.592 0.944 25.6533 0.944 24.544C0.944 23.4773 1.24267 22.4533 1.84 21.472C2.43733 20.4907 3.16267 19.5947 4.016 18.784C4.912 17.9307 5.82933 17.184 6.768 16.544C7.70667 15.904 8.496 15.3707 9.136 14.944C9.648 14.6453 10.352 14.2613 11.248 13.792C12.1867 13.28 13.168 12.8107 14.192 12.384C15.2587 11.9147 16.304 11.5307 17.328 11.232C18.3947 10.8907 19.2907 10.72 20.016 10.72C20.8693 10.72 21.4453 10.9547 21.744 11.424C22.0427 11.8933 22.192 12.5547 22.192 13.408C22.192 14.1333 22.1067 14.9013 21.936 15.712C21.7653 16.5227 21.5733 17.312 21.36 18.08C21.1467 18.848 20.9333 19.5307 20.72 20.128C20.5493 20.6827 20.4213 21.0453 20.336 21.216C20.1653 21.6 19.9733 21.856 19.76 21.984C19.5467 22.112 19.3973 22.176 19.312 22.176C19.1413 22.176 19.056 22.0693 19.056 21.856C19.056 21.728 19.0773 21.4933 19.12 21.152C19.2053 20.768 19.2907 20.32 19.376 19.808C19.504 19.296 19.5893 18.7413 19.632 18.144C19.7173 17.5467 19.76 16.9493 19.76 16.352C19.76 15.4133 19.7173 14.7307 19.632 14.304C19.5467 13.8773 19.2053 13.664 18.608 13.664C18.0107 13.664 17.2 13.8347 16.176 14.176C15.152 14.4747 14.1067 14.8587 13.04 15.328C11.888 15.84 10.7573 16.5013 9.648 17.312C8.58133 18.1227 7.62133 18.9547 6.768 19.808C5.91467 20.6613 5.21067 21.4933 4.656 22.304C4.144 23.072 3.888 23.6907 3.888 24.16C3.888 24.672 4.22933 25.1627 4.912 25.632C5.63733 26.0587 6.53333 26.4427 7.6 26.784C8.70933 27.1253 9.92533 27.424 11.248 27.68C12.5707 27.936 13.872 28.128 15.152 28.256C16.2187 28.384 17.392 28.5547 18.672 28.768C19.952 28.9813 21.1467 29.3227 22.256 29.792C23.3653 30.2613 24.304 30.9013 25.072 31.712C25.84 32.48 26.224 33.4827 26.224 34.72ZM49.5875 32.16C49.8008 32.3733 49.9075 32.5013 49.9075 32.544C49.9075 32.6293 49.7795 32.8853 49.5235 33.312C49.3102 33.7387 49.0115 34.1867 48.6275 34.656C48.2435 35.1253 47.8168 35.552 47.3475 35.936C46.9208 36.2773 46.4942 36.448 46.0675 36.448C45.1715 36.448 44.4462 36.2773 43.8915 35.936C43.3368 35.552 42.8675 35.0827 42.4835 34.528C42.1422 33.9733 41.8648 33.376 41.6515 32.736C41.4808 32.0533 41.3315 31.4133 41.2035 30.816C41.1182 30.5173 41.0328 30.368 40.9475 30.368C40.8195 30.368 40.5635 30.8373 40.1795 31.776C39.7955 32.672 39.3688 33.6747 38.8995 34.784C38.4728 35.8507 38.0462 36.8533 37.6195 37.792C37.2355 38.688 36.9795 39.136 36.8515 39.136C36.0835 39.136 35.4222 38.816 34.8675 38.176C34.3555 37.4933 33.9288 36.7253 33.5875 35.872C33.2888 34.976 33.0542 34.08 32.8835 33.184C32.7128 32.2453 32.6062 31.52 32.5635 31.008C32.4355 29.856 32.1582 27.936 31.7315 25.248C31.3048 22.56 30.9422 19.296 30.6435 15.456C30.5582 14.6453 30.4515 13.92 30.3235 13.28C30.2382 12.5973 30.1315 11.8507 30.0035 11.04C29.8755 10.2293 29.7688 9.312 29.6835 8.288C29.5982 7.264 29.5555 6.00533 29.5555 4.512C29.5555 4.42666 29.5768 4.14933 29.6195 3.68C29.6622 3.21066 29.7262 2.69866 29.8115 2.144C29.8968 1.58933 30.0248 1.09866 30.1955 0.671997C30.4088 0.245331 30.6435 0.0319977 30.8995 0.0319977C31.1982 0.0319977 31.4755 0.223998 31.7315 0.607998C31.9875 0.949332 32.2008 1.35467 32.3715 1.824C32.5848 2.29333 32.7342 2.74133 32.8195 3.168C32.9048 3.59467 32.9475 3.89333 32.9475 4.064C32.9475 4.704 32.9048 5.30133 32.8195 5.856C32.7342 6.41067 32.6915 6.92267 32.6915 7.392C32.6915 8.032 32.7342 8.84266 32.8195 9.824C32.9475 10.8053 33.0968 11.808 33.2675 12.832C33.4382 13.856 33.5875 14.8587 33.7155 15.84C33.8435 16.7787 33.9502 17.5467 34.0355 18.144C34.0355 18.1867 34.0782 18.4853 34.1635 19.04C34.2488 19.5947 34.3342 20.2987 34.4195 21.152C34.5475 21.9627 34.6542 22.8587 34.7395 23.84C34.8675 24.7787 34.9955 25.7173 35.1235 26.656C35.2515 27.552 35.3582 28.3627 35.4435 29.088C35.5715 29.7707 35.6568 30.2613 35.6995 30.56C35.6995 30.688 35.7208 30.88 35.7635 31.136C35.8488 31.3493 35.9128 31.6053 35.9555 31.904C36.0408 32.2027 36.1262 32.48 36.2115 32.736C36.2968 32.992 36.4035 33.184 36.5315 33.312C36.7875 32.8 37.1075 32.0107 37.4915 30.944C37.9182 29.8773 38.3448 28.7893 38.7715 27.68C39.2408 26.5707 39.6675 25.6107 40.0515 24.8C40.4782 23.9467 40.8408 23.52 41.1395 23.52C41.4808 23.52 41.7582 23.584 41.9715 23.712C42.1848 23.84 42.4622 23.9467 42.8035 24.032C43.2302 24.2027 43.4435 24.4373 43.4435 24.736C43.4435 24.992 43.4862 25.312 43.5715 25.696C43.6568 26.208 43.7848 26.8907 43.9555 27.744C44.1688 28.5547 44.4035 29.3653 44.6595 30.176C44.9155 30.944 45.2142 31.6053 45.5555 32.16C45.8968 32.7147 46.2382 32.992 46.5795 32.992C46.7502 32.992 46.9848 32.7787 47.2835 32.352C47.5822 31.8827 47.9875 31.6267 48.4995 31.584C48.5848 31.584 48.7342 31.648 48.9475 31.776C49.1608 31.8613 49.3742 31.9893 49.5875 32.16ZM83.43 30.688C83.43 31.456 83.0673 32.416 82.342 33.568C81.6593 34.6773 80.7207 35.7653 79.526 36.832C78.3313 37.8987 76.9447 38.816 75.366 39.584C73.7873 40.3093 72.1447 40.672 70.438 40.672C69.67 40.672 68.8593 40.544 68.006 40.288C67.1527 40.032 66.3207 39.6693 65.51 39.2C64.6993 38.688 63.974 38.0907 63.334 37.408C62.694 36.6827 62.2247 35.872 61.926 34.976C61.67 35.232 61.35 35.6587 60.966 36.256C60.6247 36.8533 60.2407 37.472 59.814 38.112C59.3873 38.7093 58.918 39.2427 58.406 39.712C57.894 40.1387 57.3607 40.352 56.806 40.352C56.2513 40.352 55.782 40.0747 55.398 39.52C55.0567 38.9227 54.7793 38.2827 54.566 37.6C54.3527 36.8747 54.2033 36.192 54.118 35.552C54.0327 34.912 53.99 34.5493 53.99 34.464C53.99 33.952 54.1393 32.992 54.438 31.584C54.7367 30.1333 55.1847 28.64 55.782 27.104C56.3793 25.568 57.126 24.2027 58.022 23.008C58.9607 21.8133 60.0487 21.216 61.286 21.216C61.7553 21.216 62.054 21.4293 62.182 21.856C62.3527 22.24 62.438 22.624 62.438 23.008V24.928C62.6513 25.0987 62.8647 25.2267 63.078 25.312C63.334 25.3547 63.5473 25.44 63.718 25.568C63.9313 25.6533 64.0807 25.8027 64.166 26.016C64.294 26.2293 64.358 26.5707 64.358 27.04C64.358 27.3387 64.3367 27.616 64.294 27.872C64.2513 28.0853 64.23 28.2987 64.23 28.512C64.23 29.6213 64.3153 30.7093 64.486 31.776C64.6567 32.8427 64.998 33.8027 65.51 34.656C66.022 35.4667 66.726 36.1493 67.622 36.704C68.518 37.216 69.7127 37.472 71.206 37.472C73.0833 37.472 74.662 37.088 75.942 36.32C77.2647 35.5093 78.3527 34.6347 79.206 33.696C80.102 32.7147 80.806 31.84 81.318 31.072C81.83 30.2613 82.2567 29.856 82.598 29.856C83.1527 29.856 83.43 30.1333 83.43 30.688ZM60.966 27.872C60.966 27.7013 60.9233 27.552 60.838 27.424C60.7527 27.2533 60.71 27.104 60.71 26.976C60.71 26.8053 60.7527 26.656 60.838 26.528C60.9233 26.4 60.966 26.2293 60.966 26.016C60.966 25.888 60.9233 25.8027 60.838 25.76C60.7527 25.6747 60.71 25.5893 60.71 25.504C60.326 25.5893 59.9207 25.952 59.494 26.592C59.11 27.232 58.726 27.9787 58.342 28.832C58.0007 29.6853 57.7233 30.56 57.51 31.456C57.2967 32.3093 57.19 33.0133 57.19 33.568C57.19 33.8667 57.2753 34.3573 57.446 35.04C57.6167 35.7227 57.8087 36.1707 58.022 36.384C58.7473 34.8907 59.4087 33.44 60.006 32.032C60.646 30.624 60.966 29.2373 60.966 27.872ZM95.9935 21.472C95.9935 21.6 95.8868 22.1547 95.6735 23.136C95.4602 24.1173 95.2468 25.2267 95.0335 26.464C94.9055 27.1893 94.6922 28.2773 94.3935 29.728C94.1375 31.136 94.0095 33.2907 94.0095 36.192C94.0095 36.2773 93.9882 36.512 93.9455 36.896C93.9455 37.2373 93.8815 37.6 93.7535 37.984C93.6682 38.368 93.5188 38.7307 93.3055 39.072C93.0922 39.3707 92.7722 39.52 92.3455 39.52C91.9615 39.52 91.5348 39.3493 91.0655 39.008C89.9988 38.24 89.0175 37.344 88.1215 36.32C87.2255 35.296 86.4575 34.1867 85.8175 32.992C85.1775 31.7547 84.6868 30.4747 84.3455 29.152C84.0042 27.8293 83.8335 26.4853 83.8335 25.12C83.8335 24.9493 83.9402 24.8 84.1535 24.672C84.4095 24.5013 84.6015 24.416 84.7295 24.416C85.3695 24.416 85.8602 24.7787 86.2015 25.504C86.5855 26.2293 86.9482 27.104 87.2895 28.128C87.6735 29.152 88.1002 30.24 88.5695 31.392C89.0815 32.5013 89.8282 33.4613 90.8095 34.272C90.9375 34.1013 91.0442 33.7813 91.1295 33.312C91.2148 32.8427 91.2788 32.4373 91.3215 32.096C91.3642 31.7973 91.4282 31.2213 91.5135 30.368C91.5988 29.472 91.6842 28.5333 91.7695 27.552C91.8975 26.5707 91.9828 25.632 92.0255 24.736C92.1108 23.84 92.1535 23.2213 92.1535 22.88C92.1535 22.624 92.1748 22.3253 92.2175 21.984C92.2602 21.6427 92.3455 21.3227 92.4735 21.024C92.6442 20.7253 92.8575 20.4693 93.1135 20.256C93.3695 20.0427 93.7108 19.936 94.1375 19.936C94.3508 19.936 94.7135 20.0853 95.2255 20.384C95.7375 20.64 95.9935 21.0027 95.9935 21.472ZM104.776 14.56C104.776 14.6453 104.627 14.816 104.328 15.072C104.029 15.328 103.667 15.6053 103.24 15.904C102.856 16.16 102.451 16.3947 102.024 16.608C101.597 16.8213 101.256 16.928 101 16.928C100.829 16.928 100.595 16.928 100.296 16.928C100.04 16.8853 99.7627 16.8 99.464 16.672C99.208 16.544 98.9733 16.3733 98.76 16.16C98.5467 15.904 98.44 15.584 98.44 15.2C98.44 14.6027 98.6533 14.048 99.08 13.536C99.5067 12.9813 100.061 12.704 100.744 12.704C100.872 12.704 101.149 12.768 101.576 12.896C102.045 12.9813 102.515 13.1093 102.984 13.28C103.453 13.4507 103.859 13.6427 104.2 13.856C104.584 14.0693 104.776 14.304 104.776 14.56ZM106.888 38.496C106.888 38.7947 106.653 39.0507 106.184 39.264C105.757 39.4773 105.437 39.584 105.224 39.584C104.797 39.584 104.413 39.3067 104.072 38.752C103.731 38.1973 103.432 37.5573 103.176 36.832C102.92 36.1067 102.707 35.424 102.536 34.784C102.365 34.1013 102.237 33.632 102.152 33.376C102.024 32.9493 101.853 32.4373 101.64 31.84C101.427 31.2427 101.213 30.6667 101 30.112C100.829 29.5573 100.68 29.0667 100.552 28.64C100.424 28.2133 100.36 27.9787 100.36 27.936C100.36 27.3387 100.467 26.784 100.68 26.272C100.936 25.76 101.235 25.504 101.576 25.504C101.96 25.504 102.365 25.8027 102.792 26.4C103.219 26.9973 103.624 27.7653 104.008 28.704C104.435 29.6 104.819 30.6027 105.16 31.712C105.501 32.7787 105.8 33.8027 106.056 34.784C106.312 35.7227 106.504 36.5547 106.632 37.28C106.803 37.9627 106.888 38.368 106.888 38.496Z" fill="#FF2E00"/>
</svg>
