<svg width="115" height="87" viewBox="0 0 115 87" fill="none" xmlns="http://www.w3.org/2000/svg">
<path d="M54.2369 65.5171C54.129 65.7106 54.183 65.6246 54.2369 65.5171V65.5171ZM99.0029 49.9309C95.3889 49.9297 91.823 50.7572 88.5809 52.3494C87.5208 50.2175 86.4247 48.3543 86.245 46.957C86.0293 45.3267 85.7957 44.3592 86.0473 42.4244C86.2989 40.4896 87.4309 37.7485 87.4129 37.5515C87.395 37.3544 87.1614 36.3691 84.8434 36.3512C82.5254 36.3332 80.5308 36.799 80.299 37.4081C79.8896 38.5213 79.5712 39.6656 79.3467 40.83C78.9334 42.926 74.7125 50.4146 72.3226 54.3201C71.532 52.7973 70.8671 51.4537 70.7234 50.3788C70.5078 48.7485 70.2742 47.7811 70.5257 45.8462C70.7773 43.9114 71.9093 41.1703 71.8914 40.9733C71.8734 40.7762 71.6398 39.7909 69.3236 39.773C67.0074 39.755 65.011 40.2208 64.7775 40.83C64.5439 41.4391 64.2923 42.8723 63.8251 44.2518C63.3579 45.6312 57.7354 58.1002 56.2638 61.3429C55.5091 62.9911 54.8622 64.3168 54.395 65.2126C54.3231 65.3559 54.2692 65.4454 54.2333 65.5171C54.2872 65.4275 54.3231 65.338 54.3231 65.3738C53.9278 66.1441 53.6942 66.5741 53.6942 66.5741V66.592C53.3887 67.1653 53.0473 67.6848 52.8856 67.6848C52.7778 67.6848 52.5442 66.18 52.9395 64.1197C53.784 59.7842 55.7786 53.0481 55.7606 52.8152C55.7427 52.6898 56.138 51.5253 54.4489 50.8983C52.8137 50.3071 52.2207 51.2924 52.077 51.2924C51.9332 51.2924 51.8254 51.6507 51.8254 51.6507C51.8254 51.6507 53.6403 44.0547 48.3412 44.0547C45.035 44.0547 40.4349 47.6736 38.1744 50.952C36.7549 51.7224 33.6822 53.3885 30.4478 55.1621C29.2079 55.8429 27.9321 56.5416 26.7282 57.2045C26.6383 57.1149 26.5665 57.0253 26.4766 56.9357C20.0455 50.0921 8.17164 45.255 8.67477 36.0645C8.85446 32.7144 10.0224 23.918 31.5079 13.2405C49.1175 4.49792 63.1962 6.89855 65.6202 12.2373C69.1062 19.8512 58.093 34.0222 39.806 36.0645C32.8358 36.8349 29.172 34.1476 28.2555 33.1443C27.3032 32.0873 27.1594 32.0336 26.8001 32.2307C26.2071 32.5531 26.5844 33.4847 26.8001 34.0401C27.3391 35.4554 29.5852 37.9635 33.4108 39.2176C36.771 40.3104 44.9433 40.9195 54.8244 37.1036C65.9257 32.8398 74.5669 20.962 72.0333 11.019C69.453 0.914873 52.6484 -2.39944 36.7585 3.22593C27.2906 6.57608 17.0519 11.8432 9.68643 18.7047C0.93734 26.874 -0.462442 33.9863 0.112564 36.9603C2.15923 47.5123 16.7464 54.3918 22.5845 59.4797C22.297 59.6409 22.0275 59.7842 21.7759 59.9276C18.8488 61.3787 7.72781 67.1832 4.94442 73.3102C1.79985 80.2613 5.46552 85.2418 7.87156 85.9225C15.3808 88.0007 23.0697 84.2564 27.2008 78.1115C31.3318 71.9666 30.8305 63.9406 28.9258 60.2859C28.9078 60.2321 28.8719 60.1963 28.8539 60.1426C29.6086 59.6947 30.3813 59.2468 31.1539 58.7989C32.6436 57.9211 34.099 57.1149 35.3748 56.4162C34.6561 58.351 34.135 60.68 33.8655 64.0481C33.542 67.9894 35.1772 73.0952 37.2975 75.1017C38.2319 75.9796 39.3622 75.9975 40.063 75.9975C42.5427 75.9975 43.6567 73.9552 44.8948 71.5187C46.4222 68.5448 47.7698 65.0871 47.7698 65.0871C47.7698 65.0871 46.0808 74.4389 50.6988 74.4389C52.3861 74.4389 54.0751 72.2711 54.8316 71.1604V71.1783C54.8316 71.1783 54.8676 71.1067 54.9574 70.9633C55.1371 70.6946 55.227 70.5334 55.227 70.5334V70.4796C55.9098 69.3151 57.4012 66.6458 59.6455 62.2386C62.5565 56.5416 65.3399 49.4293 65.3399 49.4293C65.6088 50.9927 65.981 52.5368 66.454 54.0514C66.9571 55.7533 68.0173 57.6165 68.8618 59.4259C68.179 60.3575 67.7657 60.895 67.7657 60.895C67.767 60.9087 67.7734 60.9215 67.7837 60.9308C67.2446 61.6474 66.6336 62.4178 66.0047 63.1702C63.7065 65.8933 60.9734 69.0106 60.614 69.9063C60.1828 70.9633 60.2906 71.7516 61.1172 72.3607C61.7281 72.8265 62.8063 72.8982 63.9365 72.8086C66.0029 72.6653 67.4584 72.1637 68.1592 71.8412C69.4511 71.3793 70.6722 70.7401 71.7871 69.9422C74.0333 68.294 75.3989 65.9292 75.2731 62.8119C75.2012 61.0921 74.6442 59.3722 73.9614 57.7598C74.159 57.4732 74.3747 57.1686 74.5723 56.8641C78.1284 51.6866 80.8776 46.0039 80.8776 46.0039C81.1466 47.5673 81.5188 49.1114 81.9917 50.626C82.423 52.0771 83.2657 53.6716 84.0384 55.2302C80.698 57.9354 78.6315 61.0706 77.9128 63.1308C76.5831 66.9467 77.6253 68.6666 79.5839 69.0607C80.4644 69.2399 81.7222 68.8278 82.6566 68.4337C84.0443 67.9729 85.3527 67.3022 86.5361 66.4451C88.7822 64.7969 90.9546 62.4859 90.8109 59.3507C90.757 57.9354 90.3617 56.5201 89.8406 55.1585C92.6617 53.9761 96.3256 53.3312 100.997 53.8686C111.003 55.0331 112.961 61.2676 112.584 63.8653C112.207 66.463 110.104 67.9142 109.403 68.3441C108.703 68.7741 108.487 68.9353 108.541 69.2578C108.631 69.7236 108.954 69.7057 109.547 69.5982C110.374 69.4549 114.792 67.4842 114.99 62.665C115.277 56.5738 109.403 49.8736 98.9975 49.9273L99.0029 49.9309ZM21.8838 75.8542C18.5793 79.4551 13.9433 80.8167 11.9505 79.6701C9.81221 78.4304 10.6567 73.1311 14.7339 69.2936C17.2136 66.9647 20.4103 64.8148 22.5306 63.4891C23.0158 63.2025 23.7166 62.7725 24.5791 62.253C24.7228 62.1634 24.7947 62.1276 24.7947 62.1276C24.9564 62.0201 25.1361 61.9305 25.3158 61.823C26.8055 67.2692 25.3697 72.0705 21.8838 75.8506V75.8542ZM46.0268 59.4797C44.8768 62.2924 42.4528 69.4585 40.9794 69.0822C39.7215 68.7598 38.9489 63.2956 40.7278 57.9211C41.6262 55.2159 43.531 51.9911 44.663 50.7371C46.4761 48.7126 48.4706 48.0677 48.9378 48.8739C49.5667 49.9309 46.7456 57.724 46.0268 59.4797ZM65.9724 68.9747C65.4872 69.2256 65.038 69.3868 64.8224 69.2614C64.6607 69.1718 65.02 68.8314 65.02 68.8314C65.02 68.8314 67.5177 66.1621 68.506 64.9438C69.081 64.2272 69.7459 63.3852 70.4628 62.4536C70.4628 62.5432 70.4808 62.6328 70.4808 62.7403C70.4574 65.9471 67.3686 68.1148 65.967 68.9747H65.9724ZM81.3502 65.4813C80.9908 65.2305 81.0448 64.3885 82.2487 61.7728C82.7159 60.7517 83.7922 59.0318 85.6628 57.3836C85.8745 58.0075 85.9896 58.66 86.0042 59.3185C85.9862 63.3494 83.0932 64.8542 81.352 65.4813H81.3502Z" fill="#666666"/>
</svg>
