<svg width="107" height="105" viewBox="0 0 107 105" fill="none" xmlns="http://www.w3.org/2000/svg">
<path fill-rule="evenodd" clip-rule="evenodd" d="M70.0907 26.8367C67.8442 19.8471 64.2407 13.661 59.1628 8.33781C57.8791 6.99128 56.4522 5.75768 55.5567 4.0827C54.9908 3.02237 54.4516 1.94739 53.9003 0.88016L53.5501 0L53.4526 0.346547C53.4068 2.0879 52.4199 3.26806 51.1914 4.37063C49.8076 5.61026 48.5205 6.9568 47.1919 8.25764L43.1061 13.6274L39.8028 19.698L37.5934 25.6591L37.527 25.7514C36.3115 29.7418 35.7119 33.8452 35.4177 37.9882C35.3064 39.546 35.4341 41.1253 35.5212 42.6908C35.6463 44.9287 36.0354 47.1278 36.6186 49.2941C38.7383 57.1612 43.0406 63.6861 48.9234 69.2309C50.0155 70.2611 51.1966 71.1981 52.3362 72.1774L52.8409 73.9084L53.3102 76.5946L53.5345 79.3989C53.5319 79.9678 53.5086 80.5394 53.5423 81.1066C53.5518 81.2523 53.7416 81.3868 53.8485 81.5264L54.801 81.8609L55.7922 82.2462L55.6223 79.754L55.6145 77.2989L55.957 73.5593L56.2055 72.7455L56.9172 71.486C57.7954 70.7809 58.7366 70.1395 59.5364 69.3542C60.9831 67.9344 62.4273 66.4947 63.7222 64.9387C65.4069 62.9218 66.8459 60.7121 68.009 58.3561C68.7846 56.7759 69.5161 55.1639 70.1209 53.513C70.6541 52.0579 70.9845 50.5277 71.4046 49.0303L71.515 48.7071C72.3821 44.6657 72.5279 40.583 72.2095 36.4745C71.9533 33.1633 71.1743 29.9677 70.0907 26.8367ZM52.9229 70.1766C53.0557 69.5119 53.2205 68.8507 53.3404 68.1835C53.2205 68.8507 53.0566 69.5119 52.9229 70.1766ZM90.5118 86.0893C89.7992 84.7246 88.7536 83.6885 87.3716 83.0083C86.2138 82.4393 84.9689 82.1893 83.6887 82.1531C82.7293 82.1255 81.7666 82.1747 80.8055 82.1867C79.9523 82.1971 79.0982 82.2117 78.245 82.204C77.2417 82.1936 76.2383 82.1635 75.235 82.135C75.0685 82.1299 74.9503 82.1635 74.8727 82.3324C74.751 82.5954 74.607 82.8488 74.4577 83.1367L74.6251 83.1902C75.1229 83.2781 75.6232 83.3531 76.1184 83.4522C76.7551 83.579 77.0415 83.9445 77.0709 84.4807C77.114 85.2445 77.1312 86.01 77.1287 86.7755C77.1157 89.8047 77.0941 92.834 77.0717 95.8624C77.07 96.0624 77.0665 96.271 77.0122 96.459C76.9492 96.6762 76.8811 96.9572 76.7189 97.0641C76.427 97.2514 76.0995 97.3762 75.757 97.4305C75.273 97.5098 75.1919 97.5314 75.0409 98.0072L74.9753 98.2451C74.9029 98.5046 74.9417 98.5555 75.2126 98.5581C76.7672 98.5753 78.3209 98.6089 79.8746 98.6038C81.2921 98.5986 82.7095 98.6848 84.1218 98.4184C85.4564 98.1675 86.7021 97.7279 87.8392 96.9839C89.3144 96.0176 90.3755 94.7262 90.9354 93.0409C91.3875 91.6797 91.4884 90.2909 91.3348 88.8677C91.239 87.8978 90.9597 86.955 90.5118 86.0893ZM87.7883 94.4176C86.9566 95.9641 85.716 96.9969 83.9432 97.2693C82.8329 97.4391 81.7208 97.39 80.6623 96.9702C79.992 96.7046 79.7427 96.1262 79.722 95.4426C79.703 94.7727 79.6935 94.1025 79.6935 93.4323C79.69 91.0754 79.69 88.7186 79.6935 86.3625C79.6952 85.6203 79.7081 84.8764 79.7202 84.1333C79.7289 83.6109 79.8384 83.4359 80.3483 83.3936C82.5879 83.2057 84.7248 83.4471 86.4994 85.022C87.5967 85.9962 88.2213 87.2384 88.481 88.6651C88.5888 89.2599 88.6216 89.8685 88.6889 90.472C88.6346 91.8495 88.4482 93.19 87.7883 94.4176ZM106.586 91.8651C106.144 90.7909 105.307 90.1177 104.256 89.6866C103.897 89.5392 103.527 89.4177 103.139 89.2746L103.275 89.1884C103.693 88.9203 104.159 88.7039 104.52 88.3737C105.396 87.5712 105.76 86.5617 105.589 85.3626C105.427 84.2221 104.858 83.385 103.841 82.8419C102.918 82.3505 101.922 82.1712 100.892 82.1721C99.1095 82.1738 97.3263 82.2005 95.544 82.204C94.9297 82.2048 94.3155 82.1592 93.7012 82.1505C93.5822 82.1488 93.4053 82.179 93.3544 82.2583C93.2138 82.4738 93.1206 82.7221 93.0206 82.9617C92.9628 83.1014 93.0197 83.1781 93.1793 83.1988C93.6081 83.2574 94.036 83.3307 94.4656 83.3945C95.0591 83.4833 95.3464 83.7919 95.3827 84.3893L95.3904 84.7436C95.3913 86.6013 95.3973 88.4591 95.3896 90.3168C95.3785 92.172 95.3609 94.0272 95.3369 95.8822C95.3343 96.1159 95.3024 96.3503 95.2688 96.5822C95.2179 96.9322 95.0307 97.1736 94.6718 97.2495L93.6564 97.4495C93.5365 97.4736 93.3631 97.4701 93.3139 97.5443C93.1275 97.8227 92.9774 98.127 92.9981 98.4943L93.1025 98.5227L96.5128 98.6063L97.1969 98.6038C98.3771 98.59 99.559 98.6132 100.737 98.5529C102.013 98.4891 103.212 98.1107 104.319 97.4598C105.499 96.7658 106.406 95.8512 106.729 94.4754C106.936 93.5969 106.937 92.7133 106.586 91.8651ZM97.9216 83.9505C97.9268 83.5772 98.0916 83.4152 98.4625 83.4057C99.3761 83.3807 100.284 83.3859 101.165 83.7005C102.306 84.1074 103.007 85.0902 102.994 86.291C102.988 86.7522 102.995 87.2091 102.825 87.6522C102.49 88.5246 101.846 88.9849 100.933 89.0746C100.457 89.1229 99.9766 89.128 99.5521 89.1504L98.1355 89.0884C97.9475 89.0815 97.8655 88.9987 97.8664 88.8056L97.9216 83.9505ZM103.793 95.5831C103.337 96.5753 102.505 97.0969 101.464 97.2779C100.634 97.4202 99.7832 97.3828 98.9689 97.1684C98.3599 97.0124 98.1114 96.5236 97.9897 95.9814C97.9078 95.6185 97.9216 95.1866 97.9147 94.809C97.9035 94.2262 97.9121 93.0168 97.9121 93.0168H97.9C97.9 92.1547 97.9026 91.4082 97.8974 90.5815C97.8966 90.403 97.9268 90.3142 98.145 90.3211C98.9197 90.3444 99.697 90.3573 100.472 90.3875C101.165 90.4142 101.813 90.6194 102.423 90.9478C103.351 91.4478 103.91 92.2133 104.064 93.265C104.181 94.0624 104.131 94.8469 103.793 95.5831ZM18.7416 96.5124L18.758 91.8254C18.7606 91.1202 18.6709 90.4289 18.4396 89.7599C17.8021 87.9177 16.0439 87.0789 14.2133 87.7401C13.3807 88.041 12.6345 88.497 11.9219 89.0142C11.5069 89.316 11.5069 89.316 11.2067 88.8858C10.357 87.6686 9.14313 87.2522 7.73002 87.7013C6.81641 87.991 6.01755 88.4867 5.26095 89.0625C5.19021 89.116 5.04787 89.1754 5.00559 89.1435C4.93485 89.091 4.88568 88.966 4.8874 88.872L4.93917 88.0392C4.94348 87.8643 4.90983 87.6884 4.89258 87.5048C4.55095 87.6229 4.27833 87.741 3.99278 87.8099C3.11023 88.0255 2.22164 88.2237 1.33392 88.4263C1.1191 88.4755 0.892212 88.5401 0.871508 88.7867C0.84994 89.0289 1.08373 89.0694 1.2649 89.1418C1.64622 89.2953 2.02495 89.4582 2.40195 89.6237C2.71856 89.7634 2.83675 90.0159 2.83503 90.3556C2.82899 91.8082 2.83848 93.259 2.82985 94.7116C2.8264 95.3021 2.79879 95.8917 2.77205 96.4822C2.74789 97.0055 2.56931 97.2245 2.06204 97.3564C1.79288 97.427 1.5194 97.4745 1.24851 97.5383C1.18898 97.552 1.08718 97.59 1.08632 97.6193C1.07511 97.8753 1.0613 98.1374 1.10444 98.3865C1.11307 98.4313 1.38395 98.4313 1.53407 98.4486L1.635 98.4426C2.6806 98.427 3.7262 98.4107 4.77266 98.3995C5.32738 98.3934 5.88124 98.3986 6.48341 98.3986L6.54811 97.5624C6.20303 97.4995 5.89504 97.452 5.59137 97.3857C5.11774 97.2822 4.91587 97.0314 4.90379 96.5538L4.89517 95.8702C4.88999 94.0969 4.88309 92.3245 4.88309 90.5513C4.88309 90.2935 4.99007 90.0892 5.21696 89.9349C5.69748 89.6108 6.20475 89.353 6.76638 89.2091C7.95001 88.9065 8.97663 89.3272 9.43214 90.3332C9.57621 90.6504 9.68922 91.0013 9.72114 91.3461C9.88851 93.1237 9.81604 94.9029 9.71511 96.6805C9.69354 97.0641 9.51323 97.2572 9.1345 97.3512L8.24419 97.5391C8.17259 97.5572 8.0682 97.5089 8.06302 97.5684C8.04318 97.8141 8.0544 98.1908 8.0544 98.1908H8.26662L10.9772 98.2796C11.72 98.2779 12.4637 98.3675 13.2056 98.3865C13.3385 98.3891 13.4567 98.4089 13.4644 98.2555C13.4729 98.0173 13.4697 97.7788 13.4549 97.5408L13.3135 97.5158L12.55 97.3443C12.0349 97.2227 11.8572 97.027 11.8555 96.5064C11.8494 95.2228 11.8667 93.94 11.8555 92.6573C11.8489 91.9236 11.8215 91.1903 11.7735 90.4582C11.7606 90.2634 11.7908 90.1358 11.9461 90.0263C12.3962 89.6975 12.9025 89.4536 13.4403 89.3065C15.1096 88.8668 16.4761 89.7815 16.5624 91.5013C16.6469 93.1599 16.6116 94.8245 16.5986 96.4865C16.5943 97.065 16.4028 97.24 15.8326 97.3951L15.6359 97.446C15.0518 97.5857 15.057 97.5857 15.0915 98.2055C15.1027 98.3994 15.1562 98.4494 15.3632 98.4443C16.5529 98.4175 17.7426 98.4107 18.9323 98.4003C19.4188 98.396 19.9054 98.4003 20.4351 98.4003L20.5429 97.5934C20.0779 97.4701 19.6492 97.3788 19.2351 97.2434C18.8693 97.1193 18.7399 96.8986 18.7416 96.5124ZM59.7106 89.4082C60.2006 88.9539 60.2041 88.3539 60.0669 87.6875C59.6787 88.0936 59.2439 88.2806 58.7478 88.316C58.0827 88.3634 57.4296 88.3056 56.8102 88.041C55.1348 87.322 53.4853 87.3729 51.841 88.1617C50.4581 88.8237 49.6075 89.8556 49.5221 91.4202C49.4677 92.4228 49.6558 93.3719 50.3253 94.1693C50.7264 94.6469 51.2415 94.9564 51.8221 95.1702C52.0722 95.2624 52.0912 95.3814 51.8816 95.5409C51.7268 95.6577 51.5664 95.767 51.4011 95.8684C51.0506 96.0886 50.6981 96.3052 50.3434 96.5184C50.1355 96.6443 50.0647 96.8046 50.1329 97.0503C50.3322 97.7727 50.8455 98.19 51.4873 98.4943L51.7211 98.6572L51.5167 98.8615C50.8877 99.371 50.2338 99.852 49.6316 100.393C49.1261 100.847 48.963 101.455 49.1157 102.127C49.4237 103.467 50.3132 104.297 51.5753 104.678C53.7813 105.345 55.8526 104.962 57.7411 103.656C58.8609 102.881 59.664 101.873 59.9082 100.485C60.1817 98.9253 59.3146 97.5719 57.7626 97.2926C56.736 97.1064 55.6852 97.0529 54.6466 96.934C54.1617 96.8788 53.67 96.846 53.1981 96.7348C52.7969 96.64 52.5976 96.3133 52.6347 95.9943C52.6718 95.6805 53.0057 95.3883 53.3879 95.3581C54.1574 95.296 54.9114 95.1762 55.6205 94.8521C57.4995 93.9935 58.3717 92.4901 58.1535 90.4659C58.125 90.1935 58.0629 89.9246 58.0068 89.6073C58.6081 89.7082 59.2232 89.8608 59.7106 89.4082ZM54.009 98.9055C54.7734 98.9279 55.643 98.9753 56.4832 99.221C57.2226 99.4365 57.8308 99.8141 58.0102 100.639C58.2268 101.636 57.7471 102.627 56.7817 103.16C55.8776 103.658 54.8959 103.699 53.9003 103.597C53.048 103.509 52.281 103.214 51.6668 102.585C50.8575 101.756 50.8532 100.61 51.6633 99.7839C52.3871 99.046 52.7745 98.8934 54.009 98.9055ZM55.9216 92.9038C55.4765 94.3271 54.1807 94.5236 53.1653 94.0685C52.3 93.6814 51.923 92.9193 51.7254 92.0495C51.6486 91.7151 51.6305 91.3677 51.5857 91.0254C51.6038 90.5349 51.6849 90.0642 51.8962 89.6228C52.5441 88.2634 54.1358 88.3444 55.0167 88.9599C55.3945 89.2237 55.6576 89.5823 55.8224 90.0073C56.1892 90.9324 56.2243 91.9559 55.9216 92.9038ZM47.8381 97.4408C47.5299 97.3937 47.2252 97.3258 46.9262 97.2374C46.4017 97.0771 46.3378 96.9788 46.3318 96.4245C46.3163 94.8797 46.3059 93.3349 46.2887 91.7909C46.28 91.0961 46.1972 90.4108 45.9841 89.747C45.4234 87.997 43.7057 87.0574 41.9872 87.5737C41.0348 87.8608 40.2169 88.3944 39.4552 89.0211L39.1774 89.2341L39.1782 88.9487C39.1964 88.6203 39.2317 88.2918 39.2291 87.9634C39.2274 87.7918 39.1618 87.6194 39.1299 87.4686C38.4803 87.6643 37.898 87.8608 37.3036 88.0108C36.7074 88.1608 36.0992 88.2625 35.4962 88.3849C35.1968 88.4453 34.9769 88.6263 34.982 88.8323C34.9898 89.1229 35.2305 89.1789 35.441 89.266C35.8223 89.422 36.2028 89.5797 36.5798 89.747C36.8489 89.8668 36.9585 90.0892 36.9559 90.378C36.9369 92.3857 36.9248 94.3943 36.8955 96.4029C36.8869 97.0374 36.7264 97.2046 36.1018 97.3443L35.8292 97.3986C35.2512 97.4977 35.2348 97.521 35.2745 98.1305L35.2779 98.2313C35.271 98.4658 35.3737 98.5417 35.6153 98.5391C37.1509 98.521 38.6874 98.5124 40.223 98.5184C40.8812 98.521 40.952 98.4693 40.9382 97.7934L40.9071 97.5029C40.531 97.44 40.1712 97.3943 39.8192 97.3167C39.4509 97.2348 39.3189 97.0839 39.2844 96.7098C39.2524 96.3676 39.2421 96.0202 39.2386 95.6753C39.2214 94.0969 39.2076 92.5185 39.1998 90.9409C39.1981 90.5435 39.2714 90.1746 39.6372 89.9185C40.1756 89.5341 40.8103 89.3067 41.4704 89.2616C42.8404 89.1677 43.8817 89.9789 43.9559 91.3435C44.0473 93.0271 44.0197 94.7167 44.0413 96.4038C44.043 96.5296 44.0206 96.6564 44.0033 96.7814C43.9706 97.0279 43.8498 97.2133 43.5996 97.277C43.3555 97.3408 43.1079 97.3977 42.8585 97.4357C42.4867 97.4908 42.4789 97.4883 42.4505 97.8633L42.46 98.1158C42.504 98.552 42.5048 98.5391 42.9465 98.5348C44.4321 98.5227 45.9168 98.515 47.4015 98.5167C48.0227 98.5184 48.0667 98.4891 48.0719 97.8495L48.0701 97.6977C48.0796 97.5339 48.0063 97.4676 47.8381 97.4408ZM68.5879 87.6798C67.0307 87.2996 65.5537 87.5824 64.151 88.3074C62.7879 89.0117 61.8769 90.1004 61.5301 91.6039C61.1798 93.1237 61.3472 94.6064 62.0192 96.0176C62.4566 96.934 63.1295 97.6426 64.0457 98.1029C66.1904 99.1822 68.8139 98.6925 70.4962 97.2486C71.8239 96.1098 72.3113 94.5935 72.3406 92.7168C72.3225 92.5288 72.3044 92.1668 72.2544 91.8082C71.9723 89.7651 70.5566 88.1608 68.5879 87.6798ZM69.7672 95.5719C69.354 97.1977 67.9469 97.9201 66.3595 97.3615C65.5494 97.077 64.9438 96.5331 64.5366 95.7978C63.5997 94.1081 63.4194 92.3116 63.9526 90.4685C64.308 89.241 65.3191 88.5694 66.5217 88.6539C67.5966 88.7289 68.4231 89.2444 69.0296 90.1185C69.6688 91.0409 69.9156 92.0901 69.9811 93.1918C69.9924 93.3685 69.9829 93.5452 69.9829 93.7228L70.0588 93.7314C69.9639 94.3461 69.919 94.9728 69.7672 95.5719ZM29.4236 87.653C27.7853 87.2789 26.2506 87.6487 24.8288 88.4806C23.5995 89.1996 22.8049 90.2737 22.5004 91.6771C22.2148 92.9883 22.3313 94.2771 22.7963 95.5331C23.0793 96.2986 23.508 96.9719 24.137 97.4969C25.4612 98.6012 27.0089 98.8805 28.6558 98.5727C30.0499 98.3115 31.275 97.6926 32.1653 96.5348C32.9987 95.4521 33.3162 94.209 33.3489 92.8616C33.2998 92.4349 33.2877 92.0004 33.1971 91.584C32.7468 89.5056 31.5303 88.1332 29.4236 87.653ZM30.76 95.5667C30.3605 97.1839 28.931 97.9245 27.3548 97.3658C26.3429 97.0064 25.6838 96.2659 25.2671 95.3167C24.5994 93.7918 24.4631 92.2047 24.8953 90.5961C25.2266 89.366 26.2247 88.4599 27.7526 88.6772C28.6903 88.8099 29.4219 89.2884 29.9671 90.0496C30.7039 91.0763 30.9463 92.2521 30.9799 93.4874V93.74L31.0421 93.7495C30.9515 94.3564 30.9066 94.9736 30.76 95.5667Z" fill="#666666"/>
</svg>
