<svg width="150" height="150" viewBox="0 0 150 150" fill="none" xmlns="http://www.w3.org/2000/svg">
<g clip-path="url(#clip0_1_27)">
<path d="M114.844 0H35.1562C15.74 0 0 15.74 0 35.1562V114.844C0 134.26 15.74 150 35.1562 150H114.844C134.26 150 150 134.26 150 114.844V35.1562C150 15.74 134.26 0 114.844 0Z" fill="#666666"/>
<path d="M59.5512 107.003C59.5512 107.003 55.0512 109.742 62.683 110.525C71.8986 111.7 76.7713 111.503 86.9449 109.548C86.9449 109.548 89.6836 111.311 93.402 112.679C70.5064 122.462 41.5482 112.092 59.5512 107.003ZM56.6162 94.2855C56.6162 94.2855 51.7236 98.0039 59.3549 98.785C69.3322 99.7629 77.1621 99.9592 90.6633 97.2223C90.6633 97.2223 92.4264 99.1799 95.3596 100.158C67.7719 108.376 36.8537 100.939 56.6162 94.2873V94.2855ZM110.622 116.592C110.622 116.592 113.948 119.331 106.904 121.485C93.7928 125.398 51.9199 126.574 40.1795 121.485C36.0727 119.722 43.8984 117.177 46.4408 116.788C48.985 116.201 50.3537 116.201 50.3537 116.201C45.8537 113.07 20.4152 122.658 37.4391 125.418C84.2045 133.051 122.753 122.092 110.62 116.612L110.622 116.592ZM61.7033 80.9783C61.7033 80.9783 40.374 86.0672 54.0697 87.8262C59.9402 88.6072 71.4844 88.4133 82.2469 87.6299C91.0523 86.8482 99.8777 85.282 99.8777 85.282C99.8777 85.282 96.7459 86.6519 94.5943 88.0207C72.8566 93.7002 31.1783 91.156 43.115 85.2855C53.2928 80.393 61.7033 80.9783 61.7033 80.9783ZM99.8572 102.307C121.775 90.9574 111.598 80.0004 104.554 81.3709C102.79 81.7617 102.009 82.1525 102.009 82.1525C102.009 82.1525 102.596 80.9783 103.966 80.5898C117.858 75.6973 128.818 95.2652 99.467 102.896C99.467 102.896 99.6633 102.7 99.8572 102.309V102.307ZM63.8549 133.221C84.9879 134.592 117.274 132.439 118.057 122.458C118.057 122.458 116.494 126.371 100.643 129.306C82.6418 132.632 60.3328 132.241 47.2242 130.087C47.2242 130.087 49.9629 132.435 63.8566 133.219L63.8549 133.221Z" fill="white"/>
<path d="M86.5342 16.4062C86.5342 16.4062 98.6654 28.7338 74.99 47.3203C56.0092 62.3859 70.6828 70.9969 74.99 80.7779C63.8367 70.8006 55.817 61.9934 61.2926 53.775C69.3346 41.6502 91.4426 35.7797 86.5342 16.4062ZM80.2734 72.5637C85.9471 79.0207 78.7107 84.8912 78.7107 84.8912C78.7107 84.8912 93.1898 77.458 86.5383 68.2582C80.4715 59.4527 75.7758 55.1473 101.214 40.4701C101.214 40.4701 61.1004 50.4475 80.2775 72.5596L80.2734 72.5637Z" fill="white"/>
</g>
<defs>
<clipPath id="clip0_1_27">
<rect width="150" height="150" fill="white"/>
</clipPath>
</defs>
</svg>
