<svg width="256" height="256" viewBox="0 0 256 256" fill="none" xmlns="http://www.w3.org/2000/svg">
<g clip-path="url(#clip0_167_52)">
<path d="M196 0H60C26.8629 0 0 26.8629 0 60V196C0 229.137 26.8629 256 60 256H196C229.137 256 256 229.137 256 196V60C256 26.8629 229.137 0 196 0Z" fill="#666666"/>
<path d="M169.105 103.436C169.105 103.436 155.29 146.718 154.269 150.393C153.861 146.786 143.789 69 143.789 69C120.242 69 107.72 85.741 101.05 103.436C101.05 103.436 84.241 146.854 82.88 150.461C82.812 147.058 80.294 103.844 80.294 103.844C78.864 82.134 59.06 69 43 69L62.328 186.802C86.963 186.734 100.234 170.061 107.175 152.299C107.175 152.299 121.943 113.984 122.556 112.283C122.692 113.916 133.172 186.802 133.172 186.802C157.876 186.802 171.215 171.218 178.36 154.136L213 69C188.568 69 175.706 85.673 169.105 103.436Z" fill="white"/>
</g>
<defs>
<clipPath id="clip0_167_52">
<rect width="256" height="256" fill="white"/>
</clipPath>
</defs>
</svg>
