<svg width="142" height="89" viewBox="0 0 142 89" fill="none" xmlns="http://www.w3.org/2000/svg">
<path d="M97.7508 0C97.3889 0 97.0418 0.142944 96.7859 0.397389C96.53 0.651834 96.3862 0.996936 96.3862 1.35678V26.2174L90.719 22.9295C90.3691 22.7238 89.9701 22.6152 89.5637 22.6152C89.1572 22.6152 88.7582 22.7238 88.4084 22.9295L74.7905 30.8259C74.4423 31.0258 74.1532 31.3132 73.952 31.6593C73.7508 32.0054 73.6447 32.398 73.6443 32.7978V48.6087C73.6443 49.4228 74.081 50.1735 74.7905 50.5805L88.4084 58.477C88.7582 58.6827 89.1572 58.7912 89.5637 58.7912C89.9701 58.7912 90.3691 58.6827 90.719 58.477L104.337 50.5805C104.685 50.3807 104.974 50.0933 105.175 49.7472C105.377 49.4011 105.483 49.0084 105.483 48.6087V5.56277C105.482 5.16835 105.377 4.78105 105.179 4.43919C104.982 4.09732 104.697 3.81272 104.355 3.61354L98.4285 0.185425C98.2245 0.0656067 97.9922 0.00163064 97.7553 0H97.7508ZM53.1766 22.622C52.7709 22.6214 52.3724 22.7275 52.0213 22.9295L38.4034 30.8259C38.0552 31.0258 37.7661 31.3132 37.5649 31.6593C37.3637 32.0054 37.2576 32.398 37.2572 32.7978V48.6087C37.2572 49.4228 37.6939 50.1735 38.4034 50.5805L52.0213 58.477C52.7354 58.884 53.6132 58.884 54.3319 58.477L67.9497 50.5805C68.2979 50.3807 68.5871 50.0933 68.7883 49.7472C68.9894 49.4011 69.0955 49.0084 69.0959 48.6087V32.7978C69.0965 32.3978 68.9908 32.0048 68.7895 31.6586C68.5882 31.3123 68.2985 31.0251 67.9497 30.8259L54.3319 22.9295C53.9807 22.7275 53.5822 22.6214 53.1766 22.622ZM125.951 22.622C125.545 22.6199 125.146 22.7261 124.795 22.9295L111.178 30.8259C110.829 31.0258 110.54 31.3132 110.339 31.6593C110.138 32.0054 110.032 32.398 110.031 32.7978V48.6087C110.031 49.4228 110.468 50.1735 111.178 50.5805L124.386 58.5177C124.735 58.7283 125.135 58.8412 125.543 58.8444C125.952 58.8476 126.353 58.7409 126.706 58.5358L133.201 54.782C133.354 54.6925 133.48 54.5649 133.568 54.4118C133.656 54.2588 133.703 54.0855 133.703 53.9092C133.703 53.7328 133.656 53.5596 133.568 53.4065C133.48 53.2534 133.354 53.1258 133.201 53.0363L119.128 44.7916V36.6781L125.951 32.7299L132.773 36.6781V42.3314C132.773 43.0866 133.41 43.2042 133.838 42.951C136.137 41.6161 138.438 40.285 140.742 38.9575C141.085 38.7587 141.369 38.4742 141.567 38.1322C141.765 37.7903 141.869 37.4028 141.87 37.0083V32.8023C141.871 32.4023 141.765 32.0094 141.564 31.6631C141.362 31.3169 141.073 31.0296 140.724 30.8304L127.106 22.934C126.755 22.7313 126.356 22.6251 125.951 22.6265V22.622ZM16.7895 22.631C16.3836 22.629 15.9847 22.7352 15.6342 22.9385L2.01631 30.8259C1.66774 31.0276 1.37845 31.3167 1.17733 31.6643C0.976209 32.0118 0.870281 32.4058 0.870117 32.8068V52.9911C0.870117 53.977 1.94354 54.5876 2.79863 54.0946L8.83889 50.5986C9.18194 50.3991 9.46652 50.1138 9.6644 49.771C9.86227 49.4283 9.96655 49.0401 9.96689 48.6449V36.6917L16.7895 32.7344L23.6121 36.6917V48.6449C23.6127 49.0394 23.7172 49.4269 23.9151 49.7688C24.113 50.1108 24.3974 50.3953 24.7401 50.5941L30.7803 54.0946C30.9753 54.2076 31.1969 54.2675 31.4226 54.2681C31.6484 54.2687 31.8703 54.2101 32.0659 54.0981C32.2616 53.9862 32.4241 53.8249 32.5369 53.6305C32.6498 53.4361 32.7091 53.2155 32.7088 52.9911V32.8068C32.7087 32.4058 32.6027 32.0118 32.4016 31.6643C32.2005 31.3167 31.9112 31.0276 31.5626 30.8259L17.9448 22.9385C17.5942 22.7352 17.1953 22.629 16.7895 22.631ZM89.5637 32.7254L96.3862 36.6827V44.7238L89.5637 48.6811L82.7411 44.7238V36.6781L89.5637 32.7209V32.7254ZM125.951 36.1987L122.053 38.46V42.9736L125.951 45.2258L129.849 42.9736V38.46L125.951 36.1987ZM70.9426 54.2619C70.4701 54.2593 70.0048 54.3776 69.5917 54.6056L56.8016 61.9594C56.39 62.1914 56.048 62.5281 55.8106 62.9351C55.5732 63.342 55.449 63.8045 55.4508 64.2749V78.9552C55.4508 79.9004 55.9829 80.7914 56.8016 81.2708L60.1674 83.1793C61.7821 83.9708 62.378 83.9708 63.1102 83.9708C65.5209 83.9708 66.8945 82.5371 66.8945 80.0045V65.5005C66.8957 65.4511 66.887 65.4019 66.8688 65.3558C66.8506 65.3098 66.8233 65.2678 66.7885 65.2324C66.7538 65.197 66.7122 65.1689 66.6664 65.1497C66.6205 65.1305 66.5713 65.1206 66.5215 65.1206H64.9023C64.801 65.1206 64.7038 65.1607 64.6322 65.2319C64.5605 65.3032 64.5202 65.3998 64.5202 65.5005V80.0045C64.5202 81.1034 63.3513 82.2341 61.4455 81.2889L57.9433 79.2809C57.8861 79.2451 57.8388 79.1958 57.8055 79.1374C57.7721 79.079 57.7539 79.0133 57.7522 78.9462V64.2659C57.7522 64.1347 57.8159 63.981 57.9478 63.9131L70.7379 56.582C70.7992 56.5484 70.868 56.5307 70.938 56.5307C71.008 56.5307 71.0769 56.5484 71.1382 56.582L83.9419 63.9086C84.0738 63.981 84.1374 64.1121 84.1374 64.2659V78.9462C84.1371 79.0165 84.119 79.0857 84.0849 79.1474C84.0507 79.209 84.0015 79.2611 83.9419 79.2989L71.1382 86.6572C71.0769 86.6908 71.008 86.7085 70.938 86.7085C70.868 86.7085 70.7992 86.6908 70.7379 86.6572L67.4721 84.7215C67.3812 84.6763 67.2447 84.6537 67.1583 84.6989C66.5598 85.0804 65.9107 85.3773 65.2298 85.5808C65.0069 85.6486 64.7067 85.7843 65.3481 86.1371L69.5917 88.6471C70.0067 88.8716 70.4702 88.9927 70.9426 88.9999C71.4132 89.0046 71.8754 88.8759 72.2752 88.629L85.0699 81.2708C85.4815 81.0388 85.8235 80.702 86.0609 80.2951C86.2983 79.8881 86.4225 79.4257 86.4207 78.9552V64.2749C86.4148 63.806 86.2873 63.3466 86.0507 62.941C85.8141 62.5354 85.4762 62.1973 85.0699 61.9594L72.2752 54.6102C71.8691 54.3811 71.4095 54.2626 70.9426 54.2665V54.2619ZM90.8963 61.0368C90.5738 61.0373 90.2545 61.1011 89.9568 61.2244C89.659 61.3477 89.3886 61.5281 89.1609 61.7553C88.9333 61.9825 88.7529 62.252 88.63 62.5485C88.5071 62.8451 88.4442 63.1628 88.4448 63.4835C88.4454 63.8042 88.5095 64.1216 88.6335 64.4177C88.7575 64.7138 88.9389 64.9827 89.1674 65.209C89.3959 65.4354 89.6669 65.6148 89.9652 65.737C90.2634 65.8592 90.5829 65.9217 90.9054 65.9211C91.5568 65.9199 92.1811 65.6615 92.6408 65.2026C93.1006 64.7438 93.3582 64.1221 93.357 63.4744C93.3558 62.8267 93.0959 62.206 92.6344 61.7489C92.173 61.2917 91.5477 61.0356 90.8963 61.0368ZM90.8691 61.4257C92.0243 61.4257 92.9613 62.3302 92.9613 63.4744C92.9531 64.0236 92.73 64.548 92.3394 64.9364C91.9488 65.3248 91.4214 65.5466 90.8691 65.5548C90.3198 65.5489 89.7953 65.3264 89.4107 64.9364C89.0261 64.5464 88.8129 64.0206 88.8177 63.4744C88.8159 63.2056 88.8677 62.9392 88.97 62.6904C89.0724 62.4416 89.2233 62.2154 89.414 62.025C89.6047 61.8345 89.8315 61.6835 90.0812 61.5806C90.331 61.4777 90.5987 61.4251 90.8691 61.4257ZM89.973 62.0905V64.8357H90.4961V63.7413H90.9873C91.1874 63.7413 91.2329 63.8227 91.2784 63.9764C91.2784 63.999 91.3603 64.7136 91.383 64.8448H91.9516C91.8794 64.6064 91.8351 64.3606 91.8197 64.1121C91.756 63.7593 91.7378 63.5151 91.3603 63.4925C91.5604 63.4247 91.8924 63.3207 91.8924 62.8141C91.8924 62.086 91.2557 62.0905 90.9236 62.0905H89.973ZM90.4961 62.5292H90.9418C91.0783 62.5292 91.3421 62.5292 91.3421 62.9001C91.3421 63.0538 91.2739 63.3071 90.9145 63.298H90.4961V62.5292ZM74.372 64.7724C70.7197 64.7724 68.5501 66.3237 68.5501 68.8744C68.5501 71.6693 70.7243 72.4156 74.222 72.7638C78.4065 73.1844 78.734 73.7814 78.734 74.5955C78.734 76.0246 77.5787 76.617 74.8769 76.617C71.4884 76.617 70.747 75.7849 70.5014 74.1115C70.4786 73.9306 70.3194 73.7995 70.1193 73.7995H68.4546C68.4048 73.7995 68.3556 73.8093 68.3097 73.8285C68.2639 73.8477 68.2224 73.8759 68.1876 73.9113C68.1528 73.9467 68.1256 73.9886 68.1074 74.0347C68.0892 74.0807 68.0804 74.1299 68.0816 74.1794C68.0816 76.314 69.2551 78.8693 74.8542 78.8693C78.9614 78.8693 81.2856 77.2864 81.2856 74.5095C81.2856 71.7598 79.4208 71.0271 75.4819 70.498C71.4975 69.9688 71.1018 69.702 71.1018 68.7749C71.1018 68.0061 71.4292 66.9975 74.3766 66.9975C77.0056 66.9975 77.988 67.5719 78.3883 69.3312C78.4338 69.5121 78.5566 69.6161 78.734 69.6161H80.3941C80.5033 69.6161 80.5988 69.5709 80.6625 69.5075C80.7307 69.4216 80.7716 69.3357 80.7534 69.2271C80.4896 66.188 78.4701 64.7724 74.372 64.7724Z" fill="#666666"/>
</svg>
