<svg width="150" height="150" viewBox="0 0 150 150" fill="none" xmlns="http://www.w3.org/2000/svg">
<g clip-path="url(#clip0_1_23)">
<path d="M114.844 0H35.1562C15.74 0 0 15.74 0 35.1562V114.844C0 134.26 15.74 150 35.1562 150H114.844C134.26 150 150 134.26 150 114.844V35.1562C150 15.74 134.26 0 114.844 0Z" fill="#666666"/>
<path d="M39.4406 125.351L50.9191 118.404C53.134 122.33 55.1484 125.653 59.9807 125.653C64.6125 125.653 67.5328 123.841 67.5328 116.793V68.8647H81.6293V116.992C81.6293 131.592 73.0711 138.238 60.5848 138.238C49.3084 138.238 42.7629 132.398 39.44 125.35M89.2857 123.84L100.763 117.195C103.785 122.129 107.712 125.754 114.659 125.754C120.5 125.754 124.224 122.834 124.224 118.806C124.224 113.973 120.398 112.261 113.954 109.443L110.43 107.931C100.26 103.603 93.5139 98.1651 93.5139 86.6865C93.5139 76.1139 101.569 68.0584 114.156 68.0584C123.117 68.0584 129.561 71.1803 134.193 79.3359L123.217 86.3842C120.8 82.0547 118.184 80.3432 114.156 80.3432C110.027 80.3432 107.409 82.9611 107.409 86.3842C107.409 90.6129 110.027 92.325 116.068 94.9436L119.592 96.4535C131.574 101.589 138.321 106.824 138.321 118.604C138.321 131.292 128.353 138.239 114.961 138.239C101.872 138.239 93.4137 131.997 89.2857 123.84Z" fill="white"/>
</g>
<defs>
<clipPath id="clip0_1_23">
<rect width="150" height="150" fill="white"/>
</clipPath>
</defs>
</svg>
