<svg width="256" height="256" viewBox="0 0 256 256" fill="none" xmlns="http://www.w3.org/2000/svg">
<g clip-path="url(#clip0_166_17)">
<path d="M196 0H60C26.8629 0 0 26.8629 0 60V196C0 229.137 26.8629 256 60 256H196C229.137 256 256 229.137 256 196V60C256 26.8629 229.137 0 196 0Z" fill="#666666"/>
<mask id="mask0_166_17" style="mask-type:luminance" maskUnits="userSpaceOnUse" x="61" y="28" width="134" height="200">
<path d="M61 28H194.36V228H61V28Z" fill="white"/>
</mask>
<g mask="url(#mask0_166_17)">
<path d="M127.18 194.667C127.18 212.791 112.471 227.5 94.3469 227.5C76.2231 227.5 61.5129 212.791 61.5129 194.667C61.5129 176.543 76.2231 161.833 94.3469 161.833H127.18V194.667Z" fill="white" stroke="black"/>
<path d="M61.5129 128C61.5129 109.876 76.2231 95.167 94.3469 95.167H127.18V160.833H94.3469C76.2231 160.833 61.5129 146.124 61.5129 128Z" fill="white" stroke="black"/>
<path d="M61.5129 61.333C61.5129 43.2092 76.2231 28.5 94.3469 28.5H127.18V94.167H94.3469C76.2231 94.167 61.5129 79.4569 61.5129 61.333Z" fill="white" stroke="black"/>
<path d="M128.18 28.5H161.013C179.137 28.5 193.847 43.2092 193.847 61.333C193.847 79.4569 179.137 94.167 161.013 94.167H128.18V28.5Z" fill="white" stroke="black"/>
<path d="M193.847 128C193.847 146.124 179.137 160.833 161.013 160.833C142.889 160.833 128.18 146.124 128.18 128C128.18 109.876 142.889 95.167 161.013 95.167C179.137 95.167 193.847 109.876 193.847 128Z" fill="white" stroke="black"/>
</g>
</g>
<defs>
<clipPath id="clip0_166_17">
<rect width="256" height="256" fill="white"/>
</clipPath>
</defs>
</svg>
