<svg width="128" height="128" viewBox="0 0 128 128" fill="none" xmlns="http://www.w3.org/2000/svg">
<path d="M113.117 26.066C92.168 -1.06201 53.191 -6.07001 26.062 14.883C-1.06302 35.836 -6.06602 74.813 14.887 101.938C35.844 129.062 74.824 134.062 101.945 113.105C129.059 92.152 134.063 53.187 113.117 26.066Z" fill="#F37036"/>
<path d="M91.078 24.164C88.9414 24.3347 86.9156 25.1848 85.297 26.59C83.4024 28.2348 82.1932 30.5302 81.9081 33.0229C81.623 35.5157 82.2827 38.0248 83.757 40.055C85.2293 42.086 87.4094 43.4915 89.8671 43.9942C92.3247 44.4968 94.8816 44.06 97.033 42.77H97.035L97.191 42.926C97.8995 42.5197 98.5589 42.0332 99.156 41.476C100.998 39.5278 102.011 36.9406 101.982 34.26C101.952 31.5793 100.883 29.0147 99 27.107V27.105L90.156 35.894L90 35.739L98.844 26.946C97.8203 25.959 96.5986 25.2007 95.2598 24.7214C93.9209 24.2422 92.4955 24.0528 91.078 24.166V24.164ZM79.434 38.551C75.194 38.544 68.271 43.35 51.367 60.254L51.451 60.34C51.359 60.308 51.266 60.305 51.266 60.305L44.902 66.613C44.7386 66.7684 44.6304 66.973 44.5939 67.1956C44.5575 67.4182 44.5947 67.6466 44.7 67.846C44.8053 68.0455 44.9728 68.2051 45.1772 68.3006C45.3815 68.3961 45.6115 68.4222 45.832 68.375L56.746 66.047C56.7942 66.0017 56.8265 65.9421 56.838 65.877L57.08 66.127L53.36 69.817H53.18L31.094 92.077L38.18 98.901C38.3782 99.0796 38.6282 99.1904 38.8936 99.2171C39.1591 99.2439 39.4261 99.1854 39.656 99.05C39.8879 98.9155 40.0736 98.714 40.1888 98.472C40.3039 98.2299 40.343 97.9587 40.301 97.694L39.266 93.194C39.2015 93.1035 39.1668 92.9951 39.1668 92.884C39.1668 92.7728 39.2015 92.6645 39.266 92.574C48.9402 87.9621 57.9365 82.0461 66.004 74.991L61.469 70.454L61.555 70.44L58.865 67.751L59.037 67.577L59.219 67.763L59.125 67.854L66.262 75.147V75.144C79.942 62.19 89.652 51.777 87.127 44.769C87.012 43.9309 86.6227 43.1545 86.02 42.561V42.565C85.867 42.4509 85.7055 42.3486 85.537 42.259C85.454 42.171 85.381 42.081 85.293 41.995L85.227 42.061C85.0417 41.9478 84.847 41.8507 84.645 41.771L84.934 41.479C83.138 39.879 81.654 38.555 79.434 38.549V38.551ZM30.94 92.21L25.769 97.382V97.386C25.5835 97.5009 25.4392 97.6718 25.3571 97.874C25.275 98.0762 25.2592 98.2992 25.312 98.511C25.363 98.7227 25.4795 98.9128 25.6448 99.0545C25.8102 99.1962 26.016 99.2821 26.233 99.3L38.905 100.175L30.94 92.21Z" fill="white"/>
<path d="M91.95 23.31C89.0476 23.3064 86.2605 24.4451 84.191 26.48C82.7184 27.987 81.7102 29.8856 81.2865 31.9495C80.8627 34.0135 81.0413 36.1557 81.801 38.121C77.06 36.091 70.646 39.631 50.695 59.578C50.681 59.6086 50.6686 59.64 50.658 59.672C50.6172 59.6905 50.5775 59.7112 50.539 59.734L44.23 66.098C43.9276 66.3948 43.729 66.7812 43.6636 67.1999C43.5982 67.6185 43.6695 68.0471 43.867 68.422C44.0433 68.7186 44.2928 68.9649 44.5918 69.1373C44.8907 69.3096 45.229 69.4021 45.574 69.406L45.887 69.203L54.311 67.406L50.281 71.473C50.2575 71.5264 50.2394 71.582 50.227 71.639L30.477 91.438C30.3982 91.5042 30.333 91.585 30.285 91.676L25.199 96.766C24.9455 97.0336 24.7723 97.3669 24.6991 97.7282C24.6259 98.0894 24.6557 98.4639 24.785 98.809C24.9176 99.152 25.1424 99.4517 25.4347 99.6749C25.7269 99.8981 26.0752 100.036 26.441 100.074L39.059 100.954C39.2742 100.878 39.4575 100.732 39.579 100.539C39.6875 100.388 39.7458 100.207 39.7458 100.022C39.7458 99.8358 39.6875 99.6548 39.579 99.504L39.553 99.479C39.8253 99.336 40.0652 99.1386 40.258 98.899C40.4606 98.636 40.6022 98.3312 40.6724 98.0068C40.7426 97.6823 40.7398 97.3462 40.664 97.023L39.68 92.836C49.1204 88.3244 57.9657 82.6609 66.014 75.975C66.0921 76.0194 66.1754 76.054 66.262 76.078C66.516 76.059 66.754 75.95 66.934 75.77C80.484 62.94 88.449 54.148 88.449 47.168C88.4784 46.1998 88.3324 45.2342 88.018 44.318C89.2391 44.8244 90.5417 45.1055 91.863 45.148L91.848 45.152C93.6677 45.0964 95.4466 44.5987 97.031 43.702C97.0323 43.7023 97.0336 43.7027 97.035 43.703C97.2401 43.7645 97.461 43.7448 97.652 43.648C98.4165 43.1978 99.1134 42.6416 99.722 41.996C100.753 40.9842 101.572 39.777 102.132 38.4449C102.691 37.1129 102.98 35.6827 102.98 34.238C102.98 32.7933 102.692 31.3632 102.132 30.0312C101.573 28.6992 100.754 27.4919 99.723 26.48C99.6861 26.4466 99.6467 26.4161 99.605 26.389C97.5465 24.4125 94.8028 23.3094 91.949 23.311L91.95 23.31ZM91.863 25.082C93.8838 25.0941 95.8454 25.7662 97.449 26.996L89.381 35.113C89.3533 35.1438 89.3279 35.1765 89.305 35.211C89.1596 35.3581 89.0743 35.5543 89.066 35.761C89.066 35.8859 89.0942 36.0092 89.1484 36.1217C89.2025 36.2342 89.2814 36.3331 89.379 36.411H89.381L95.481 42.511C93.8112 43.2391 91.9606 43.446 90.1712 43.1047C88.3819 42.7634 86.7374 41.8897 85.453 40.598C82.867 37.998 82.117 34.094 83.5 30.707C84.883 27.317 88.18 25.102 91.863 25.082ZM98.983 28.514C100.302 30.1101 101.021 32.1174 101.016 34.188C101.012 36.6138 100.045 38.9388 98.328 40.652C97.9836 40.9759 97.6167 41.275 97.23 41.547L92.307 36.7L91.344 35.737L91.609 35.472L98.982 28.512L98.983 28.514ZM98.617 32.707C98.436 32.6498 98.2404 32.6608 98.067 32.738C97.8954 32.8268 97.766 32.98 97.707 33.164C97.678 33.2559 97.6675 33.3526 97.6761 33.4485C97.6847 33.5444 97.7122 33.6377 97.757 33.723C97.9347 34.0966 98.0048 34.5123 97.9594 34.9235C97.914 35.3348 97.7549 35.7252 97.5 36.051C97.4348 36.1139 97.3837 36.1899 97.3501 36.2741C97.3165 36.3582 97.3011 36.4485 97.305 36.539C97.309 36.723 97.375 36.899 97.5 37.031C97.6333 37.0819 97.7807 37.0819 97.914 37.031C98.0342 37.061 98.1604 37.0576 98.2788 37.0211C98.3972 36.9846 98.5035 36.9165 98.586 36.824C99.0115 36.3022 99.2809 35.6708 99.3632 35.0026C99.4454 34.3343 99.3372 33.6564 99.051 33.047V33.051C98.9535 32.8869 98.799 32.7645 98.617 32.707ZM79.34 39.43C80.5468 39.47 81.7082 39.9002 82.65 40.656C81.6352 40.802 80.6949 41.2721 79.969 41.996L57.162 64.701L52.686 60.225C64.514 48.453 71.746 42.304 76.242 40.289C77.168 39.7048 78.2453 39.4067 79.34 39.43ZM83.305 42.39C84.0708 42.39 84.8054 42.6935 85.348 43.234C85.6368 43.5048 85.8646 43.834 86.0161 44.1998C86.1677 44.5655 86.2396 44.9593 86.227 45.355C86.2139 45.7492 86.1197 46.1365 85.9502 46.4927C85.7807 46.8488 85.5396 47.1662 85.242 47.425L60.992 68.531L58.375 65.914L81.262 43.234C81.8047 42.6939 82.5393 42.3898 83.305 42.39ZM86.299 49.088C84.609 55.79 75.652 64.871 66.312 73.695L62.535 69.922L86.299 49.088ZM51.367 61.547L51.641 61.817L55.154 65.33L45.524 67.39L51.367 61.547ZM57.16 67.387L57.164 67.391L58.332 68.586C58.3369 68.6142 58.3429 68.6423 58.35 68.67L58.428 68.682L58.676 68.936L59.496 69.776L54.111 70.436L57.16 67.387ZM61.027 71.463L64.605 75.039C56.6933 81.618 48.0113 87.211 38.75 91.695C38.4493 91.8382 38.2075 92.0812 38.0659 92.3826C37.9242 92.6839 37.8914 93.0251 37.973 93.348L39.008 97.848C39.0461 97.9008 39.0667 97.9643 39.0667 98.0295C39.0667 98.0947 39.0461 98.1582 39.008 98.211C38.9511 98.262 38.8774 98.2902 38.801 98.2902C38.7246 98.2902 38.6509 98.262 38.594 98.211L32.492 92.059L51.3 72.975L61.027 71.463ZM31.094 93.403L31.963 94.217L36.455 98.709L26.439 98.061L31.094 93.403Z" fill="#F37036"/>
</svg>
