<svg width="37" height="21" viewBox="0 0 37 21" fill="none" xmlns="http://www.w3.org/2000/svg">
<path d="M37 20.4338C36.4614 20.6333 35.8668 20.6329 35.3285 20.4327C34.7903 20.2325 34.3456 19.8464 34.0787 19.3473C32.402 16.8926 30.5505 14.5487 28.771 12.1544L27.9994 11.1485C25.8804 13.925 23.7614 16.5908 21.8276 19.3574C21.5757 19.8344 21.1551 20.2056 20.6442 20.4018C20.1332 20.598 19.5668 20.6058 19.0504 20.4238L27.0017 9.99158L19.6057 0.56512C20.1381 0.377098 20.7206 0.374506 21.2547 0.557781C21.7888 0.741055 22.2419 1.09897 22.5374 1.57109C24.2552 4.02595 26.1583 6.3699 28.0508 8.8548C29.9539 6.38999 31.8363 4.0359 33.5953 1.60131C33.8485 1.13207 34.2694 0.770279 34.7777 0.584786C35.286 0.399294 35.8463 0.403049 36.3519 0.595335L33.482 4.31761C32.1963 5.97747 30.9311 7.64745 29.5939 9.26714C29.4861 9.36146 29.3998 9.47697 29.3408 9.60613C29.2817 9.73528 29.2512 9.87517 29.2512 10.0166C29.2512 10.1581 29.2817 10.298 29.3408 10.4272C29.3998 10.5563 29.4861 10.6718 29.5939 10.7661C32.0524 13.9552 34.4901 17.1542 37 20.4338ZM0 9.86077C0.21608 8.8548 0.34965 7.75818 0.648055 6.73213C2.42757 0.545217 9.67939 -2.03032 14.6683 1.80268C17.5896 4.04622 18.32 7.22516 18.1761 10.8065H1.71791C1.4504 17.2047 6.17179 21.0678 12.2098 19.096C13.1893 18.7533 14.0661 18.1775 14.7611 17.4205C15.456 16.6635 15.9474 15.7492 16.1906 14.76C16.5096 13.754 17.0239 13.583 18.0011 13.8747C17.8402 15.0994 17.3974 16.2726 16.7062 17.3058C16.0149 18.3391 15.0931 19.2057 14.0101 19.8403C12.2207 20.7974 10.1676 21.1766 8.14461 20.9236C6.12157 20.6707 4.23213 19.7986 2.74651 18.432C1.27674 16.8158 0.388054 14.7736 0.21608 12.6172C0.21608 12.2753 0.082325 11.9331 0.01036 11.6113C0.00355324 11.0278 9.98982e-05 10.4443 0 9.86077ZM1.73844 9.42817H16.6228C16.5301 4.79056 13.5368 1.50089 9.54581 1.47086C5.10211 1.41043 1.92363 4.62954 1.72808 9.40808L1.73844 9.42817Z" fill="#9C9C9C"/>
</svg>
