<svg width="124" height="124" viewBox="0 0 124 124" fill="none" xmlns="http://www.w3.org/2000/svg">
<g clip-path="url(#clip0_944_5)">
<path d="M94.9375 0H29.0625C13.0117 0 0 13.0117 0 29.0625V94.9375C0 110.988 13.0117 124 29.0625 124H94.9375C110.988 124 124 110.988 124 94.9375V29.0625C124 13.0117 110.988 0 94.9375 0Z" fill="#330000"/>
<path d="M59.9332 73.7863H40.7132L36.7863 85.9281C36.6832 86.3931 36.27 86.7031 35.805 86.6513H26.0913C25.5232 86.6513 25.3682 86.3413 25.5232 85.7213L42.16 37.8263C42.315 37.31 42.47 36.7413 42.6763 36.1213C42.8832 35.0363 42.9863 33.9 42.9863 32.7631C42.935 32.505 43.1413 32.2463 43.4 32.195H56.7813C57.195 32.195 57.4013 32.35 57.4532 32.6081L76.3113 85.825C76.4663 86.3931 76.3113 86.6513 75.795 86.6513H64.9963C64.635 86.7031 64.2732 86.445 64.17 86.0831L59.9332 73.7863ZM43.71 63.2981H56.8332C56.5232 62.2131 56.11 60.9213 55.645 59.5781C55.18 58.1831 54.715 56.685 54.25 55.135C53.7332 53.5331 53.2682 51.9831 52.7513 50.3813C52.235 48.78 51.77 47.2813 51.3563 45.7831C50.9432 44.3368 50.5813 42.9931 50.22 41.7531H50.1163C49.6513 43.975 49.0832 46.1968 48.36 48.4181C47.585 50.8981 46.81 53.4813 45.9832 56.065C45.3159 58.5035 44.5576 60.9163 43.71 63.2981ZM87.8332 41.2363C86.1282 41.2881 84.475 40.6163 83.235 39.4281C82.0468 38.1363 81.4268 36.4313 81.4782 34.675C81.4268 32.9181 82.0982 31.265 83.3382 30.0763C84.5782 28.8881 86.2318 28.2681 87.9368 28.2681C89.9518 28.2681 91.5018 28.8881 92.6382 30.0763C93.7832 31.3289 94.3948 32.9786 94.3432 34.675C94.395 36.4313 93.775 38.1363 92.535 39.4281C91.3468 40.6681 89.59 41.34 87.8332 41.2363ZM82.0468 86.0831V46.3C82.0468 45.7831 82.2532 45.5763 82.7182 45.5763H92.9482C93.4132 45.5763 93.62 45.835 93.62 46.3V86.0831C93.62 86.6513 93.4132 86.91 92.9482 86.91H82.8218C82.305 86.91 82.0468 86.6 82.0468 86.0831Z" fill="#FF9A00"/>
</g>
<defs>
<clipPath id="clip0_944_5">
<rect width="124" height="124" fill="white"/>
</clipPath>
</defs>
</svg>
