<svg width="120" height="122" viewBox="0 0 120 122" fill="none" xmlns="http://www.w3.org/2000/svg">
<path fill-rule="evenodd" clip-rule="evenodd" d="M83.1323 96.9981C83.3013 96.6731 83.4633 96.3861 83.6013 96.0891C83.6883 95.8991 83.8223 95.8611 84.0113 95.8661C85.1443 95.8981 86.2773 95.9331 87.4113 95.9441C88.3743 95.9541 89.3393 95.9361 90.3033 95.9251C91.3893 95.9121 92.4753 95.8551 93.5603 95.8861C95.0053 95.9281 96.4133 96.2111 97.7203 96.8541C99.2813 97.6231 100.462 98.7941 101.267 100.337C101.773 101.316 102.089 102.381 102.198 103.477C102.37 105.085 102.257 106.656 101.747 108.194C101.115 110.1 99.9153 111.559 98.2483 112.652C96.9653 113.493 95.5583 113.99 94.0503 114.274C92.4543 114.575 90.8533 114.478 89.2523 114.483C87.4963 114.49 85.7413 114.452 83.9853 114.432C83.6783 114.429 83.6343 114.371 83.7153 114.078L83.7903 113.808C83.9613 113.27 84.0533 113.246 84.5993 113.156C84.9863 113.095 85.3565 112.955 85.6863 112.743C85.8703 112.621 85.9463 112.303 86.0183 112.058C86.0803 111.844 86.0833 111.609 86.0853 111.383C86.1103 107.958 86.1363 104.534 86.1503 101.111C86.1542 100.245 86.1325 99.3796 86.0853 98.5151C86.0513 97.9101 85.7283 97.4961 85.0083 97.3531C84.4483 97.2421 83.8843 97.1561 83.3213 97.0571L83.1323 96.9981ZM99.2083 105.291C99.1323 104.609 99.0953 103.921 98.9733 103.249C98.6813 101.636 97.9753 100.231 96.7353 99.1301C94.7303 97.3511 92.3163 97.0771 89.7863 97.2891C89.2103 97.3371 89.0863 97.5341 89.0773 98.1261C89.0633 98.9661 89.0493 99.8061 89.0483 100.646C89.0443 103.31 89.0443 105.974 89.0483 108.638C89.0493 109.396 89.0573 110.154 89.0793 110.91C89.1033 111.684 89.3843 112.339 90.1423 112.639C91.3373 113.112 92.5943 113.168 93.8483 112.975C95.8513 112.668 97.2523 111.501 98.1923 109.752C98.9363 108.364 99.1463 106.849 99.2083 105.291ZM104.077 114.362C104.053 113.947 104.223 113.604 104.433 113.289C104.49 113.204 104.686 113.208 104.821 113.181L105.967 112.954C106.372 112.868 106.585 112.596 106.642 112.199C106.68 111.937 106.716 111.672 106.719 111.407C106.746 109.31 106.766 107.213 106.778 105.116C106.788 103.016 106.78 100.916 106.78 98.8161L106.771 98.4151C106.73 97.7401 106.404 97.3901 105.734 97.2911L104.281 97.0701C104.102 97.0461 104.037 96.9601 104.102 96.8011C104.214 96.5301 104.321 96.2491 104.479 96.0051C104.538 95.9151 104.737 95.8801 104.871 95.8831C105.565 95.8931 106.259 95.9451 106.953 95.9441L112.994 95.9081C114.158 95.9071 115.282 96.1101 116.326 96.6671C117.475 97.2791 118.118 98.2261 118.302 99.5161C118.494 100.871 118.083 102.013 117.093 102.92C116.686 103.294 116.159 103.538 115.687 103.842L115.533 103.938C115.971 104.099 116.388 104.238 116.794 104.404C117.982 104.891 118.927 105.652 119.427 106.867C119.822 107.826 119.822 108.826 119.588 109.82C119.224 111.376 118.199 112.411 116.866 113.194C115.615 113.929 114.261 114.357 112.819 114.429C111.489 114.496 110.153 114.471 108.82 114.486L108.048 114.49C106.764 114.461 105.479 114.429 104.194 114.394L104.077 114.362ZM109.614 108.273H109.627C109.627 108.931 109.618 109.589 109.63 110.247C109.638 110.673 109.623 111.111 109.715 111.521C109.853 112.134 110.133 112.687 110.821 112.863C111.741 113.105 112.702 113.147 113.639 112.987C114.816 112.782 115.755 112.192 116.27 111.071C116.652 110.238 116.709 109.355 116.578 108.453C116.404 107.265 115.773 106.403 114.724 105.838C114.036 105.467 113.302 105.24 112.52 105.21C111.644 105.177 110.767 105.175 109.891 105.148C109.645 105.141 109.611 105.266 109.612 105.468C109.617 106.402 109.614 107.337 109.614 108.273ZM111.479 103.798C111.958 103.774 112.5 103.767 113.039 103.713C114.071 103.61 114.798 103.091 115.177 102.104C115.37 101.603 115.362 101.087 115.367 100.566C115.382 99.2091 114.59 98.0971 113.301 97.6371C112.306 97.2821 111.28 97.2761 110.248 97.3041C109.83 97.3151 109.643 97.4981 109.637 97.9191L109.575 103.408C109.572 103.626 109.666 103.72 109.878 103.727L111.479 103.798Z" fill="#94795D"/>
<path fill-rule="evenodd" clip-rule="evenodd" d="M6.41652 113.307L6.34352 114.251C5.66352 114.251 5.03652 114.246 4.40952 114.253C3.22852 114.265 2.04752 114.284 0.865521 114.301L0.751521 114.308C0.582521 114.288 0.275521 114.288 0.267521 114.238C0.217521 113.957 0.233521 113.662 0.246521 113.371C0.247521 113.338 0.362521 113.296 0.429521 113.28L1.34852 113.075C1.92152 112.926 2.12352 112.679 2.15052 112.087C2.18152 111.42 2.21252 110.752 2.21552 110.085C2.22452 108.443 2.21452 106.803 2.22152 105.161C2.22252 104.777 2.08952 104.491 1.73152 104.335C1.30612 104.146 0.877729 103.964 0.446521 103.789C0.242521 103.707 -0.0224791 103.662 0.00152086 103.388C0.0255209 103.109 0.282521 103.036 0.524521 102.981C1.52652 102.752 2.52952 102.529 3.52852 102.285C3.85052 102.206 4.15852 102.073 4.54352 101.939C4.56352 102.147 4.60052 102.345 4.59652 102.543L4.53752 103.484C4.53652 103.59 4.59152 103.732 4.67052 103.791C4.71852 103.828 4.87952 103.761 4.95952 103.699C5.81352 103.049 6.71752 102.488 7.74852 102.161C9.34552 101.654 10.7165 102.124 11.6765 103.501C12.0145 103.986 12.0155 103.986 12.4845 103.647C13.2895 103.062 14.1315 102.546 15.0735 102.206C17.1415 101.459 19.1285 102.407 19.8475 104.49C20.1095 105.246 20.2095 106.027 20.2075 106.825L20.1885 112.123C20.1875 112.56 20.3325 112.809 20.7485 112.945C21.2155 113.098 21.6995 113.203 22.2255 113.341L22.1035 114.252C21.5055 114.252 20.9555 114.248 20.4055 114.253C19.0615 114.265 17.7175 114.272 16.3745 114.303C16.1405 114.309 16.0795 114.251 16.0675 114.032C16.0285 113.331 16.0225 113.332 16.6825 113.174L16.9045 113.117C17.5495 112.941 17.7645 112.743 17.7695 112.089C17.7845 110.211 17.8235 108.328 17.7285 106.454C17.6295 104.51 16.0865 103.475 14.2025 103.973C13.5945 104.139 13.0218 104.415 12.5125 104.787C12.3375 104.912 12.3045 105.056 12.3185 105.275C12.3715 106.103 12.4045 106.932 12.4115 107.761C12.4235 109.212 12.4055 110.663 12.4115 112.115C12.4135 112.703 12.6145 112.928 13.1955 113.064L14.0585 113.263L14.2185 113.299C14.2305 113.575 14.2415 113.851 14.2285 114.127C14.2205 114.3 14.0865 114.315 13.9365 114.312C13.0975 114.291 12.2575 114.263 11.4185 114.265C10.3975 114.267 9.37752 114.296 8.35752 114.314H8.11752C8.11752 114.021 8.10352 113.741 8.12752 113.462C8.13252 113.395 8.25052 113.301 8.33152 113.28L9.33752 113.067C9.76452 112.962 9.96852 112.743 9.99252 112.309C10.1065 110.299 10.1885 108.288 9.99952 106.279C9.95346 105.882 9.84336 105.496 9.67352 105.134C9.15852 103.996 7.99952 103.521 6.66252 103.863C6.02752 104.025 5.45452 104.316 4.91252 104.683C4.79433 104.756 4.69724 104.858 4.63093 104.98C4.56461 105.102 4.53138 105.239 4.53452 105.378C4.53452 107.383 4.54152 109.388 4.54752 111.392L4.55852 112.165C4.57052 112.704 4.79952 112.988 5.33452 113.104C5.67852 113.182 6.02652 113.235 6.41652 113.307Z" fill="#50382B"/>
<path fill-rule="evenodd" clip-rule="evenodd" d="M66.8747 102.144C67.0297 102.898 67.0267 103.576 66.4727 104.09C65.9227 104.601 65.2267 104.429 64.5477 104.315C64.6107 104.673 64.6807 104.977 64.7147 105.285C64.9617 107.574 63.9767 109.273 61.8537 110.244C61.0517 110.61 60.2007 110.746 59.3317 110.816C58.8997 110.85 58.5217 111.18 58.4807 111.535C58.4387 111.895 58.6647 112.265 59.1167 112.373C59.6497 112.5 60.2057 112.536 60.7527 112.599C61.9267 112.733 63.1137 112.794 64.2737 113.004C66.0277 113.32 67.0067 114.851 66.6977 116.613C66.4227 118.181 65.5147 119.322 64.2487 120.197C62.1157 121.675 59.7757 122.107 57.2837 121.353C55.8587 120.921 54.8537 119.984 54.5067 118.468C54.3327 117.709 54.5177 117.022 55.0887 116.507C55.7677 115.897 56.5067 115.353 57.2177 114.777L57.4477 114.546L57.1837 114.361C56.4587 114.017 55.8787 113.546 55.6537 112.728C55.5767 112.451 55.6567 112.269 55.8917 112.127C56.2917 111.886 56.6897 111.641 57.0847 111.392C57.2707 111.276 57.4547 111.156 57.6277 111.022C57.8637 110.842 57.8427 110.708 57.5607 110.604C56.9047 110.362 56.3217 110.011 55.8697 109.471C55.1147 108.57 54.9007 107.497 54.9627 106.364C55.0597 104.594 56.0207 103.428 57.5827 102.678C59.4397 101.787 61.3027 101.731 63.1957 102.543C63.8957 102.843 64.6337 102.907 65.3847 102.855C65.9457 102.815 66.4357 102.603 66.8747 102.144ZM60.0317 114.825C58.6377 114.813 58.2007 114.985 57.3827 115.818C56.4667 116.752 56.4717 118.047 57.3857 118.985C58.0797 119.696 58.9457 120.029 59.9087 120.129C61.0337 120.245 62.1417 120.198 63.1637 119.635C64.2537 119.032 64.7957 117.912 64.5507 116.784C64.3477 115.853 63.6617 115.427 62.8267 115.182C61.8767 114.904 60.8947 114.851 60.0317 114.825ZM57.2937 105.917C57.3447 106.304 57.3657 106.696 57.4517 107.075C57.6747 108.057 58.1017 108.92 59.0787 109.357C60.2257 109.872 61.6907 109.651 62.1927 108.041C62.5357 106.969 62.4957 105.812 62.0797 104.767C61.9034 104.289 61.5861 103.876 61.1697 103.583C60.1737 102.888 58.3767 102.796 57.6447 104.332C57.4067 104.831 57.3137 105.362 57.2937 105.917Z" fill="#4F382B"/>
<path fill-rule="evenodd" clip-rule="evenodd" d="M43.2237 101.897C43.2607 102.068 43.3347 102.262 43.3367 102.457C43.3397 102.828 43.2997 103.199 43.2787 103.57V103.892L43.5927 103.652C44.4527 102.944 45.3767 102.341 46.4527 102.016C48.3947 101.431 50.3347 102.494 50.9677 104.472C51.2077 105.224 51.3027 105.997 51.3117 106.783C51.3317 108.529 51.3437 110.275 51.3617 112.021C51.3677 112.648 51.4397 112.76 52.0327 112.941C52.3701 113.042 52.7143 113.118 53.0627 113.17C53.2537 113.2 53.3357 113.275 53.3257 113.462L53.3277 113.634C53.3207 114.357 53.2707 114.39 52.5697 114.388C50.8917 114.385 49.2147 114.395 47.5367 114.409C47.0367 114.413 47.0357 114.428 46.9857 113.934L46.9757 113.65C47.0067 113.224 47.0167 113.228 47.4357 113.166C47.7177 113.124 47.9977 113.059 48.2727 112.987C48.5557 112.914 48.6917 112.705 48.7297 112.425C48.7487 112.283 48.7737 112.141 48.7727 111.999C48.7487 110.091 48.7797 108.181 48.6757 106.276C48.5917 104.735 47.4157 103.817 45.8687 103.922C45.123 103.974 44.4061 104.231 43.7977 104.665C43.3847 104.954 43.3017 105.371 43.3037 105.82C43.3117 107.604 43.3287 109.388 43.3477 111.173C43.3517 111.564 43.3627 111.955 43.3997 112.343C43.4387 112.767 43.5877 112.938 44.0037 113.03C44.4017 113.118 44.8077 113.169 45.2327 113.24L45.2687 113.568C45.2827 114.333 45.2027 114.39 44.4597 114.387C42.7247 114.38 40.9897 114.391 39.2557 114.41C38.9827 114.414 38.8667 114.328 38.8737 114.062L38.8697 113.948C38.8247 113.259 38.8447 113.233 39.4967 113.121L39.8047 113.059C40.5107 112.9 40.6917 112.712 40.7017 111.995C40.7347 109.724 40.7467 107.454 40.7697 105.183C40.7727 104.857 40.6497 104.604 40.3457 104.469C39.919 104.282 39.49 104.101 39.0587 103.925C38.8207 103.827 38.5487 103.765 38.5397 103.436C38.5337 103.204 38.7817 102.999 39.1207 102.93C39.8017 102.792 40.4887 102.677 41.1617 102.508C41.8317 102.341 42.4897 102.117 43.2237 101.897Z" fill="#4F372B"/>
<path fill-rule="evenodd" clip-rule="evenodd" d="M80.7386 107.829C80.7066 109.95 80.1556 111.665 78.6556 112.952C76.7556 114.585 73.7916 115.14 71.3686 113.919C70.3346 113.398 69.5746 112.599 69.0796 111.562C68.3206 109.967 68.1306 108.29 68.5266 106.572C68.9186 104.873 69.9476 103.642 71.4876 102.845C73.0716 102.026 74.7396 101.706 76.4986 102.136C78.7236 102.679 80.3226 104.493 80.6406 106.803C80.6976 107.208 80.7196 107.618 80.7386 107.829ZM78.1616 108.978L78.0756 108.968C78.0756 108.768 78.0866 108.568 78.0736 108.368C78.0006 107.122 77.7206 105.935 76.9986 104.892C76.3136 103.904 75.3806 103.321 74.1666 103.236C72.8076 103.14 71.6656 103.9 71.2646 105.288C70.6626 107.372 70.8666 109.403 71.9246 111.312C72.3856 112.144 73.0686 112.758 73.9836 113.081C75.7766 113.712 77.3666 112.895 77.8336 111.059C78.0056 110.381 78.0556 109.672 78.1616 108.978Z" fill="#4F382B"/>
<path fill-rule="evenodd" clip-rule="evenodd" d="M36.6923 107.993C36.6553 109.515 36.2963 110.922 35.3563 112.145C34.3493 113.455 32.9653 114.155 31.3913 114.45C29.5303 114.798 27.7823 114.482 26.2873 113.233C25.5773 112.639 25.0923 111.878 24.7723 111.012C24.2473 109.592 24.1163 108.137 24.4393 106.654C24.7843 105.067 25.6803 103.854 27.0693 103.04C28.6753 102.101 30.4083 101.682 32.2593 102.104C34.6393 102.648 36.0133 104.199 36.5213 106.547C36.6233 107.021 36.6373 107.511 36.6923 107.993ZM34.0863 108.997L34.0173 108.987V108.701C33.9783 107.305 33.7053 105.975 32.8723 104.815C32.2553 103.954 31.4293 103.414 30.3703 103.263C28.6443 103.017 27.5163 104.041 27.1423 105.432C26.6543 107.249 26.8073 109.044 27.5623 110.767C28.0333 111.841 28.7773 112.678 29.9203 113.084C31.7023 113.717 33.3163 112.879 33.7673 111.05C33.9333 110.381 33.9833 109.683 34.0863 108.997Z" fill="#4F372B"/>
<path fill-rule="evenodd" clip-rule="evenodd" d="M78.2356 30.4028C79.4626 33.9498 80.3446 37.5708 80.6356 41.3228C80.9956 45.9788 80.8316 50.6028 79.8496 55.1818L79.7236 55.5478C79.4156 55.5488 79.1016 55.5098 78.8006 55.5568C76.2576 55.9568 73.7176 56.3708 71.1766 56.7828C68.5496 57.2088 65.9206 57.6178 63.2986 58.0718C62.3696 58.2318 61.2196 58.0408 60.8446 59.3248L60.6646 59.3858L60.7916 51.7078L60.6626 33.1818L61.8866 32.9718C63.8876 32.6448 65.8886 32.3118 67.8926 31.9928C70.2826 31.6138 72.6746 31.2438 75.0666 30.8738C76.1226 30.7118 77.1796 30.5608 78.2356 30.4028Z" fill="#439934"/>
<path fill-rule="evenodd" clip-rule="evenodd" d="M58.1384 81.7703C56.8474 80.6603 55.5114 79.5993 54.2744 78.4313C47.6164 72.1513 42.7454 64.7583 40.3464 55.8453C39.6854 53.3933 39.2454 50.9003 39.1034 48.3663C39.0034 46.5923 38.8604 44.8033 38.9864 43.0383C39.3194 38.3453 39.9984 33.6973 41.3744 29.1763L41.4504 29.0713C41.5844 29.2493 41.7764 29.4073 41.8444 29.6083C43.1884 33.5643 44.5214 37.5243 45.8484 41.4873C50.0174 53.9383 54.1814 66.3923 58.3574 78.8413C58.4394 79.0843 58.6504 79.2833 58.8024 79.5023L58.1384 81.7703Z" fill="#45A538"/>
<path fill-rule="evenodd" clip-rule="evenodd" d="M78.2356 30.403C77.1786 30.56 76.1216 30.712 75.0666 30.874C72.6746 31.244 70.2826 31.614 67.8926 31.993C65.8896 32.311 63.8886 32.644 61.8866 32.972L60.6626 33.182L60.6526 32.384C60.6116 31.728 60.5436 31.072 60.5346 30.416L60.3976 17.862C60.3656 15.243 60.3176 12.624 60.2646 10.006C60.2376 8.37884 60.1906 6.75205 60.1236 5.12602C60.0836 4.25302 59.9426 3.38402 59.8866 2.51102C59.8536 2.00902 59.8976 1.50302 59.9086 0.999023C60.5326 2.20802 61.1436 3.42602 61.7846 4.62602C62.7976 6.52302 64.4126 7.92102 65.8676 9.44602C71.6136 15.477 75.6926 22.485 78.2356 30.403Z" fill="#46A037"/>
<path fill-rule="evenodd" clip-rule="evenodd" d="M60.6657 59.3859L60.8457 59.3249C61.2207 58.0409 62.3707 58.2319 63.2997 58.0719C65.9217 57.6179 68.5507 57.2089 71.1777 56.7829C73.7187 56.3719 76.2587 55.9579 78.8017 55.5569C79.1027 55.5099 79.4167 55.5489 79.7247 55.5479C79.2497 57.2439 78.8757 58.9769 78.2727 60.6259C77.5877 62.4959 76.7597 64.3219 75.8807 66.1119C74.564 68.7813 72.9349 71.2848 71.0277 73.5699C69.5617 75.3319 67.9277 76.9629 66.2907 78.5719C65.3847 79.4609 64.3187 80.1859 63.3247 80.9859L63.0667 80.8099L62.1397 80.0179L61.1807 77.9139C60.5255 75.4604 60.1679 72.9369 60.1157 70.3979L60.1337 69.9699L60.2647 68.1159C60.3077 67.4829 60.3657 66.8509 60.3927 66.2179C60.4887 63.9419 60.5747 61.6639 60.6657 59.3859Z" fill="#409433"/>
<path fill-rule="evenodd" clip-rule="evenodd" d="M60.6657 59.3859C60.5757 61.6639 60.4897 63.9429 60.3927 66.2209C60.3657 66.8549 60.3087 67.4869 60.2647 68.1189L59.6807 68.3399C58.3827 64.5189 57.0837 60.7379 55.8137 56.9479C53.7127 50.6769 51.6377 44.3969 49.5397 38.1239C47.8455 33.0613 46.1395 28.0026 44.4217 22.9479C44.3407 22.7119 44.1107 22.5259 43.9507 22.3169L47.6907 15.4399C47.8197 15.6629 47.9887 15.8719 48.0697 16.1119C49.7997 21.2319 51.5267 26.3529 53.2387 31.4789C55.4667 38.1489 57.6797 44.8219 59.9057 51.4929C59.9947 51.7589 60.1407 52.0049 60.2807 52.3039L60.7927 51.7079L60.6657 59.3859Z" fill="#4FAA41"/>
<path fill-rule="evenodd" clip-rule="evenodd" d="M43.9497 22.3169C44.1107 22.5259 44.3407 22.7119 44.4207 22.9479C46.1387 28.0025 47.8447 33.0612 49.5387 38.1239C51.6367 44.3969 53.7117 50.6769 55.8127 56.9479C57.0827 60.7379 58.3817 64.5179 59.6797 68.3399L60.2637 68.1189L60.1327 69.9729L60.0137 70.3999C59.8107 72.4289 59.6397 74.4619 59.3917 76.4869C59.2677 77.5019 59.0027 78.4979 58.8017 79.5019C58.6507 79.2829 58.4387 79.0839 58.3567 78.8409C54.1797 66.3919 50.0167 53.9379 45.8477 41.4869C44.5213 37.5245 43.1866 33.5648 41.8437 29.6079C41.7757 29.4069 41.5837 29.2489 41.4497 29.0709L43.9497 22.3169Z" fill="#4AA73C"/>
<path fill-rule="evenodd" clip-rule="evenodd" d="M60.7915 51.708L60.2794 52.304C60.1394 52.005 59.9934 51.759 59.9044 51.493C57.6784 44.822 55.4654 38.149 53.2374 31.479C51.5234 26.3536 49.8004 21.2313 48.0685 16.112C47.9875 15.872 47.8185 15.663 47.6895 15.44L52.3145 9.35596C52.4605 9.54996 52.6685 9.72296 52.7435 9.94196C54.0275 13.702 55.2995 17.465 56.5655 21.231C57.7475 24.749 58.9115 28.271 60.1075 31.783C60.1875 32.018 60.4665 32.184 60.6525 32.384L60.6625 33.182L60.7915 51.708Z" fill="#57AE47"/>
<path fill-rule="evenodd" clip-rule="evenodd" d="M60.6525 32.384C60.4655 32.185 60.1875 32.019 60.1075 31.783C58.9125 28.271 57.7475 24.749 56.5655 21.231C55.3004 17.465 54.0264 13.702 52.7435 9.942C52.6685 9.723 52.4605 9.55 52.3145 9.356C53.8185 7.883 55.2755 6.357 56.8405 4.952C58.2315 3.704 59.3495 2.366 59.4015 0.393L59.5115 0L59.9074 0.998C59.8974 1.502 59.8525 2.008 59.8855 2.51C59.9425 3.383 60.0835 4.252 60.1225 5.125C60.1955 6.75 60.2305 8.378 60.2635 10.005C60.3165 12.623 60.3645 15.242 60.3965 17.861L60.5335 30.415C60.5435 31.072 60.6125 31.728 60.6525 32.384Z" fill="#60B24F"/>
<path fill-rule="evenodd" clip-rule="evenodd" d="M58.8027 79.5011C59.0037 78.4971 59.2687 77.5011 59.3927 76.4861C59.6407 74.4621 59.8117 72.4281 60.0147 70.3991L60.0657 70.3911L60.1157 70.4001C60.1679 72.9391 60.5254 75.4626 61.1807 77.9161C61.0457 78.0941 60.8567 78.2511 60.7847 78.4511C60.2297 80.0171 59.7057 81.5961 59.1477 83.1611C59.0717 83.3751 58.8577 83.5421 58.7087 83.7291L58.1377 81.7691L58.8027 79.5011Z" fill="#A9AA88"/>
<path fill-rule="evenodd" clip-rule="evenodd" d="M58.7085 83.73C58.8575 83.542 59.0715 83.376 59.1475 83.162C59.7055 81.597 60.2295 80.018 60.7845 78.452C60.8555 78.252 61.0455 78.095 61.1805 77.917L62.1395 80.021C61.9505 80.289 61.6885 80.532 61.5835 80.831L59.7475 86.223C59.6715 86.44 59.4145 86.592 59.2405 86.775L58.7085 83.73Z" fill="#B6B598"/>
<path fill-rule="evenodd" clip-rule="evenodd" d="M59.2407 86.774C59.4137 86.591 59.6717 86.439 59.7477 86.222L61.5837 80.83C61.6877 80.531 61.9507 80.288 62.1397 80.02L63.0677 80.811C62.6197 81.254 62.3707 81.766 62.5207 82.413L62.2387 83.336C62.1107 83.494 61.9247 83.632 61.8617 83.813C61.2207 85.649 60.6097 87.495 59.9637 89.33C59.8817 89.562 59.6547 89.745 59.4957 89.951L59.2407 86.774Z" fill="#C2C1A7"/>
<path fill-rule="evenodd" clip-rule="evenodd" d="M59.4945 89.95C59.6545 89.744 59.8815 89.561 59.9625 89.329C60.6085 87.494 61.2205 85.648 61.8605 83.812C61.9235 83.631 62.1095 83.494 62.2375 83.335L61.8485 87.571C61.7445 87.691 61.5945 87.796 61.5445 87.935L60.2505 91.643C60.1595 91.896 59.9855 92.122 59.8495 92.359C59.7285 92.201 59.5125 92.048 59.5025 91.884C59.4645 91.242 59.4915 90.595 59.4945 89.95Z" fill="#CECDB7"/>
<path fill-rule="evenodd" clip-rule="evenodd" d="M59.8506 92.3603C59.9866 92.1233 60.1606 91.8973 60.2516 91.6443L61.5456 87.9363C61.5956 87.7963 61.7466 87.6923 61.8496 87.5723L61.8596 90.3523L60.9286 92.7393L59.8506 92.3603Z" fill="#DBDAC7"/>
<path fill-rule="evenodd" clip-rule="evenodd" d="M60.9287 92.7391L61.8597 90.3521L62.0517 93.1761L60.9287 92.7391Z" fill="#EBE9DC"/>
<path fill-rule="evenodd" clip-rule="evenodd" d="M62.5194 82.413C62.3704 81.767 62.6184 81.255 63.0664 80.811L63.3244 80.987L62.5194 82.413Z" fill="#CECDB7"/>
<path fill-rule="evenodd" clip-rule="evenodd" d="M60.1156 70.4011L60.0657 70.3921L60.0146 70.4001L60.1337 69.9731L60.1156 70.4011Z" fill="#4FAA41"/>
</svg>
