<svg width="92" height="89" viewBox="0 0 92 89" fill="none" xmlns="http://www.w3.org/2000/svg">
<path d="M37.595 30.8851C36.1921 30.3145 34.6754 30.0863 33.1208 30.1244C32.135 30.1244 31.2629 30.1244 30.5425 30.1624C29.7842 30.1244 29.2533 30.1624 28.9879 30.2004V42.9805C29.5187 43.0185 30.0117 43.0565 30.4667 43.0565H32.4762C33.955 43.0565 35.4337 42.8283 36.8367 42.3719C38.05 42.0296 39.1117 41.3069 39.9458 40.356C40.7421 39.4051 41.1212 38.1119 41.1212 36.4383C41.1592 35.2592 40.8558 34.0801 40.2492 33.0531C39.6169 32.0655 38.6871 31.306 37.595 30.8851ZM75.1325 0H16.3617C7.45124 0 0.24707 7.2268 0.24707 16.1652V72.8348C0.24707 81.7732 7.45124 89 16.3617 89H75.1325C84.0429 89 91.2471 81.7732 91.2471 72.8348V16.1652C91.2471 7.2268 84.0429 0 75.1325 0ZM47.1083 44.3117C45.5954 46.4417 43.4721 48.0392 41.0075 48.9521C38.4292 49.903 35.5854 50.2453 32.4762 50.2453C31.5662 50.2453 30.9596 50.2453 30.5804 50.2073C30.2012 50.1692 29.6704 50.1692 28.95 50.1692V62.3749C28.9879 62.6412 28.7983 62.8732 28.5329 62.9112H21.1771C20.8737 62.9112 20.7221 62.7553 20.7221 62.413V23.2779C20.7221 23.0117 20.8358 22.8595 21.1012 22.8595C21.7458 22.8595 22.3525 22.8595 23.2246 22.8215C24.1346 22.7835 25.0825 22.7835 26.1062 22.7454C27.13 22.7074 28.2296 22.7074 29.405 22.6693C30.5804 22.6313 31.7179 22.6313 32.8554 22.6313C35.9646 22.6313 38.5429 23.0117 40.6662 23.8104C42.5621 24.457 44.3062 25.522 45.7471 26.9294C46.9604 28.1465 47.9083 29.6299 48.515 31.2654C49.0799 32.8629 49.3833 34.4985 49.3833 36.2101C49.3871 39.4812 48.6287 42.1817 47.1083 44.3117ZM73.995 59.1077C72.9333 60.6291 71.4508 61.8044 69.7483 62.4967C67.8904 63.2916 65.6154 63.7062 62.8816 63.7062C61.1412 63.7062 59.4312 63.5578 57.7287 63.2155C56.4017 62.9835 55.0746 62.5689 53.8612 61.9984C53.5958 61.85 53.4024 61.5838 53.4404 61.2795V54.6613C53.4404 54.551 53.4821 54.395 53.5958 54.3189C53.7058 54.2429 53.8233 54.2809 53.9371 54.357C55.4158 55.2318 56.9704 55.8442 58.6387 56.2207C60.0758 56.6011 61.5924 56.7913 63.1129 56.7913C64.5537 56.7913 65.5775 56.5973 66.26 56.255C66.8667 55.9887 67.2837 55.3421 67.2837 54.6575C67.2837 54.1212 66.9804 53.6305 66.3737 53.136C65.7671 52.6454 64.5196 52.0748 62.6617 51.3445C60.7279 50.6599 58.9497 49.747 57.2775 48.6098C56.0911 47.7573 55.106 46.6536 54.3921 45.3767C53.7894 44.1733 53.4912 42.8396 53.5238 41.4933C53.5238 39.8577 53.9788 38.2983 54.8167 36.8909C55.7647 35.3695 57.1638 34.1524 58.7942 33.3916C60.5725 32.4826 62.8096 32.0642 65.5016 32.0642C67.0562 32.0642 68.6487 32.1783 70.2033 32.4065C71.3408 32.5587 72.4404 32.8629 73.4641 33.2813C73.612 33.3194 73.7675 33.4715 73.8433 33.6237C73.8812 33.7758 73.9192 33.9279 73.9192 34.0801V40.2799C73.9192 40.4321 73.8433 40.5842 73.7296 40.6603C73.3883 40.7364 73.1987 40.7364 73.0471 40.6603C71.9096 40.0517 70.6962 39.6333 69.4071 39.3671C68.0042 39.0628 66.6012 38.8726 65.1604 38.8726C64.4021 38.8346 63.6058 38.9487 62.8816 39.1389C62.3925 39.253 61.9716 39.5192 61.7062 39.8996C61.5166 40.2039 61.4029 40.5842 61.4029 40.9265C61.4029 41.2689 61.5545 41.6112 61.7858 41.9155C62.1271 42.3339 62.5783 42.6762 63.075 42.9424C63.9433 43.3989 64.8571 43.8173 65.7633 44.1976C67.8146 44.8823 69.7862 45.8332 71.6062 46.9742C72.8575 47.7692 73.8812 48.838 74.5979 50.1312C75.2045 51.3407 75.5079 52.6796 75.4699 54.0451C75.5117 55.8366 74.9808 57.6205 73.995 59.1077Z" fill="#666666"/>
</svg>
