<svg width="40" height="40" viewBox="0 0 40 40" fill="none" xmlns="http://www.w3.org/2000/svg">
<path d="M37.9995 20C38.0025 22.3709 37.5357 24.7188 36.626 26.9082C35.7163 29.0976 34.3817 31.0851 32.6994 32.7557C31.0308 34.4213 29.0504 35.7417 26.8713 36.6416C24.6922 37.5414 22.3571 38.003 19.9995 37.9999C10.0581 37.9999 1.99953 29.9414 1.99953 20C1.99323 15.3846 3.76611 10.9443 6.94952 7.60251C8.62922 5.83005 10.6529 4.41898 12.8968 3.45566C15.1407 2.49233 17.5576 1.99702 19.9995 2.00002C22.3571 1.99696 24.6922 2.45855 26.8713 3.35839C29.0504 4.25824 31.0308 5.5787 32.6994 7.24431C34.3817 8.91491 35.7163 10.9023 36.626 13.0917C37.5357 15.2811 38.0025 17.6291 37.9995 20Z" stroke="#666666" stroke-width="4" stroke-linecap="round" stroke-linejoin="round"/>
<path d="M38.0001 19.9996C35.3739 19.9996 28.1289 19.0096 21.6444 21.8563C14.6001 24.9496 9.49985 29.7484 7.27686 32.7319" stroke="#666666" stroke-width="4" stroke-linecap="round" stroke-linejoin="round"/>
<path d="M13.2495 3.30859C16.0665 5.90869 22.2135 12.5282 24.4995 19.1C26.7855 25.6718 27.6315 33.7519 28.1535 36.0514" stroke="#666666" stroke-width="4" stroke-linecap="round" stroke-linejoin="round"/>
<path d="M2.13818 17.7502C5.53838 17.9554 14.5393 18.1399 20.2993 15.6802C26.0592 13.2205 31.0155 8.69624 32.7156 7.26074M3.34958 26.8519C4.93566 30.6912 7.79621 33.8667 11.4496 35.8438" stroke="#666666" stroke-width="4" stroke-linecap="round" stroke-linejoin="round"/>
<path d="M1.99953 20C1.99323 15.3846 3.76611 10.9443 6.94952 7.6025C8.62922 5.83005 10.6529 4.41898 12.8968 3.45565C15.1407 2.49233 17.5576 1.99701 19.9995 2.00001M27.1995 3.49761C29.2493 4.39449 31.1144 5.66502 32.6994 7.2443C34.3817 8.9149 35.7163 10.9023 36.626 13.0917C37.5357 15.2811 38.0025 17.6291 37.9995 20C37.9995 22.2158 37.599 24.3389 36.8655 26.3M19.9995 37.9999C22.3571 38.003 24.6922 37.5414 26.8713 36.6416C29.0504 35.7417 31.0308 34.4213 32.6994 32.7557" stroke="#666666" stroke-width="4" stroke-linecap="round" stroke-linejoin="round"/>
</svg>
