<svg width="251" height="251" viewBox="0 0 251 251" fill="none" xmlns="http://www.w3.org/2000/svg">
<rect width="251" height="251" rx="48" fill="#666666"/>
<g clip-path="url(#clip0_167_46)">
<path d="M27 168.25H33.5618V142.344L43.7186 164.926C44.9144 167.664 46.5525 168.624 49.7731 168.624C52.9937 168.624 54.5653 167.664 55.761 164.926L65.9178 142.344V168.248H72.4797V142.388C72.4797 139.862 71.4711 138.641 69.3859 138.013C64.4003 136.46 61.0591 137.801 59.5432 141.167L49.5797 163.458L39.9303 141.167C38.4809 137.801 35.0731 136.46 30.0938 138.013C28.0086 138.641 27 139.862 27 142.388L27 168.25ZM77.9386 147.161H84.4942V161.434C84.4339 162.208 84.7418 164.027 88.3367 164.087H102.604V147.089H109.178C109.209 147.089 109.165 170.267 109.165 170.364C109.201 176.08 102.078 177.319 98.7905 177.417H78.0778V173.005L98.8276 172.999C103.051 172.558 102.549 170.454 102.549 169.753V168.032H88.6089C82.1198 167.971 77.9927 165.138 77.9386 161.88C77.9324 161.584 78.0778 147.307 77.9386 147.161Z" fill="white"/>
<path d="M114.23 168.25H133.094C135.3 168.25 137.445 167.784 139.148 166.988C141.989 165.688 143.371 163.919 143.371 161.604V156.812C143.371 154.92 141.8 153.151 138.706 151.978C137.068 151.344 135.045 151.011 133.092 151.011H125.14C122.493 151.011 121.231 150.213 120.917 148.45C120.857 148.238 120.857 148.069 120.857 147.857V144.872C120.857 144.703 120.857 144.533 120.917 144.323C121.231 142.982 121.926 142.601 124.258 142.389L124.892 142.347H143.624V137.979H125.208C122.561 137.979 121.172 138.148 119.908 138.524C115.999 139.744 114.295 141.678 114.295 145.044V148.869C114.295 151.811 117.636 154.337 123.25 154.923L125.142 155.009H131.957C132.211 155.009 132.458 155.009 132.652 155.05C134.731 155.219 135.612 155.599 136.247 156.356C136.573 156.658 136.76 157.088 136.748 157.528V161.36C136.748 161.819 136.434 162.412 135.806 162.913C135.238 163.42 134.29 163.753 133.032 163.838L132.338 163.88H114.23V168.25ZM184.299 160.636C184.299 165.137 187.646 167.657 194.389 168.165L196.287 168.25H213.381V163.875H196.16C192.311 163.875 190.861 162.908 190.861 160.594V137.97H184.305V160.635L184.299 160.636ZM147.56 160.865V145.269C147.56 141.311 150.346 138.907 155.844 138.151C156.43 138.066 157.022 138.024 157.615 138.024H170.063C170.697 138.024 171.265 138.066 171.9 138.151C177.4 138.906 180.179 141.311 180.179 145.269V160.865C180.179 164.079 179.001 165.796 176.277 166.919L182.742 172.751H175.123L169.896 168.032L164.633 168.364H157.618C156.314 168.36 155.017 168.176 153.763 167.82C149.588 166.684 147.563 164.491 147.563 160.865H147.56ZM154.642 160.484C154.642 160.696 154.702 160.907 154.769 161.162C155.149 162.975 156.854 163.984 159.445 163.984H165.404L159.929 159.041H167.549L172.323 163.355C173.204 162.884 173.778 162.171 173.984 161.247C174.044 161.035 174.044 160.825 174.044 160.613V145.658C174.044 145.489 174.044 145.277 173.984 145.065C173.604 143.379 171.899 142.412 169.368 142.412H159.447C156.54 142.412 154.644 143.675 154.644 145.658L154.642 160.484Z" fill="white"/>
<path d="M219.151 130.713C215.122 130.605 212.039 130.979 209.404 132.092C208.656 132.406 207.458 132.412 207.338 133.349C207.749 133.784 207.816 134.431 208.142 134.956C208.77 135.977 209.834 137.337 210.783 138.05L213.991 140.346C215.96 141.548 218.166 142.238 220.07 143.44C221.189 144.153 222.299 145.047 223.393 145.851C223.931 146.244 224.293 146.866 225 147.113V146.999C224.632 146.527 224.534 145.881 224.196 145.392L222.703 143.899C221.247 141.965 219.397 140.267 217.428 138.853C215.856 137.728 212.353 136.206 211.694 134.381L211.579 134.267C212.692 134.146 213.997 133.741 215.018 133.468C216.746 133.003 218.287 133.123 220.064 132.664L222.475 131.969V131.516C221.575 130.591 220.935 129.371 219.949 128.531C217.388 126.35 214.583 124.162 211.695 122.337C210.094 121.328 208.119 120.676 206.42 119.817C205.853 119.528 204.849 119.383 204.468 118.898C203.58 117.763 203.096 116.324 202.408 115L198.281 106.287C197.411 104.299 196.842 102.334 195.755 100.552C190.553 91.9905 184.945 86.8239 176.261 81.7486C174.419 80.6673 172.188 80.2435 169.845 79.6882L166.056 79.4592C165.289 79.1328 164.491 78.1908 163.767 77.7376C160.891 75.9184 153.513 71.9677 151.38 77.1637C150.038 80.4446 153.392 83.6466 154.594 85.3095C155.434 86.4759 156.515 87.7814 157.114 89.0916C157.513 89.9501 157.579 90.8133 157.918 91.7259C158.752 93.9736 159.477 96.4145 160.559 98.4935C161.103 99.5454 161.7 100.651 162.39 101.587C162.813 102.161 163.538 102.421 163.652 103.309C162.946 104.301 162.904 105.835 162.505 107.091C160.71 112.74 161.386 119.762 163.997 123.949C164.796 125.23 166.68 127.985 169.272 126.928C171.538 126.003 171.031 123.146 171.678 120.62C171.829 120.052 171.738 119.628 172.023 119.248V119.362L174.089 123.489C175.618 125.949 178.325 128.517 180.622 130.251C181.817 131.151 182.755 132.71 184.296 133.236V133.116H184.181C183.879 132.656 183.414 132.463 183.033 132.089C182.133 131.207 181.135 130.113 180.399 129.103C178.308 126.269 176.459 123.163 174.779 119.93C173.975 118.389 173.274 116.685 172.598 115.115C172.338 114.51 172.344 113.593 171.8 113.283C171.057 114.431 169.964 115.362 169.388 116.722C168.469 118.891 168.355 121.544 168.01 124.288L167.781 124.402C166.186 124.015 165.623 122.373 165.032 120.963C163.527 117.398 163.25 111.651 164.573 107.549C164.912 106.486 166.459 103.137 165.83 102.16C165.535 101.18 164.55 100.613 163.999 99.8641C163.279 98.8601 162.664 97.7851 162.163 96.6558C160.936 93.8699 160.362 90.753 159.069 87.9423C158.453 86.595 157.408 85.2353 156.549 84.0395C155.595 82.717 154.531 81.744 153.794 80.1414C153.534 79.5737 153.179 78.661 153.565 78.0748C153.686 77.6819 153.867 77.5194 154.254 77.3926C154.919 76.879 156.774 77.5612 157.462 77.8458C159.304 78.6131 160.84 79.3386 162.398 80.3719C163.14 80.8669 163.897 81.8275 164.803 82.0936H165.837C167.45 82.4617 169.257 82.2018 170.768 82.6613C173.433 83.4703 175.826 84.7341 177.989 86.1062C184.599 90.275 190.002 96.215 193.699 103.303C194.298 104.444 194.551 105.532 195.077 106.741C196.135 109.182 197.464 111.696 198.516 114.083C199.568 116.47 200.589 118.869 202.069 120.851C202.849 121.89 205.864 122.445 207.23 123.025C208.19 123.431 209.762 123.853 210.668 124.404C212.408 125.449 214.088 126.693 215.72 127.842C216.529 128.422 219.032 129.68 219.159 130.712L219.151 130.713ZM167.892 87.0265C167.199 87.0147 166.506 87.0916 165.832 87.2555V87.37H165.946C166.346 88.1975 167.053 88.7297 167.548 89.4366L168.695 91.842L168.81 91.7337C169.523 91.2325 169.843 90.4281 169.843 89.2076C169.554 88.906 169.517 88.5317 169.269 88.1743C168.943 87.6963 168.31 87.4318 167.892 87.0265Z" fill="white"/>
</g>
<defs>
<clipPath id="clip0_167_46">
<rect width="198" height="198" fill="white" transform="translate(27 27)"/>
</clipPath>
</defs>
</svg>
