<svg width="181" height="117" viewBox="0 0 181 117" fill="none" xmlns="http://www.w3.org/2000/svg">
<path d="M58.2553 89.0128C59.0644 92.2739 59.123 94.9904 58.4309 97.1623C57.7209 99.2617 56.4404 101.387 54.5894 103.539C54.0995 104.045 53.4103 104.678 52.5215 105.437C51.6328 106.196 50.6264 106.946 49.5023 107.686C48.3782 108.426 47.1637 109.112 45.8587 109.744C44.5537 110.375 43.3214 110.835 42.1619 111.123C38.9008 111.932 36.3469 112.181 34.5003 111.87C32.6717 111.631 31.6405 111.041 31.4068 110.098C31.155 109.084 31.2382 108.179 31.6561 107.382C32.074 106.586 32.4914 106.098 32.9083 105.918L34.3198 106.491C34.772 106.763 35.3782 107.036 36.1383 107.309C36.8804 107.51 37.9762 107.43 39.4256 107.07C40.8025 106.729 42.4153 106.098 44.2641 105.178C46.095 104.185 47.7631 103.002 49.2687 101.628C50.8287 100.164 52.0449 98.5544 52.9173 96.7993C53.8621 95.0263 54.1008 93.1977 53.6333 91.3135C53.2198 89.6467 51.574 88.4395 48.696 87.6919C45.8724 86.8538 41.7163 86.8464 36.2277 87.6696C33.4199 88.1354 30.6214 88.4835 27.8322 88.714C25.0249 88.8719 22.4354 88.822 20.0635 88.5643C17.7461 88.2161 15.7824 87.5878 14.1723 86.6794C12.5442 85.6986 11.4964 84.2661 11.0289 82.3819C10.5794 80.5702 10.6552 78.705 11.2562 76.7865C11.8573 74.868 12.7117 73.0405 13.8195 71.304C14.9817 69.477 16.2252 67.8222 17.5498 66.3396C18.8744 64.857 19.9904 63.6185 20.8976 62.6241C21.6414 61.9011 22.6753 60.9522 23.9994 59.7774C25.378 58.5122 26.847 57.3015 28.4065 56.1453C30.0204 54.8987 31.6341 53.8059 33.2475 52.8671C34.9154 51.8379 36.3654 51.1704 37.5973 50.8648C39.0467 50.5052 40.124 50.661 40.829 51.3323C41.5341 52.0036 42.0664 53.064 42.426 54.5134C42.7317 55.7453 42.9104 57.0858 42.9621 58.5346C43.0139 59.9834 43.0204 61.405 42.9817 62.7994C42.943 64.1937 42.8683 65.4431 42.7577 66.5476C42.7015 67.5616 42.6369 68.2316 42.5639 68.5574C42.4359 69.2816 42.2176 69.7973 41.9092 70.1046C41.6008 70.4119 41.3741 70.5835 41.2292 70.6195C40.9393 70.6914 40.7494 70.5462 40.6595 70.1839C40.6056 69.9664 40.5429 69.5589 40.4716 68.9611C40.4547 68.273 40.4108 67.4761 40.34 66.5705C40.3417 65.6469 40.2529 64.6688 40.0736 63.6363C39.9668 62.5857 39.7876 61.5532 39.5359 60.5386C39.1403 58.9443 38.7802 57.8028 38.4554 57.114C38.1307 56.4253 37.461 56.2068 36.4465 56.4585C35.4319 56.7102 34.1269 57.3417 32.5315 58.353C30.918 59.2918 29.3044 60.3845 27.6904 61.6312C25.9495 62.9863 24.3077 64.586 22.7651 66.4304C21.295 68.2568 20.0151 70.0745 18.9253 71.8835C17.8355 73.6925 16.9903 75.4023 16.3898 77.013C15.8438 78.5332 15.6697 79.6919 15.8675 80.4891C16.0833 81.3587 16.8698 82.0483 18.2271 82.5577C19.6389 82.9768 21.3225 83.2514 23.2781 83.3817C25.3062 83.494 27.4974 83.4888 29.8519 83.3663C32.2063 83.2437 34.4975 83.0214 36.7255 82.6994C38.5912 82.4674 40.6561 82.2628 42.92 82.0857C45.184 81.9087 47.357 81.985 49.439 82.3147C51.521 82.6444 53.385 83.3359 55.0311 84.3892C56.6592 85.37 57.7339 86.9112 58.2553 89.0128ZM88.1632 76.9768C88.6155 77.2492 88.8506 77.4217 88.8686 77.4941C88.9045 77.6391 88.795 78.1278 88.54 78.9604C88.3574 79.775 88.0389 80.6618 87.5845 81.6208C87.13 82.5798 86.5851 83.4843 85.9498 84.3343C85.3689 85.0938 84.7162 85.5635 83.9915 85.7433C82.4696 86.1209 81.1657 86.1366 80.0798 85.7906C78.9758 85.3721 77.9809 84.7728 77.0949 83.9925C76.2814 83.1942 75.5587 82.2965 74.9266 81.2994C74.3491 80.2118 73.8257 79.1877 73.3566 78.227C73.0858 77.7557 72.8779 77.538 72.733 77.574C72.5156 77.6279 72.2785 78.5329 72.0219 80.2891C71.7472 81.9728 71.4451 83.8556 71.1154 85.9376C70.8402 87.9291 70.538 89.812 70.2089 91.5861C69.9342 93.2698 69.6882 94.1386 69.4708 94.1925C68.1663 94.5162 66.9082 94.2513 65.6964 93.398C64.5391 92.4543 63.4907 91.3296 62.5514 90.0241C61.6665 88.6281 60.8904 87.2051 60.2229 85.7552C59.5375 84.2327 59.0506 83.0457 58.7624 82.1941C58.0596 80.2913 56.7794 77.1471 54.922 72.7613C53.0645 68.3755 51.0731 62.9844 48.9476 56.588C48.4611 55.247 47.9742 54.06 47.4871 53.0269C47.0545 51.9033 46.5587 50.6801 45.9997 49.3571C45.4406 48.0341 44.8729 46.521 44.2964 44.8177C43.72 43.1144 43.1171 40.9945 42.4878 38.458C42.4519 38.3131 42.3712 37.8331 42.2459 37.0179C42.1206 36.2028 42.0135 35.3062 41.9247 34.3281C41.8359 33.35 41.8466 32.4627 41.9567 31.6661C42.1392 30.8515 42.4479 30.3903 42.8827 30.2824C43.39 30.1565 43.942 30.3658 44.5386 30.9101C45.1173 31.382 45.6504 31.9805 46.1381 32.7058C46.6982 33.4131 47.1406 34.1111 47.4654 34.7998C47.7901 35.4885 47.9884 35.9778 48.0604 36.2677C48.33 37.3548 48.5093 38.3873 48.5981 39.3654C48.6869 40.3434 48.8302 41.2311 49.028 42.0282C49.2977 43.1153 49.7117 44.4742 50.2702 46.105C50.9012 47.7179 51.5773 49.358 52.2987 51.0254C53.0201 52.6927 53.6963 54.3328 54.3272 55.9457C54.9402 57.4861 55.445 58.7456 55.8417 59.7242C55.8597 59.7966 56.058 60.286 56.4367 61.1921C56.8153 62.0982 57.257 63.258 57.7615 64.6715C58.3205 65.9944 58.8793 67.4714 59.4377 69.1022C60.0507 70.6426 60.6637 72.183 61.2766 73.7234C61.8716 75.1913 62.3944 76.5233 62.845 77.7193C63.3501 78.8249 63.7018 79.6223 63.9001 80.1116C63.9541 80.329 64.0712 80.6461 64.2516 81.063C64.4864 81.3894 64.703 81.7972 64.9013 82.2865C65.1721 82.7578 65.4339 83.1929 65.6867 83.5918C65.9396 83.9906 66.2016 84.2718 66.473 84.4353C66.6921 83.4578 66.9029 81.9822 67.1057 80.0087C67.3809 78.0171 67.6471 75.9894 67.9043 73.9254C68.234 71.8434 68.5541 70.033 68.8647 68.4943C69.2298 66.8651 69.666 65.9876 70.1733 65.8617C70.7531 65.7179 71.2511 65.7097 71.6674 65.8372C72.0837 65.9647 72.5997 66.029 73.2154 66.0301C74.012 66.1402 74.4732 66.4489 74.5991 66.9562C74.707 67.391 74.9143 67.9165 75.2211 68.5328C75.5818 69.3665 76.0868 70.472 76.7363 71.8495C77.4403 73.1365 78.1805 74.4146 78.9569 75.6836C79.7154 76.8802 80.5014 77.8776 81.3149 78.6759C82.1283 79.4741 82.825 79.8013 83.4047 79.6575C83.6946 79.5856 84.0033 79.1243 84.3308 78.2738C84.6403 77.3508 85.2209 76.7451 86.0725 76.4569C86.2175 76.4209 86.4981 76.4667 86.9144 76.5942C87.3127 76.6493 87.729 76.7768 88.1632 76.9768ZM136.328 62.3728C136.652 63.6773 136.44 65.4607 135.694 67.723C135.002 69.8949 133.866 72.1384 132.286 74.4536C130.707 76.7688 128.738 78.9112 126.38 80.8809C124.005 82.7781 121.367 84.0864 118.469 84.8056C117.164 85.1292 115.733 85.2534 114.176 85.1782C112.619 85.103 111.053 84.8376 109.478 84.382C107.885 83.854 106.402 83.1451 105.027 82.2553C103.634 81.293 102.495 80.1139 101.611 78.7179C101.284 79.2605 100.92 80.1201 100.519 81.2965C100.191 82.4549 99.7998 83.6675 99.3448 84.9344C98.8719 86.1287 98.2994 87.2324 97.6276 88.2453C96.9377 89.1858 96.1218 89.7729 95.1797 90.0066C94.2376 90.2403 93.3235 89.9671 92.4376 89.1868C91.6061 88.316 90.8653 87.3459 90.2153 86.2763C89.5473 85.1342 89.006 84.0376 88.5914 82.9865C88.1767 81.9354 87.9514 81.3374 87.9155 81.1925C87.6997 80.3228 87.5488 78.6293 87.4627 76.112C87.3587 73.5222 87.4903 70.7969 87.8576 67.9363C88.2249 65.0757 88.9178 62.442 89.9362 60.0353C91.0271 57.6106 92.6234 56.1375 94.725 55.6161C95.5222 55.4183 96.1193 55.6548 96.5166 56.3256C96.9683 56.9059 97.275 57.5222 97.4368 58.1744L98.2459 61.4355C98.6802 61.6355 99.0965 61.763 99.4948 61.818C99.9476 61.7826 100.346 61.8377 100.69 61.9832C101.088 62.0382 101.405 62.2289 101.639 62.5553C101.947 62.8637 102.199 63.4165 102.397 64.2137C102.523 64.721 102.604 65.201 102.639 65.6538C102.656 66.0341 102.71 66.4055 102.8 66.7678C103.267 68.652 103.871 70.464 104.61 72.2038C105.35 73.9437 106.334 75.4304 107.563 76.664C108.774 77.8252 110.258 78.688 112.013 79.2526C113.751 79.7446 115.888 79.676 118.424 79.0467C121.613 78.2556 124.133 76.9381 125.983 75.0943C127.888 73.16 129.367 71.2158 130.421 69.2619C131.53 67.2175 132.357 65.4352 132.903 63.915C133.431 62.3224 133.985 61.4541 134.564 61.3103C135.507 61.0765 136.094 61.4307 136.328 62.3728ZM96.9863 67.0562C96.9144 66.7663 96.779 66.5307 96.5801 66.3492C96.3633 66.0953 96.2279 65.8596 96.1739 65.6422C96.102 65.3524 96.1116 65.0807 96.2026 64.8274C96.2936 64.574 96.2941 64.2661 96.2042 63.9038C96.1503 63.6864 96.0418 63.5594 95.8789 63.5229C95.698 63.4139 95.5896 63.287 95.5536 63.142C94.9374 63.4488 94.4017 64.2356 93.9467 65.5024C93.5642 66.7513 93.2266 68.1813 92.934 69.7925C92.7138 71.3858 92.6114 72.9883 92.6266 74.6C92.6239 76.1393 92.7394 77.38 92.9731 78.3221C93.099 78.8294 93.4507 79.6269 94.0282 80.7144C94.6058 81.802 95.1207 82.4821 95.5729 82.7545C96.1756 79.9124 96.6876 77.1698 97.1088 74.5265C97.6025 71.8654 97.5617 69.3752 96.9863 67.0562ZM145.087 43.5827C145.141 43.8001 145.194 44.7871 145.245 46.5438C145.296 48.3005 145.401 50.2746 145.56 52.4662C145.649 53.7521 145.745 55.6899 145.849 58.2798C146.007 60.7791 146.698 64.4928 147.921 69.4207C147.957 69.5657 148.019 69.9732 148.109 70.6434C148.252 71.2232 148.297 71.8662 148.241 72.5723C148.258 73.2605 148.157 73.9394 147.939 74.6091C147.702 75.2063 147.221 75.5948 146.497 75.7746C145.845 75.9364 145.048 75.8263 144.107 75.4443C141.972 74.5894 139.927 73.481 137.974 72.1194C136.02 70.7577 134.248 69.1971 132.658 67.4376C131.05 65.6057 129.677 63.6384 128.54 61.5357C127.402 59.433 126.546 57.2221 125.971 54.9031C125.899 54.6132 126.017 54.3146 126.326 54.0073C126.688 53.6095 126.979 53.3837 127.196 53.3298C128.283 53.0601 129.269 53.4693 130.155 54.5574C131.113 55.6276 132.097 56.9604 133.108 58.5558C134.192 60.1333 135.375 61.8014 136.658 63.5603C137.995 65.2288 139.668 66.5447 141.676 67.5081C141.822 67.1643 141.868 66.5758 141.815 65.7427C141.762 64.9095 141.7 64.1941 141.629 63.5964C141.576 63.0711 141.442 62.0658 141.227 60.5805C140.994 59.0226 140.744 57.3923 140.475 55.6896C140.279 53.9688 140.028 52.3386 139.723 50.7987C139.491 49.2409 139.302 48.1721 139.158 47.5924C139.051 47.1575 138.961 46.6413 138.89 46.0435C138.818 45.4458 138.828 44.8663 138.92 44.3051C139.084 43.7259 139.338 43.2012 139.683 42.7309C140.028 42.2607 140.563 41.9357 141.288 41.7559C141.65 41.666 142.329 41.7668 143.324 42.0583C144.302 42.2774 144.89 42.7855 145.087 43.5827ZM148.395 30.2992C148.431 30.4442 148.25 30.797 147.85 31.3576C147.451 31.9183 146.952 32.5422 146.353 33.2293C145.809 33.8259 145.219 34.3953 144.584 34.9375C143.949 35.4796 143.415 35.8046 142.98 35.9125C142.69 35.9844 142.291 36.0833 141.784 36.2092C141.331 36.2446 140.824 36.2165 140.263 36.125C139.774 36.0154 139.304 35.8244 138.851 35.552C138.381 35.2071 138.065 34.7085 137.903 34.0563C137.652 33.0417 137.78 32.0097 138.289 30.9603C138.78 29.8384 139.605 29.1336 140.765 28.8459C140.982 28.7919 141.48 28.7838 142.259 28.8214C143.092 28.7686 143.943 28.7882 144.812 28.8803C145.681 28.9724 146.451 29.1277 147.12 29.3462C147.863 29.5467 148.288 29.8644 148.395 30.2992ZM162.069 70.0646C162.195 70.5719 161.905 71.1056 161.197 71.6657C160.562 72.2079 160.064 72.5239 159.702 72.6138C158.977 72.7936 158.208 72.4844 157.394 71.6861C156.581 70.8878 155.804 69.9267 155.063 68.8026C154.323 67.6785 153.673 66.6088 153.113 65.5937C152.536 64.5061 152.12 63.7629 151.868 63.364C151.47 62.6933 150.965 61.8956 150.351 60.9709C149.737 60.0462 149.132 59.1578 148.536 58.3056C148.012 57.4354 147.552 56.6649 147.154 55.9942C146.757 55.3234 146.549 54.9518 146.532 54.8793C146.28 53.8648 146.227 52.8777 146.374 51.9182C146.593 50.9407 146.992 50.38 147.572 50.2361C148.224 50.0743 149.039 50.4108 150.015 51.2456C150.991 52.0804 152.004 53.214 153.051 54.6465C154.154 55.9886 155.228 57.5298 156.276 59.2702C157.305 60.9381 158.244 62.5515 159.092 64.1104C159.922 65.5968 160.599 66.9291 161.122 68.1071C161.7 69.1947 162.015 69.8472 162.069 70.0646ZM178.027 68.6443C178.134 69.0791 178.025 69.5679 177.698 70.1106C177.353 70.5808 176.936 71.069 176.446 71.5752C176.01 71.9909 175.566 72.3704 175.113 72.7137C174.641 72.9845 174.37 73.1289 174.297 73.1469C173.645 73.3087 173.102 73.2896 172.667 73.0896C172.288 72.7992 171.944 72.4998 171.637 72.1914C171.384 71.7925 171.176 71.4209 171.014 71.0765C170.924 70.7142 170.861 70.4606 170.825 70.3156C170.753 70.0257 170.736 69.6454 170.773 69.1746C170.792 68.6314 170.892 68.1064 171.074 67.5997C171.256 67.0929 171.493 66.6497 171.783 66.2699C172.128 65.7997 172.554 65.5016 173.061 65.3758C174.003 65.142 174.972 65.3248 175.967 65.9242C177.034 66.5056 177.721 67.4123 178.027 68.6443Z" fill="black"/>
</svg>
