<svg width="57" height="30" viewBox="0 0 57 30" fill="none" xmlns="http://www.w3.org/2000/svg">
<path d="M55.8114 14.7274C55.8456 14.8655 55.8108 15.0207 55.707 15.1931C55.5975 15.3424 55.4649 15.4975 55.3093 15.6582C55.1711 15.7903 55.0299 15.9108 54.8859 16.0198C54.7363 16.1058 54.6499 16.1517 54.6269 16.1574C54.4197 16.2088 54.2472 16.2027 54.1093 16.1392C53.9887 16.047 53.8796 15.9519 53.782 15.8539C53.7017 15.7273 53.6357 15.6092 53.5842 15.4999C53.5556 15.3848 53.5356 15.3042 53.5242 15.2582C53.5014 15.1661 53.4958 15.0453 53.5076 14.8958C53.5137 14.7233 53.5456 14.5566 53.6034 14.3956C53.6612 14.2347 53.7362 14.0939 53.8285 13.9733C53.938 13.824 54.0733 13.7293 54.2344 13.6893C54.5337 13.6151 54.8412 13.6732 55.1572 13.8635C55.4962 14.0482 55.7143 14.3361 55.8114 14.7274Z" fill="black"/>
<path d="M46.3997 2.54872C46.4111 2.59475 46.3534 2.7068 46.2265 2.88487C46.0997 3.06294 45.9411 3.26108 45.751 3.47929C45.5781 3.66878 45.3908 3.84961 45.1892 4.02179C44.9876 4.19398 44.8178 4.2972 44.6797 4.33146C44.5876 4.3543 44.461 4.38571 44.2999 4.42568C44.1561 4.43693 43.9951 4.42801 43.8168 4.39894C43.6616 4.36415 43.5122 4.30349 43.3686 4.21697C43.2192 4.10742 43.1188 3.94908 43.0675 3.74194C42.9875 3.41971 43.0284 3.09196 43.19 2.75866C43.3459 2.40235 43.608 2.17852 43.9763 2.08715C44.0453 2.07002 44.2035 2.06743 44.4508 2.07937C44.7154 2.06259 44.9857 2.06883 45.2617 2.09808C45.5377 2.12733 45.782 2.17665 45.9947 2.24605C46.2304 2.30973 46.3654 2.41062 46.3997 2.54872ZM50.7424 15.178C50.7824 15.3391 50.6901 15.5086 50.4654 15.6865C50.2638 15.8586 50.1055 15.959 49.9904 15.9876C49.7602 16.0447 49.516 15.9465 49.2576 15.6929C48.9993 15.4394 48.7525 15.1341 48.5173 14.7771C48.2822 14.4201 48.0757 14.0804 47.898 13.758C47.7146 13.4126 47.5827 13.1766 47.5024 13.0499C47.3763 12.8369 47.2157 12.5835 47.0207 12.2899C46.8256 11.9962 46.6335 11.714 46.4441 11.4434C46.2779 11.167 46.1316 10.9223 46.0055 10.7093C45.8793 10.4962 45.8134 10.3782 45.8077 10.3552C45.7277 10.033 45.711 9.71951 45.7576 9.41476C45.8272 9.10431 45.954 8.92624 46.1382 8.88056C46.3453 8.82917 46.6039 8.93603 46.914 9.20115C47.2241 9.46627 47.5456 9.82631 47.8783 10.2813C48.2284 10.7075 48.5697 11.197 48.9023 11.7497C49.2292 12.2794 49.5274 12.7918 49.7968 13.2869C50.0605 13.759 50.2755 14.1821 50.4416 14.5563C50.625 14.9017 50.7253 15.1089 50.7424 15.178Z" fill="black"/>
<path d="M45.3496 6.76754C45.3667 6.83659 45.3834 7.15007 45.3996 7.70799C45.4159 8.26591 45.4493 8.89287 45.4998 9.58888C45.5278 9.99728 45.5584 10.6127 45.5914 11.4353C45.6418 12.229 45.8611 13.4085 46.2494 14.9735C46.2608 15.0196 46.2807 15.149 46.3091 15.3619C46.3548 15.546 46.3688 15.7502 46.3511 15.9745C46.3565 16.193 46.3245 16.4087 46.2551 16.6213C46.18 16.811 46.0273 16.9344 45.7972 16.9915C45.59 17.0429 45.337 17.0079 45.0382 16.8866C44.36 16.6151 43.7107 16.2631 43.0903 15.8306C42.4699 15.3982 41.9072 14.9025 41.4021 14.3437C40.8912 13.7619 40.4552 13.1371 40.0941 12.4693C39.7329 11.8015 39.461 11.0993 39.2783 10.3628C39.2554 10.2708 39.293 10.1759 39.3909 10.0783C39.5062 9.95202 39.5983 9.88029 39.6674 9.86316C40.0126 9.7775 40.3258 9.90747 40.607 10.2531C40.9113 10.5929 41.224 11.0162 41.5451 11.5229C41.8893 12.0239 42.2651 12.5537 42.6724 13.1123C43.0971 13.6422 43.6284 14.0601 44.2662 14.3661C44.3124 14.2569 44.3271 14.07 44.3104 13.8054C44.2936 13.5408 44.2739 13.3136 44.2512 13.1238C44.2342 12.957 44.1917 12.6377 44.1235 12.1659C44.0496 11.6712 43.97 11.1534 43.8847 10.6126C43.8224 10.0661 43.7428 9.54836 43.6459 9.05932C43.572 8.56456 43.5123 8.22512 43.4666 8.04099C43.4323 7.9029 43.4039 7.73893 43.3812 7.5491C43.3585 7.35926 43.3617 7.17522 43.3908 6.99698C43.4429 6.81302 43.5237 6.64638 43.6333 6.49704C43.7428 6.3477 43.9126 6.24447 44.1428 6.18737C44.2579 6.15882 44.4735 6.19084 44.7897 6.28342C45.1001 6.353 45.2868 6.51437 45.3496 6.76754Z" fill="black"/>
<path d="M42.5676 12.7348C42.6704 13.1491 42.6032 13.7155 42.3661 14.434C42.1463 15.1238 41.7856 15.8363 41.2839 16.5716C40.7822 17.3069 40.157 17.9873 39.4082 18.6129C38.6537 19.2155 37.8161 19.6309 36.8955 19.8593C36.4812 19.9621 36.0267 20.0016 35.5322 19.9777C35.0376 19.9538 34.5402 19.8695 34.0401 19.7248C33.5343 19.5571 33.0631 19.332 32.6265 19.0494C32.1842 18.7438 31.8225 18.3693 31.5415 17.9259C31.4376 18.0983 31.3221 18.3713 31.1949 18.7449C31.0907 19.1128 30.9664 19.4979 30.8219 19.9003C30.6717 20.2796 30.4899 20.6301 30.2765 20.9518C30.0574 21.2505 29.7983 21.4369 29.4991 21.5112C29.1999 21.5854 28.9096 21.4986 28.6282 21.2508C28.3641 20.9743 28.1289 20.6661 27.9224 20.3264C27.7103 19.9637 27.5383 19.6155 27.4067 19.2816C27.275 18.9478 27.2034 18.7579 27.192 18.7119C27.1235 18.4357 27.0755 17.8978 27.0482 17.0983C27.0152 16.2758 27.057 15.4103 27.1736 14.5018C27.2903 13.5933 27.5103 12.7568 27.8338 11.9925C28.1802 11.2224 28.6872 10.7546 29.3547 10.589C29.6078 10.5262 29.7975 10.6013 29.9236 10.8143C30.0671 10.9986 30.1645 11.1943 30.2159 11.4015L30.4729 12.4372C30.6108 12.5007 30.743 12.5412 30.8695 12.5587C31.0133 12.5474 31.1398 12.5649 31.249 12.6111C31.3755 12.6286 31.4761 12.6892 31.5506 12.7928C31.6482 12.8908 31.7284 13.0663 31.7913 13.3195C31.8312 13.4806 31.8568 13.6331 31.8681 13.7769C31.8736 13.8977 31.8907 14.0156 31.9192 14.1307C32.0677 14.7291 32.2593 15.3046 32.4941 15.8571C32.729 16.4097 33.0416 16.8819 33.432 17.2736C33.8167 17.6424 34.2878 17.9165 34.8454 18.0958C35.3972 18.252 36.0759 18.2302 36.8815 18.0304C37.8942 17.7791 38.6944 17.3607 39.2821 16.7751C39.8871 16.1608 40.3569 15.5433 40.6916 14.9228C41.0436 14.2735 41.3063 13.7075 41.4797 13.2247C41.6474 12.7188 41.8233 12.4431 42.0074 12.3974C42.3066 12.3232 42.4933 12.4356 42.5676 12.7348ZM30.0728 14.2223C30.05 14.1302 30.007 14.0554 29.9438 13.9977C29.875 13.9171 29.832 13.8422 29.8148 13.7732C29.792 13.6811 29.795 13.5949 29.8239 13.5144C29.8528 13.4339 29.853 13.3362 29.8244 13.2211C29.8073 13.152 29.7729 13.1117 29.7211 13.1001C29.6637 13.0655 29.6292 13.0252 29.6178 12.9792C29.4221 13.0766 29.252 13.3265 29.1075 13.7288C28.986 14.1254 28.8788 14.5796 28.7859 15.0913C28.7159 15.5973 28.6834 16.1063 28.6882 16.6181C28.6874 17.107 28.724 17.501 28.7983 17.8003C28.8382 17.9614 28.9499 18.2146 29.1334 18.56C29.3168 18.9055 29.4803 19.1214 29.624 19.2079C29.8154 18.3053 29.978 17.4343 30.1117 16.5948C30.2685 15.7496 30.2556 14.9588 30.0728 14.2223Z" fill="black"/>
<path d="M27.2728 17.3731C27.4164 17.4596 27.4911 17.5144 27.4968 17.5374C27.5082 17.5835 27.4734 17.7387 27.3924 18.0031C27.3345 18.2618 27.2333 18.5435 27.089 18.848C26.9447 19.1526 26.7716 19.4398 26.5698 19.7098C26.3853 19.951 26.178 20.1002 25.9479 20.1573C25.4645 20.2772 25.0504 20.2822 24.7055 20.1723C24.3549 20.0394 24.039 19.8491 23.7576 19.6013C23.4992 19.3477 23.2697 19.0626 23.0689 18.7459C22.8855 18.4005 22.7193 18.0753 22.5703 17.7702C22.4843 17.6205 22.4183 17.5514 22.3723 17.5628C22.3032 17.5799 22.2279 17.8673 22.1464 18.4251C22.0592 18.9598 21.9632 19.5578 21.8585 20.219C21.7711 20.8515 21.6751 21.4495 21.5706 22.0129C21.4834 22.5477 21.4052 22.8236 21.3362 22.8407C20.9219 22.9435 20.5223 22.8594 20.1375 22.5884C19.7699 22.2887 19.437 21.9315 19.1386 21.5169C18.8576 21.0735 18.6111 20.6216 18.3991 20.1611C18.1814 19.6776 18.0268 19.3006 17.9353 19.0301C17.7121 18.4258 17.3055 17.4272 16.7156 16.0343C16.1257 14.6414 15.4932 12.9292 14.8182 10.8978C14.6636 10.4719 14.509 10.0949 14.3543 9.76679C14.2169 9.40995 14.0595 9.02145 13.8819 8.60128C13.7044 8.18111 13.5241 7.70054 13.341 7.15958C13.1579 6.61862 12.9664 5.94537 12.7666 5.13981C12.7552 5.09378 12.7295 4.94132 12.6897 4.68244C12.6499 4.42355 12.6159 4.1388 12.5877 3.82817C12.5595 3.51754 12.5629 3.23573 12.5979 2.98273C12.6559 2.72402 12.7539 2.57753 12.892 2.54327C13.0531 2.5033 13.2284 2.56975 13.4179 2.74263C13.6017 2.8925 13.771 3.0826 13.9259 3.31293C14.1038 3.53756 14.2443 3.75924 14.3474 3.97797C14.4505 4.19671 14.5135 4.35211 14.5364 4.44418C14.622 4.78941 14.679 5.11735 14.7072 5.42797C14.7354 5.7386 14.7809 6.0205 14.8437 6.27368C14.9293 6.61891 15.0609 7.0505 15.2382 7.56845C15.4386 8.08068 15.6534 8.60157 15.8825 9.13111C16.1116 9.66065 16.3263 10.1815 16.5267 10.6938C16.7214 11.183 16.8817 11.583 17.0077 11.8938C17.0134 11.9168 17.0764 12.0722 17.1966 12.36C17.3169 12.6478 17.4572 13.0161 17.6174 13.465C17.7949 13.8852 17.9724 14.3543 18.1498 14.8722C18.3444 15.3614 18.5391 15.8506 18.7338 16.3399C18.9228 16.8061 19.0888 17.2291 19.2319 17.6089C19.3923 17.9601 19.504 18.2133 19.567 18.3687C19.5841 18.4378 19.6213 18.5385 19.6786 18.6709C19.7532 18.7745 19.822 18.9041 19.885 19.0595C19.971 19.2091 20.0541 19.3473 20.1344 19.474C20.2147 19.6007 20.2979 19.69 20.3841 19.7419C20.4537 19.4314 20.5207 18.9628 20.5851 18.336C20.6725 17.7035 20.757 17.0595 20.8387 16.404C20.9434 15.7428 21.0451 15.1678 21.1437 14.6791C21.2597 14.1617 21.3982 13.883 21.5593 13.843C21.7434 13.7974 21.9016 13.7948 22.0338 13.8353C22.166 13.8758 22.3299 13.8962 22.5255 13.8965C22.7785 13.9315 22.9249 14.0295 22.9649 14.1906C22.9992 14.3287 23.065 14.4956 23.1624 14.6914C23.277 14.9561 23.4374 15.3073 23.6437 15.7447C23.8673 16.1535 24.1023 16.5594 24.3489 16.9624C24.5898 17.3424 24.8394 17.6592 25.0978 17.9127C25.3562 18.1663 25.5774 18.2702 25.7615 18.2245C25.8536 18.2017 25.9516 18.0552 26.0556 17.785C26.1539 17.4919 26.3383 17.2995 26.6088 17.208C26.6548 17.1966 26.744 17.2111 26.8762 17.2516C27.0027 17.2691 27.1349 17.3096 27.2728 17.3731Z" fill="black"/>
<path d="M17.7728 21.1959C18.0297 22.2316 18.0483 23.0943 17.8285 23.7841C17.603 24.4509 17.1964 25.126 16.6085 25.8093C16.4529 25.9701 16.234 26.171 15.9518 26.412C15.6695 26.6531 15.3499 26.8912 14.9929 27.1264C14.6359 27.3616 14.2501 27.5794 13.8357 27.78C13.4212 27.9805 13.0298 28.1265 12.6616 28.2179C11.6259 28.4748 10.8148 28.5539 10.2283 28.4551C9.64756 28.3793 9.32007 28.1918 9.24584 27.8926C9.16589 27.5703 9.19229 27.2828 9.32502 27.03C9.45775 26.7772 9.59031 26.6221 9.7227 26.5648L10.171 26.7468C10.3146 26.8333 10.5071 26.9199 10.7485 27.0066C10.9842 27.0703 11.3322 27.0451 11.7926 26.9309C12.2299 26.8224 12.7421 26.622 13.3293 26.3297C13.9107 26.0144 14.4405 25.6387 14.9187 25.2024C15.4141 24.7374 15.8004 24.2262 16.0774 23.6688C16.3775 23.1057 16.4533 22.525 16.3049 21.9266C16.1735 21.3972 15.6508 21.0138 14.7368 20.7764C13.84 20.5102 12.5201 20.5078 10.7769 20.7693C9.8852 20.9172 8.99641 21.0278 8.11056 21.101C7.219 21.1512 6.39658 21.1353 5.64329 21.0534C4.9073 20.9428 4.28363 20.7433 3.77227 20.4548C3.2552 20.1433 2.92243 19.6884 2.77396 19.09C2.63121 18.5146 2.65527 17.9222 2.84616 17.3129C3.03704 16.7036 3.30839 16.1232 3.66022 15.5717C4.02934 14.9914 4.42425 14.4659 4.84495 13.995C5.26564 13.5242 5.62006 13.1308 5.90819 12.815C6.14441 12.5854 6.47278 12.284 6.8933 11.9109C7.33113 11.5091 7.79768 11.1246 8.29296 10.7574C8.80554 10.3615 9.31804 10.0144 9.83045 9.71625C10.3602 9.38937 10.8207 9.17739 11.2119 9.08031C11.6722 8.9661 12.0144 9.0156 12.2383 9.22881C12.4622 9.44201 12.6313 9.77877 12.7455 10.2391C12.8426 10.6304 12.8993 11.0561 12.9157 11.5162C12.9322 11.9763 12.9342 12.4278 12.9219 12.8707C12.9097 13.3135 12.8859 13.7103 12.8508 14.0611C12.833 14.3831 12.8125 14.5959 12.7893 14.6994C12.7486 14.9294 12.6793 15.0932 12.5813 15.1908C12.4834 15.2884 12.4114 15.3429 12.3654 15.3543C12.2733 15.3771 12.213 15.331 12.1845 15.2159C12.1673 15.1469 12.1474 15.0174 12.1248 14.8276C12.1194 14.609 12.1055 14.356 12.083 14.0683C12.0835 13.775 12.0553 13.4644 11.9984 13.1365C11.9645 12.8028 11.9075 12.4749 11.8276 12.1527C11.702 11.6463 11.5876 11.2838 11.4844 11.065C11.3813 10.8463 11.1686 10.7769 10.8464 10.8568C10.5242 10.9368 10.1097 11.1373 9.60303 11.4585C9.09062 11.7567 8.57812 12.1037 8.06554 12.4997C7.51263 12.93 6.99122 13.4381 6.50131 14.0239C6.03441 14.6039 5.6279 15.1812 5.28179 15.7557C4.93568 16.3303 4.66727 16.8733 4.47655 17.3848C4.30315 17.8676 4.24785 18.2356 4.31067 18.4888C4.37919 18.765 4.62899 18.984 5.06005 19.1458C5.50842 19.2789 6.04315 19.3661 6.66423 19.4075C7.30833 19.4431 8.00425 19.4415 8.752 19.4026C9.49976 19.3637 10.2274 19.2931 10.935 19.1908C11.5276 19.1171 12.1834 19.0521 12.9024 18.9959C13.6214 18.9397 14.3115 18.9639 14.9728 19.0686C15.634 19.1733 16.226 19.3929 16.7488 19.7274C17.2658 20.0389 17.6072 20.5284 17.7728 21.1959Z" fill="black"/>
</svg>
