<svg width="150" height="150" viewBox="0 0 150 150" fill="none" xmlns="http://www.w3.org/2000/svg">
<g clip-path="url(#clip0_1_19)">
<path d="M114.844 0H35.1562C15.74 0 0 15.74 0 35.1562V114.844C0 134.26 15.74 150 35.1562 150H114.844C134.26 150 150 134.26 150 114.844V35.1562C150 15.74 134.26 0 114.844 0Z" fill="#666666"/>
<path d="M71.1627 16.4379C70.9107 16.4607 70.1086 16.541 69.3867 16.5979C52.7426 18.0984 37.1519 27.0797 27.2771 40.8832C21.7793 48.5584 18.2619 57.2643 16.9336 66.4863C16.4643 69.7055 16.4068 70.6564 16.4068 75.0205C16.4068 79.3852 16.4643 80.3361 16.9342 83.5547C20.1182 105.56 35.7779 124.049 57.0158 130.9C60.8191 132.125 64.8281 132.962 69.3873 133.465C71.1633 133.66 78.8379 133.66 80.6139 133.465C88.4836 132.595 95.1504 130.648 101.726 127.291C102.734 126.776 102.929 126.638 102.791 126.524C102.7 126.455 98.4035 120.693 93.249 113.728L83.8787 101.07L72.1365 83.6924C65.676 74.1387 60.3609 66.3258 60.3146 66.3258C60.2689 66.3146 60.2232 74.0355 60.2004 83.4633C60.1658 99.9703 60.1547 100.635 59.9484 101.024C59.6508 101.585 59.4217 101.814 58.94 102.067C58.5738 102.25 58.2527 102.284 56.523 102.284H54.5414L54.0141 101.952C53.6876 101.747 53.4224 101.459 53.2465 101.116L53.0062 100.6L53.0297 77.6326L53.0637 54.6533L53.4187 54.2062C53.6021 53.966 53.9918 53.6566 54.2666 53.5078C54.7359 53.2787 54.9193 53.2559 56.901 53.2559C59.2383 53.2559 59.6273 53.3473 60.235 54.0117C60.4066 54.1951 66.7641 63.7717 74.3707 75.307C82.0715 86.983 89.777 98.6558 97.4871 110.326L106.766 124.382L107.236 124.072C111.394 121.369 115.793 117.52 119.275 113.51C126.687 104.999 131.464 94.6207 133.068 83.5547C133.537 80.3361 133.594 79.3852 133.594 75.0205C133.594 70.6564 133.537 69.7055 133.068 66.4863C129.883 44.4809 114.223 25.9922 92.9853 19.142C89.2394 17.9273 85.2533 17.0912 80.7855 16.5873C79.6857 16.4725 72.1137 16.3471 71.1633 16.4385M95.1504 51.8812C95.7 52.1561 96.1471 52.6828 96.3076 53.2324C96.399 53.5307 96.4219 59.8998 96.399 74.2529L96.3644 94.8498L92.7334 89.2822L89.0906 83.7152V68.7434C89.0906 59.0637 89.1363 53.6221 89.2049 53.3584C89.3883 52.7174 89.7891 52.2135 90.3393 51.9152C90.8086 51.675 90.9809 51.6516 92.7791 51.6516C94.4748 51.6516 94.7725 51.675 95.1504 51.8812Z" fill="white"/>
</g>
<defs>
<clipPath id="clip0_1_19">
<rect width="150" height="150" fill="white"/>
</clipPath>
</defs>
</svg>
