<svg width="256" height="256" viewBox="0 0 256 256" fill="none" xmlns="http://www.w3.org/2000/svg">
<g clip-path="url(#clip0_944_30)">
<path d="M196 0H60C26.8629 0 0 26.8629 0 60V196C0 229.137 26.8629 256 60 256H196C229.137 256 256 229.137 256 196V60C256 26.8629 229.137 0 196 0Z" fill="#CD6799"/>
<mask id="mask0_944_30" style="mask-type:luminance" maskUnits="userSpaceOnUse" x="28" y="53" width="200" height="150">
<path d="M28 53H228V202.909H28V53Z" fill="white"/>
</mask>
<g mask="url(#mask0_944_30)">
<path d="M200.107 139.163C193.133 139.199 187.073 140.879 181.998 143.361C180.136 139.674 178.274 136.388 177.945 133.978C177.58 131.167 177.142 129.451 177.58 126.092C178.018 122.733 179.99 117.951 179.953 117.586C179.917 117.22 179.515 115.505 175.499 115.468C171.483 115.432 168.015 116.235 167.613 117.294C167.211 118.352 166.445 120.762 165.934 123.245C165.24 126.896 157.901 139.93 153.703 146.757C152.352 144.092 151.184 141.755 150.928 139.893C150.563 137.082 150.125 135.366 150.563 132.007C151.001 128.648 152.973 123.865 152.936 123.5C152.9 123.135 152.498 121.419 148.482 121.383C144.466 121.346 140.997 122.149 140.596 123.208C140.194 124.267 139.756 126.75 138.916 129.159C138.077 131.569 128.329 153.329 125.773 158.951C124.74 161.226 123.657 163.478 122.524 165.705C122.524 165.705 122.487 165.815 122.378 165.997C122.022 166.695 121.656 167.389 121.282 168.078V168.115C120.735 169.101 120.15 170.013 119.858 170.013C119.639 170.013 119.238 167.385 119.931 163.807C121.392 156.249 124.86 144.493 124.824 144.092C124.824 143.873 125.481 141.828 122.56 140.769C119.712 139.71 118.69 141.463 118.434 141.463C118.179 141.463 117.996 142.084 117.996 142.084C117.996 142.084 121.173 128.867 111.936 128.867C106.167 128.867 98.208 135.183 94.266 140.879C89.7833 143.318 85.3043 145.764 80.829 148.217C78.676 149.422 76.449 150.627 74.367 151.759C74.221 151.613 74.075 151.43 73.929 151.284C62.757 139.345 42.093 130.912 42.969 114.884C43.298 109.042 45.306 93.708 82.655 75.088C113.396 59.937 137.858 64.135 142.093 73.445C148.153 86.735 128.986 111.415 97.223 114.993C85.101 116.344 78.749 111.671 77.143 109.919C75.463 108.093 75.207 107.984 74.586 108.349C73.564 108.896 74.221 110.539 74.586 111.488C75.536 113.971 79.442 118.352 86.05 120.506C91.892 122.405 106.094 123.464 123.29 116.819C142.531 109.371 157.573 88.669 153.155 71.328C148.738 53.73 119.53 47.925 91.892 57.746C75.462 63.588 57.646 72.788 44.831 84.763C29.606 99.003 27.197 111.379 28.183 116.563C31.724 134.964 57.098 146.939 67.248 155.811C66.737 156.103 66.262 156.359 65.861 156.578C60.786 159.097 41.436 169.21 36.616 179.908C31.14 192.029 37.493 200.718 41.691 201.886C54.725 205.501 68.124 199.002 75.317 188.268C82.509 177.534 81.633 163.588 78.31 157.199C78.2744 157.118 78.225 157.044 78.164 156.98C79.479 156.213 80.829 155.41 82.144 154.643C84.5601 153.215 87.0067 151.84 89.482 150.517C88.241 153.913 87.328 157.965 86.89 163.807C86.343 170.671 89.154 179.579 92.841 183.084C94.484 184.617 96.419 184.654 97.661 184.654C101.969 184.654 103.904 181.076 106.058 176.841C108.686 171.656 111.06 165.632 111.06 165.632C111.06 165.632 108.102 181.916 116.134 181.916C119.055 181.916 122.012 178.119 123.327 176.184V176.22C123.327 176.22 123.4 176.111 123.546 175.855C123.838 175.38 124.02 175.088 124.02 175.088V175.015C125.189 172.971 127.817 168.334 131.724 160.63C136.762 150.7 141.618 138.287 141.618 138.287C141.618 138.287 142.056 141.317 143.553 146.355C144.429 149.313 146.255 152.562 147.715 155.702C146.547 157.345 145.817 158.257 145.817 158.257L145.853 158.294C144.904 159.535 143.882 160.886 142.75 162.2C138.77 166.947 134.024 172.387 133.367 173.957C132.6 175.819 132.783 177.169 134.243 178.265C135.302 179.068 137.2 179.177 139.135 179.068C142.713 178.812 145.233 177.936 146.474 177.388C148.409 176.695 150.673 175.636 152.79 174.066C156.697 171.182 159.07 167.056 158.851 161.616C158.741 158.622 157.755 155.629 156.551 152.817C156.916 152.306 157.244 151.795 157.609 151.284C163.78 142.266 168.562 132.372 168.562 132.372C168.562 132.372 169 135.402 170.497 140.441C171.227 142.996 172.724 145.771 174.039 148.473C168.234 153.183 164.656 158.659 163.378 162.237C161.078 168.882 162.867 171.875 166.262 172.569C167.796 172.898 169.986 172.168 171.593 171.474C173.637 170.817 176.047 169.685 178.347 168.005C182.253 165.121 186.014 161.105 185.795 155.665C185.685 153.183 185.028 150.736 184.115 148.363C189.044 146.319 195.397 145.187 203.502 146.136C220.881 148.181 224.313 159.024 223.655 163.588C222.998 168.151 219.347 170.634 218.142 171.401C216.938 172.168 216.536 172.423 216.646 172.971C216.792 173.774 217.376 173.737 218.398 173.591C219.822 173.336 227.525 169.904 227.854 161.507C228.402 150.773 218.179 139.053 200.107 139.163ZM66.043 184.362C60.275 190.641 52.243 193.015 48.774 191.007C45.05 188.852 46.51 179.579 53.594 172.934C57.901 168.882 63.451 165.121 67.138 162.821C67.978 162.31 69.219 161.58 70.716 160.667C70.972 160.521 71.118 160.448 71.118 160.448L71.994 159.9C74.586 169.393 72.103 177.754 66.043 184.362ZM108.03 155.811C106.022 160.704 101.824 173.226 99.268 172.533C97.078 171.948 95.727 162.456 98.83 153.073C100.4 148.363 103.722 142.741 105.657 140.55C108.797 137.045 112.265 135.877 113.105 137.301C114.164 139.163 109.272 152.744 108.03 155.811ZM142.678 172.387C141.838 172.825 141.035 173.117 140.67 172.898C140.414 172.752 141.035 172.168 141.035 172.168C141.035 172.168 145.38 167.494 147.096 165.377C148.081 164.135 149.25 162.675 150.491 161.032V161.507C150.491 167.093 145.088 170.853 142.678 172.387ZM169.403 166.289C168.782 165.851 168.892 164.391 170.973 159.827C171.776 158.038 173.675 155.045 176.924 152.16C177.289 153.329 177.545 154.46 177.508 155.519C177.472 162.566 172.433 165.194 169.403 166.289Z" fill="white"/>
</g>
</g>
<defs>
<clipPath id="clip0_944_30">
<rect width="256" height="256" fill="white"/>
</clipPath>
</defs>
</svg>
