<svg width="92" height="89" viewBox="0 0 92 89" fill="none" xmlns="http://www.w3.org/2000/svg">
<path d="M40.7309 39.6697C40.3518 38.4906 40.0105 37.3496 39.6314 36.1705C39.2522 34.9915 38.9109 33.8885 38.6076 32.7855C38.3043 31.7205 38.0389 30.7316 37.7734 29.8188H37.6976C37.3564 31.4543 36.9393 33.0897 36.4084 34.7252C35.8397 36.5509 35.2709 38.4526 34.6643 40.3543C34.1334 42.294 33.5647 44.0816 32.9959 45.6791H42.6268C42.3993 44.8765 42.0959 43.9295 41.7547 42.9368C41.4134 41.9137 41.0722 40.8107 40.7309 39.6697ZM75.6901 0H16.9193C8.00885 0 0.804688 7.2265 0.804688 16.1645V72.8355C0.804688 81.7735 8.00885 89 16.9193 89H75.6901C84.6005 89 91.8047 81.7735 91.8047 72.8355V16.1645C91.8047 7.2265 84.6005 0 75.6901 0ZM56.5422 62.8705H48.6138C48.3522 62.9085 48.0868 62.7184 48.0109 62.4521L44.9018 53.4H30.7968L27.9151 62.338C27.8393 62.6803 27.5359 62.9085 27.1947 62.8743H20.0664C19.6493 62.8743 19.5355 62.6423 19.6493 62.1897L31.8584 26.9282C31.9722 26.5479 32.0859 26.1295 32.2376 25.6731C32.3893 24.8744 32.4651 24.0376 32.4651 23.2009C32.4272 23.0107 32.5789 22.8205 32.7684 22.7825H42.5889C42.8922 22.7825 43.0439 22.8966 43.0818 23.0868L56.9214 62.262C57.0351 62.6765 56.9214 62.8705 56.5422 62.8705ZM69.4339 62.3C69.4339 62.7184 69.286 62.9085 68.9447 62.9085H61.5093C61.1301 62.9085 60.9405 62.6765 60.9405 62.3V33.0137C60.9405 32.6333 61.096 32.4812 61.4372 32.4812H68.9447C69.286 32.4812 69.4339 32.6714 69.4339 33.0137V62.3ZM68.6414 27.9551C68.1936 28.4113 67.6537 28.7661 67.0579 28.9957C66.4621 29.2253 65.8243 29.3244 65.1872 29.2863C63.9359 29.3244 62.7226 28.8299 61.8088 27.9551C60.9401 27.0023 60.4774 25.7465 60.5196 24.456C60.4817 23.1628 60.9746 21.9457 61.8809 21.0709C62.7984 20.1962 64.0118 19.7397 65.263 19.7397C66.7456 19.7397 67.8755 20.1962 68.7134 21.0709C69.5476 21.9838 70.0026 23.2009 69.9647 24.456C70.0026 25.7491 69.5476 27.0043 68.6414 27.9551Z" fill="#666666"/>
</svg>
