<svg width="92" height="89" viewBox="0 0 92 89" fill="none" xmlns="http://www.w3.org/2000/svg">
<path d="M16.9732 0C8.06912 0 0.870117 7.2265 0.870117 16.1645V72.8355C0.870117 81.7735 8.06912 89 16.9732 89H75.7019C84.6059 89 91.8049 81.7735 91.8049 72.8355V16.1645C91.8049 7.2265 84.6059 0 75.7019 0H16.9732ZM70.2837 19.5115H77.9752C78.1647 19.4735 78.3162 19.6256 78.3541 19.7778V56.0624C78.3541 56.747 78.392 57.5077 78.4299 58.3444C78.5057 59.1432 78.5436 59.9038 78.5815 60.5504C78.5815 60.8167 78.4678 61.0449 78.2026 61.159C76.2323 61.9957 74.1484 62.6043 72.0266 62.9846C70.0942 63.3269 68.1619 63.5171 66.1916 63.5171C63.3878 63.5551 60.584 62.9846 58.0454 61.8056C55.6583 60.7026 53.6881 58.8769 52.324 56.6329C50.9221 54.3128 50.2401 51.4222 50.2401 47.9611C50.2026 45.1199 50.9378 42.3223 52.3665 39.8694C53.7953 37.4165 55.8635 35.4012 58.3485 34.0406C61.0007 32.5573 64.1835 31.8346 67.9345 31.8346C68.124 31.8346 68.3892 31.8346 68.7302 31.8726C69.0712 31.9107 69.4501 31.9107 69.9048 31.9487V19.9299C69.9048 19.6637 70.0184 19.5115 70.2837 19.5115ZM14.8135 22.8205H23.4144C23.6038 22.8205 23.7933 22.8585 23.9448 22.8966C24.0964 22.9726 24.21 23.0868 24.3237 23.2389C25.0436 24.8744 25.8772 26.5098 26.7486 28.1453C27.658 29.7808 28.5294 31.3782 29.4767 32.9756C30.386 34.5731 31.2196 36.1705 32.0153 37.806H32.0911C32.8867 36.1325 33.7203 34.497 34.5539 32.8996C35.3874 31.3021 36.2589 29.7047 37.1304 28.1073C38.0018 26.5098 38.8354 24.8744 39.669 23.315C39.7068 23.1628 39.7826 23.0107 39.8963 22.9346C40.0462 22.8512 40.2209 22.8242 40.3889 22.8585H48.3835C48.573 22.8205 48.7624 22.9346 48.8003 23.1248C48.8382 23.1628 48.7624 23.315 48.6867 23.391L37.3198 42.2179L49.4444 62.1859C49.5202 62.338 49.5581 62.4902 49.5202 62.6423C49.4823 62.7944 49.3308 62.6803 49.1034 62.7184H40.4267C39.8205 62.7184 39.4037 62.6803 39.1385 62.3C38.3428 60.7026 37.5093 59.1432 36.7136 57.5457C35.9179 55.9863 35.0464 54.3889 34.1371 52.7534C33.2277 51.1179 32.3184 49.4825 31.409 47.809H31.3333C30.5376 49.4444 29.6661 51.0799 28.7947 52.7154C27.9232 54.3508 27.0518 55.9863 26.2182 57.5838C25.3467 59.1812 24.4753 60.8167 23.6038 62.3761C23.4523 62.7564 23.1491 62.7944 22.7324 62.7944H14.3967C14.2451 62.7944 14.1314 62.8705 14.1314 62.6803C14.1148 62.6091 14.1129 62.5352 14.1259 62.4632C14.139 62.3913 14.1666 62.3227 14.2072 62.262L25.9909 42.8645L14.5103 23.353C14.3967 23.2009 14.3588 23.0487 14.4346 22.9726C14.5103 22.8585 14.6619 22.8205 14.8135 22.8205ZM67.6314 38.909C66.1537 38.909 64.676 39.2132 63.3499 39.8979C62.0616 40.5444 60.9629 41.4953 60.1293 42.7124C59.2957 43.9295 58.8789 45.565 58.8789 47.5427C58.841 48.8739 59.0684 50.2051 59.523 51.4603C59.9019 52.4872 60.4703 53.4 61.2281 54.1607C61.948 54.8453 62.8194 55.3778 63.8046 55.682C64.8276 56.0244 65.8885 56.1765 66.9494 56.1765C67.5177 56.1765 68.0482 56.1385 68.5408 56.1004C69.0333 56.1385 69.4501 56.0624 69.9048 55.9103V39.1752C69.1601 38.9966 68.397 38.9073 67.6314 38.909Z" fill="#666666"/>
</svg>
